<svg xmlns="http://www.w3.org/2000/svg" viewBox="0 0 218.89 420.29"><defs><style>.cls-1{fill:#729799;}</style></defs><title>Asset 8</title><g id="Layer_2" data-name="Layer 2"><g id="Layer_1-2" data-name="Layer 1"><path class="cls-1" d="M62.56,187.68q-3.59-2.13-6.94-4.61Z"/><path class="cls-1" d="M195.06,177.61a110.59,110.59,0,0,1-11.92,12.75,109.3,109.3,0,0,1-29.91,19.41,108.89,108.89,0,0,0-43.79-9.12,91.38,91.38,0,0,0,73.15-36.73l4.63,5.09Z"/><path class="cls-1" d="M62.56,187.68q-3.59-2.13-6.94-4.61Z"/><path class="cls-1" d="M218.89,310.09a109,109,0,0,1-18.72,61.23l-11.4-16.2a91.17,91.17,0,0,0-79.33-136.23,109.19,109.19,0,0,1-17.55-1.41c-.91-.14-1.82-.3-2.72-.48-2.39-.43-4.74-1-7.07-1.55h0a106.33,106.33,0,0,1-16.44-5.67,107.41,107.41,0,0,1-15.89-8.57,110,110,0,0,1-22.41-19.36A108.87,108.87,0,0,1,18.24,170a110.22,110.22,0,0,1-8.95-16.32A109.44,109.44,0,0,1,193,38.74l-8.44,10.14L181.1,53a91.2,91.2,0,1,0-125.48,130q3.36,2.48,6.94,4.61h0a90.9,90.9,0,0,0,46.88,13,108.89,108.89,0,0,1,43.79,9.12,104.53,104.53,0,0,1,11.13,5.63A109.39,109.39,0,0,1,218.89,310.09Z"/><path class="cls-1" d="M62.56,187.68q-3.59-2.13-6.94-4.61Z"/><path class="cls-1" d="M18.24,186.38V419.53H0V157a116.17,116.17,0,0,0,9.12,17A117.16,117.16,0,0,0,18.24,186.38Z"/><path class="cls-1" d="M62.56,187.68q-3.59-2.13-6.94-4.61Z"/><path class="cls-1" d="M218.89,409.79l-5.25,3.7-4.08,2.87L204,420.29l-20.69-29.41-7.62-10.82-3-4.25L69.44,229.15l-.54-.78-6.52-9.25a118.74,118.74,0,0,0,14.15,5l1.3.35a4.12,4.12,0,0,0,.47.13c.72.2,1.45.4,2.18.56l.79.19h0c3,.73,6,1.35,9.13,1.84l94.44,134.16,11.08,15.75Z"/><path class="cls-1" d="M171,384.61l-.37.37-3.18-4.52.4-.33Z"/><rect class="cls-1" x="100.32" y="128.44" width="18.24" height="54.72"/><rect class="cls-1" x="100.32" y="128.44" width="18.24" height="54.72"/><path class="cls-1" d="M195.06,177.61a110.59,110.59,0,0,1-11.92,12.75,109.3,109.3,0,0,1-29.91,19.41,108.89,108.89,0,0,0-43.79-9.12,91.38,91.38,0,0,0,73.15-36.73l4.63,5.09Z"/><rect class="cls-1" x="100.32" y="128.44" width="18.24" height="54.72"/><path class="cls-1" d="M62.76,231.73a91.59,91.59,0,0,0-35.4,38.55V237.69a110.28,110.28,0,0,1,24.88-20.92l4,5.69.54.78Z"/><path class="cls-1" d="M178.38,395.09a109.45,109.45,0,0,1-151-12.61V349.89a91.22,91.22,0,0,0,140.09,30.57l.4-.33,3.15,4.48Z"/><rect class="cls-1" x="36.48" y="100.32" width="145.92" height="18.24"/><rect class="cls-1" x="100.32" y="128.44" width="18.24" height="54.72"/></g></g></svg>