<svg xmlns="http://www.w3.org/2000/svg" viewBox="0 0 239.64 460.14"><defs><style>.cls-1{fill:#729799;}.cls-2{fill:#e4dfd1;}</style></defs><title>Asset 5</title><g id="Layer_2" data-name="Layer 2"><g id="Layer_1-2" data-name="Layer 1"><path class="cls-1" d="M68.5,205.48q-3.93-2.34-7.6-5Z"/><path class="cls-1" d="M213.56,194.45a119.8,119.8,0,0,1-45.8,35.21,119.17,119.17,0,0,0-47.94-10,100,100,0,0,0,80.08-40.21L205,185Z"/><path class="cls-1" d="M68.5,205.48q-3.93-2.34-7.6-5Z"/><path class="cls-1" d="M239.64,339.49a119.2,119.2,0,0,1-20.49,67L206.67,388.8a99.82,99.82,0,0,0-86.85-149.16,119.36,119.36,0,0,1-19.22-1.54c-1-.16-2-.32-3-.52-2.61-.48-5.18-1.06-7.73-1.7h0a116.34,116.34,0,0,1-18-6.21,118.84,118.84,0,0,1-17.4-9.38A120.26,120.26,0,0,1,30,199.08a118.11,118.11,0,0,1-10-13A119.82,119.82,0,0,1,211.27,42.41L202,53.52l-3.76,4.53A99.85,99.85,0,1,0,60.9,200.43q3.68,2.7,7.6,5h0a99.44,99.44,0,0,0,51.32,14.18,119.17,119.17,0,0,1,47.94,10,115.77,115.77,0,0,1,12.18,6.16A119.77,119.77,0,0,1,239.64,339.49Z"/><path class="cls-1" d="M68.5,205.48q-3.93-2.34-7.6-5Z"/><path class="cls-1" d="M20,204.05V459.31H0V171.93a128.1,128.1,0,0,0,10,18.63A126.29,126.29,0,0,0,20,204.05Z"/><path class="cls-1" d="M68.5,205.48q-3.93-2.34-7.6-5Z"/><path class="cls-1" d="M239.64,448.65l-5.75,4.05-4.46,3.14-6.12,4.3L200.65,428l-8.34-11.85L189,411.45,76,250.88l-.59-.85L68.3,239.9a128.74,128.74,0,0,0,15.49,5.52c.46.13.94.27,1.42.39a3.07,3.07,0,0,0,.52.14c.78.23,1.58.44,2.38.61l.87.21v0c3.28.79,6.61,1.47,10,2l103.39,146.9,12.14,17.24Z"/><rect class="cls-2" x="109.84" y="140.62" width="19.97" height="59.91"/><rect class="cls-2" x="109.84" y="140.62" width="19.97" height="59.91"/><path class="cls-2" d="M213.56,194.45a119.8,119.8,0,0,1-45.8,35.21,119.17,119.17,0,0,0-47.94-10,100,100,0,0,0,80.08-40.21L205,185Z"/><rect class="cls-2" x="109.84" y="140.62" width="19.97" height="59.91"/><path class="cls-2" d="M68.71,253.7A100.24,100.24,0,0,0,30,295.91V260.23a120.49,120.49,0,0,1,27.23-22.91l4.4,6.24.58.85Z"/><path class="cls-2" d="M195.3,432.55A119.83,119.83,0,0,1,30,418.75V383.07a99.86,99.86,0,0,0,153.37,33.46l.44-.35,3.45,4.9Z"/><rect class="cls-2" x="39.94" y="109.84" width="159.76" height="19.97"/><rect class="cls-2" x="109.84" y="140.62" width="19.97" height="59.91"/></g></g></svg>