<svg xmlns="http://www.w3.org/2000/svg" viewBox="0 0 382.55 312.48"><defs><style>.cls-1{fill:#141415;}.cls-2{fill:#729799;}.cls-3{fill:#e4dfd1;}</style></defs><title>Asset 1</title><g id="Layer_2" data-name="Layer 2"><g id="Layer_1-2" data-name="Layer 1"><path class="cls-1" d="M189.83,173.88a9,9,0,0,1-4.58-1.17,8.56,8.56,0,0,1-3.17-3.18,8.79,8.79,0,0,1-1.16-4.54,10.16,10.16,0,0,1,.73-3.89,9.8,9.8,0,0,1,2-3.15,9.31,9.31,0,0,1,3-2.1,9.11,9.11,0,0,1,3.64-.74,9.84,9.84,0,0,1,3.11.41,25,25,0,0,1,2.32.94l.14,4.28h-.58l-1.1-3.18a10.4,10.4,0,0,0-2-1.2,5.48,5.48,0,0,0-2.09-.4,7.27,7.27,0,0,0-4,1.08,7.63,7.63,0,0,0-2.69,2.89,8.07,8.07,0,0,0-1,4,10.54,10.54,0,0,0,1,4.77,7.84,7.84,0,0,0,2.79,3.19,7.07,7.07,0,0,0,4,1.15,6.66,6.66,0,0,0,2.18-.31,7.7,7.7,0,0,0,1.72-.8l1.49-3.47h.55l-.25,4.11a14.69,14.69,0,0,1-1.63.72,10,10,0,0,1-1.89.47A17.06,17.06,0,0,1,189.83,173.88Z"/><path class="cls-1" d="M207.28,173.88a6.13,6.13,0,0,1-3.3-.83,5.22,5.22,0,0,1-2-2.23,7.72,7.72,0,0,1,.11-6.57,6.58,6.58,0,0,1,2.07-2.43,4.73,4.73,0,0,1,2.8-.91,4.28,4.28,0,0,1,3.43,1.43,6.75,6.75,0,0,1,1.43,4l-.08.08h-9c0,.28,0,.57,0,.88a5.82,5.82,0,0,0,1.31,3.94,4.66,4.66,0,0,0,3.69,1.5,7,7,0,0,0,2.36-.38,4.13,4.13,0,0,0,1.67-1.05h.08v.36a4.65,4.65,0,0,1-1.78,1.6A5.66,5.66,0,0,1,207.28,173.88Zm-.66-12.37a3.33,3.33,0,0,0-2.43,1.12,5.76,5.76,0,0,0-1.41,3.16h7.51a6.6,6.6,0,0,0-1.13-3.14A3,3,0,0,0,206.62,161.51Z"/><path class="cls-1" d="M216,173.61v-.42l1.74-.47V162.23l-2-.25v-.41l3-.66H219l.11,2h.08a7.9,7.9,0,0,1,1.94-1.52,4.41,4.41,0,0,1,2-.46,4.25,4.25,0,0,1,2.86,1,3.56,3.56,0,0,1,1.12,2.82v8l1.73.47v.42H223.8v-.42l2-.47v-7.29a3.39,3.39,0,0,0-.9-2.55,3.26,3.26,0,0,0-2.36-.87,4.71,4.71,0,0,0-1.8.4,3.92,3.92,0,0,0-1.57,1.15v9.16l2,.47v.42Z"/><path class="cls-1" d="M236.61,173.88a2.46,2.46,0,0,1-1.84-.72,2.73,2.73,0,0,1-.7-2v-9h-2.44v-.25l2.6-.69.91-3h.31v3h3.64v.94h-3.64v9a1.58,1.58,0,0,0,.52,1.29,2.15,2.15,0,0,0,1.38.43,4.27,4.27,0,0,0,1.11-.14,3.82,3.82,0,0,0,.93-.39l0,0v.11a2.8,2.8,0,0,1-.94,1A3.23,3.23,0,0,1,236.61,173.88Z"/><path class="cls-1" d="M243.18,173.61v-.42l1.73-.47V162.23l-2-.25v-.41l3-.66h.28l.14,2.45h0a23.11,23.11,0,0,1,1.71-1.65,4.06,4.06,0,0,1,1.05-.67,3.05,3.05,0,0,1,.94-.13,2.2,2.2,0,0,1,.86.16,2,2,0,0,1,.4.21.31.31,0,0,1,.12.26.49.49,0,0,1,0,.12c0,.05,0,.11,0,.18l-.28.72H251l-.52-.25a2.44,2.44,0,0,0-1-.19,3.3,3.3,0,0,0-1.6.44,5.13,5.13,0,0,0-1.6,1.55v8.61l2.12.47v.42Z"/><path class="cls-1" d="M260,173.88a6.08,6.08,0,0,1-3.3-.83,5.24,5.24,0,0,1-2-2.23,7.82,7.82,0,0,1,.11-6.57,6.68,6.68,0,0,1,2.07-2.43,4.74,4.74,0,0,1,2.81-.91,4.28,4.28,0,0,1,3.42,1.43,6.69,6.69,0,0,1,1.44,4l-.09.08h-9c0,.28,0,.57,0,.88a5.77,5.77,0,0,0,1.31,3.94,4.62,4.62,0,0,0,3.68,1.5,7,7,0,0,0,2.36-.38,4.24,4.24,0,0,0,1.68-1.05h.08v.36a4.8,4.8,0,0,1-1.78,1.6A5.66,5.66,0,0,1,260,173.88Zm-.67-12.37a3.29,3.29,0,0,0-2.42,1.12,5.76,5.76,0,0,0-1.41,3.16H263a6.71,6.71,0,0,0-1.13-3.14A3,3,0,0,0,259.35,161.51Z"/><path class="cls-1" d="M281.36,173.88a4.33,4.33,0,0,1-2.46-.72,4.83,4.83,0,0,1-1.7-2,7.28,7.28,0,0,1-.62-3.13,7.8,7.8,0,0,1,.89-3.85,6.2,6.2,0,0,1,2.34-2.42,6.49,6.49,0,0,1,3.23-.82,4.14,4.14,0,0,1,1.27.2,7.75,7.75,0,0,1,1.3.54v-7.43l-2-.52v-.41l3.12-.39H287v19.82l2,.47v.42h-3.06l-.25-1.41h-.14a7.62,7.62,0,0,1-1.95,1.24A5.46,5.46,0,0,1,281.36,173.88Zm-3.48-6.32a6.68,6.68,0,0,0,.61,3.05,4,4,0,0,0,3.62,2.33,5.35,5.35,0,0,0,1.82-.33,4.75,4.75,0,0,0,1.68-1.07v-8.89a9.08,9.08,0,0,0-1.71-.75,6,6,0,0,0-1.82-.28,4,4,0,0,0-2.09.58,4.11,4.11,0,0,0-1.53,1.89A8.65,8.65,0,0,0,277.88,167.56Z"/><path class="cls-1" d="M298.86,173.88a6.07,6.07,0,0,1-3.29-.83,5.18,5.18,0,0,1-2-2.23,7.27,7.27,0,0,1-.68-3.18,7.18,7.18,0,0,1,.79-3.39,6.49,6.49,0,0,1,2.07-2.43,4.73,4.73,0,0,1,2.8-.91,4.28,4.28,0,0,1,3.43,1.43,6.75,6.75,0,0,1,1.43,4l-.08.08h-9c0,.28,0,.57,0,.88a5.78,5.78,0,0,0,1.32,3.94,4.62,4.62,0,0,0,3.68,1.5,7,7,0,0,0,2.36-.38,4.13,4.13,0,0,0,1.67-1.05h.08v.36a4.65,4.65,0,0,1-1.78,1.6A5.66,5.66,0,0,1,298.86,173.88Zm-.66-12.37a3.33,3.33,0,0,0-2.43,1.12,5.76,5.76,0,0,0-1.41,3.16h7.51a6.6,6.6,0,0,0-1.13-3.14A3,3,0,0,0,298.2,161.51Z"/><path class="cls-1" d="M180.78,206.74v-.69l2.21-.47v-15.9l-2.21-.47v-.69h5.47a7.72,7.72,0,0,1,4.57,1.2,3.85,3.85,0,0,1,1.67,3.3,4,4,0,0,1-1.07,2.81,6.24,6.24,0,0,1-2.8,1.71l5.33,8.15,1.82.36v.69h-3.2l-5.52-8.64h-2.4v7.45l2.07.5v.69Zm5.66-17.26h-1.79v7.65h2a4.07,4.07,0,0,0,2.88-1.06,3.54,3.54,0,0,0,1.15-2.7,3.68,3.68,0,0,0-1.14-2.84A4.31,4.31,0,0,0,186.44,189.48Z"/><path class="cls-1" d="M204.22,207a6.17,6.17,0,0,1-3.3-.82,5.39,5.39,0,0,1-2-2.24,7.27,7.27,0,0,1-.67-3.18,7.18,7.18,0,0,1,.79-3.39,6.65,6.65,0,0,1,2.07-2.43,4.71,4.71,0,0,1,2.8-.91,4.31,4.31,0,0,1,3.42,1.43,6.72,6.72,0,0,1,1.44,4l-.09.08h-9c0,.28,0,.57,0,.88a5.8,5.8,0,0,0,1.31,3.94,4.63,4.63,0,0,0,3.69,1.5,6.83,6.83,0,0,0,2.36-.38,4.2,4.2,0,0,0,1.67-1.05h.08v.36a4.72,4.72,0,0,1-1.78,1.6A5.66,5.66,0,0,1,204.22,207Zm-.66-12.37a3.33,3.33,0,0,0-2.43,1.12,5.76,5.76,0,0,0-1.41,3.16h7.51a6.6,6.6,0,0,0-1.13-3.14A3,3,0,0,0,203.56,194.64Z"/><path class="cls-1" d="M216.37,207a7,7,0,0,1-1.73-.2,9.54,9.54,0,0,1-1.56-.6v-2.87h.33l.39,1.24a2.49,2.49,0,0,0,.91,1.32,3.17,3.17,0,0,0,1.88.48,3,3,0,0,0,2.06-.65,2.37,2.37,0,0,0,.73-1.86,2.41,2.41,0,0,0-.58-1.7,6.31,6.31,0,0,0-2.16-1.26,7.6,7.6,0,0,1-2.44-1.43,3,3,0,0,1-.79-2.21,2.83,2.83,0,0,1,.49-1.62,3.61,3.61,0,0,1,1.28-1.17,3.41,3.41,0,0,1,1.71-.44,6.7,6.7,0,0,1,1.82.23,7.64,7.64,0,0,1,1.38.54v2.82h-.33l-.36-1.19a2.15,2.15,0,0,0-1-1.38,3.15,3.15,0,0,0-1.53-.42,2.12,2.12,0,0,0-1.65.64,2.43,2.43,0,0,0-.56,1.66,2.1,2.1,0,0,0,.61,1.6,6.39,6.39,0,0,0,2,1.13,12.92,12.92,0,0,1,2,1,3,3,0,0,1,1.12,1.14,3.67,3.67,0,0,1,.36,1.73,3.15,3.15,0,0,1-.53,1.74,3.69,3.69,0,0,1-1.49,1.28A5,5,0,0,1,216.37,207Z"/><path class="cls-1" d="M228.76,207a6.89,6.89,0,0,1-1.72-.2,8.9,8.9,0,0,1-1.56-.6v-2.87h.33l.39,1.24a2.44,2.44,0,0,0,.91,1.32,3.17,3.17,0,0,0,1.88.48,3,3,0,0,0,2-.65,2.34,2.34,0,0,0,.73-1.86,2.37,2.37,0,0,0-.58-1.7,6.14,6.14,0,0,0-2.15-1.26,7.49,7.49,0,0,1-2.44-1.43,3,3,0,0,1-.79-2.21,2.9,2.9,0,0,1,.48-1.62,3.64,3.64,0,0,1,1.29-1.17,3.41,3.41,0,0,1,1.71-.44,6.7,6.7,0,0,1,1.82.23,7.64,7.64,0,0,1,1.38.54v2.82h-.33l-.36-1.19a2.18,2.18,0,0,0-1-1.38,3.16,3.16,0,0,0-1.54-.42,2.11,2.11,0,0,0-1.64.64,2.39,2.39,0,0,0-.56,1.66,2.13,2.13,0,0,0,.6,1.6,6.65,6.65,0,0,0,2,1.13,13.08,13.08,0,0,1,2,1,3,3,0,0,1,1.11,1.14,3.67,3.67,0,0,1,.36,1.73,3.14,3.14,0,0,1-.52,1.74,3.75,3.75,0,0,1-1.49,1.28A5.06,5.06,0,0,1,228.76,207Z"/><path class="cls-1" d="M243.18,207a5.17,5.17,0,0,1-3-.85,5.93,5.93,0,0,1-2-2.32,8.09,8.09,0,0,1,0-6.63,5.93,5.93,0,0,1,2-2.32,5.56,5.56,0,0,1,5.91,0,5.85,5.85,0,0,1,2,2.32,8,8,0,0,1,0,6.63,5.85,5.85,0,0,1-2,2.32A5.16,5.16,0,0,1,243.18,207Zm.38-.63a3.12,3.12,0,0,0,2.14-.76,4.65,4.65,0,0,0,1.31-2,7.35,7.35,0,0,0,.45-2.57,9.51,9.51,0,0,0-.53-3.25,5.36,5.36,0,0,0-1.56-2.32,3.79,3.79,0,0,0-2.52-.87,3.32,3.32,0,0,0-2.13.71,4.39,4.39,0,0,0-1.35,1.9,7.22,7.22,0,0,0-.47,2.7,8.87,8.87,0,0,0,.56,3.25,5.51,5.51,0,0,0,1.6,2.32A3.81,3.81,0,0,0,243.56,206.38Z"/><path class="cls-1" d="M258,207a4,4,0,0,1-2.76-1,3.6,3.6,0,0,1-1.07-2.82v-8l-2-.47v-.42h3.34v8.18a3.42,3.42,0,0,0,.87,2.55,3,3,0,0,0,2.25.87,4.31,4.31,0,0,0,1.72-.4,3.78,3.78,0,0,0,1.51-1.15V195.2l-2.24-.47v-.42h3.62v11.54l2,.47v.42H261.9v-1.69h-.09a8.41,8.41,0,0,1-1.87,1.48A4,4,0,0,1,258,207Z"/><path class="cls-1" d="M269,206.74v-.42l1.74-.47V195.36l-2-.25v-.41l3-.66H272l.13,2.45h.06a23.11,23.11,0,0,1,1.71-1.65,3.46,3.46,0,0,1,1-.66,2.77,2.77,0,0,1,.94-.14,2.11,2.11,0,0,1,.85.16,2,2,0,0,1,.4.21.29.29,0,0,1,.13.26s0,.08,0,.13l0,.18-.27.71h-.06l-.52-.24a2.28,2.28,0,0,0-1-.2,3.37,3.37,0,0,0-1.61.44,5.35,5.35,0,0,0-1.6,1.55v8.61l2.13.47v.42Z"/><path class="cls-1" d="M285.72,207a6,6,0,0,1-3.24-.82,5.32,5.32,0,0,1-2-2.24,7.27,7.27,0,0,1-.68-3.18,7.53,7.53,0,0,1,.79-3.46,6,6,0,0,1,2.18-2.4,6.31,6.31,0,0,1,5.12-.57,5.93,5.93,0,0,1,1.38.66c.59.41.89.76.89,1.05a.48.48,0,0,1-.2.36l-.74.64h-.11l-.36-.5a6.88,6.88,0,0,0-1.31-1.37,2.91,2.91,0,0,0-1.81-.54,4.06,4.06,0,0,0-3.19,1.45,6.44,6.44,0,0,0-1.26,4.32,5.84,5.84,0,0,0,1.29,3.94,4.5,4.5,0,0,0,3.63,1.5,6.86,6.86,0,0,0,2.35-.38,4.24,4.24,0,0,0,1.68-1.05h.08v.36a4.9,4.9,0,0,1-1.79,1.6A5.62,5.62,0,0,1,285.72,207Z"/><path class="cls-1" d="M300.05,207a6.17,6.17,0,0,1-3.3-.82,5.3,5.3,0,0,1-2-2.24,7.27,7.27,0,0,1-.68-3.18,7.18,7.18,0,0,1,.79-3.39,6.65,6.65,0,0,1,2.07-2.43,4.71,4.71,0,0,1,2.8-.91,4.29,4.29,0,0,1,3.42,1.43,6.72,6.72,0,0,1,1.44,4l-.08.08h-9c0,.28,0,.57,0,.88a5.8,5.8,0,0,0,1.31,3.94,4.64,4.64,0,0,0,3.69,1.5,6.83,6.83,0,0,0,2.36-.38,4.2,4.2,0,0,0,1.67-1.05h.08v.36a4.64,4.64,0,0,1-1.78,1.6A5.66,5.66,0,0,1,300.05,207Zm-.66-12.37a3.33,3.33,0,0,0-2.43,1.12,5.76,5.76,0,0,0-1.41,3.16h7.51a6.6,6.6,0,0,0-1.13-3.14A3,3,0,0,0,299.39,194.64Z"/><path class="cls-1" d="M312.2,207a7,7,0,0,1-1.73-.2,9.54,9.54,0,0,1-1.56-.6v-2.87h.34l.38,1.24a2.49,2.49,0,0,0,.91,1.32,3.17,3.17,0,0,0,1.88.48,3,3,0,0,0,2.06-.65,2.76,2.76,0,0,0,.15-3.56,6.34,6.34,0,0,0-2.15-1.26,7.56,7.56,0,0,1-2.45-1.43,3,3,0,0,1-.78-2.21,2.9,2.9,0,0,1,.48-1.62,3.61,3.61,0,0,1,1.28-1.17,3.46,3.46,0,0,1,1.71-.44,6.83,6.83,0,0,1,1.83.23,8.28,8.28,0,0,1,1.38.54v2.82h-.33l-.36-1.19a2.19,2.19,0,0,0-1-1.38,3.15,3.15,0,0,0-1.53-.42,2.08,2.08,0,0,0-1.64.64,2.39,2.39,0,0,0-.57,1.66,2.1,2.1,0,0,0,.61,1.6,6.52,6.52,0,0,0,2,1.13,12.92,12.92,0,0,1,2,1,3,3,0,0,1,1.12,1.14,3.67,3.67,0,0,1,.36,1.73,3.15,3.15,0,0,1-.53,1.74,3.69,3.69,0,0,1-1.49,1.28A5,5,0,0,1,312.2,207Z"/><path class="cls-1" d="M189.56,240.14a8.18,8.18,0,0,1-4.43-1.21,8.57,8.57,0,0,1-3.08-3.34,10.89,10.89,0,0,1,0-9.66,8.57,8.57,0,0,1,3.08-3.34,8.71,8.71,0,0,1,8.89,0,8.64,8.64,0,0,1,3.08,3.34,10.89,10.89,0,0,1,0,9.66,8.64,8.64,0,0,1-3.08,3.34A8.26,8.26,0,0,1,189.56,240.14Zm.58-.82a5.91,5.91,0,0,0,3.33-1,6.31,6.31,0,0,0,2.25-2.67,9.67,9.67,0,0,0,.8-4.08,11.54,11.54,0,0,0-1-5,8.11,8.11,0,0,0-2.68-3.3,6.41,6.41,0,0,0-3.75-1.17,6,6,0,0,0-3.34.94,6.3,6.3,0,0,0-2.29,2.66,9.37,9.37,0,0,0-.83,4.08,11.62,11.62,0,0,0,1,5,8.06,8.06,0,0,0,2.7,3.31A6.48,6.48,0,0,0,190.14,239.32Z"/><path class="cls-1" d="M208,240.14a4,4,0,0,1-2.76-1,3.59,3.59,0,0,1-1.08-2.82v-8l-2-.47v-.42h3.34v8.18a3.46,3.46,0,0,0,.87,2.55,3,3,0,0,0,2.25.87,4.36,4.36,0,0,0,1.73-.4,3.82,3.82,0,0,0,1.5-1.15v-9.16l-2.24-.47v-.42h3.62V239l2,.46v.42h-3.34v-1.69h-.08a8.44,8.44,0,0,1-1.88,1.48A4,4,0,0,1,208,240.14Z"/><path class="cls-1" d="M223.1,240l-4.5-11.63-1.73-.52v-.42h5.3v.42l-2.13.47v.08l3.56,9.66h.09l3.5-9.63v-.08l-2.24-.5v-.42h4.89v.42l-1.77.52L223.38,240Z"/><path class="cls-1" d="M237.77,240.14a6.17,6.17,0,0,1-3.3-.82,5.26,5.26,0,0,1-2-2.24,7.72,7.72,0,0,1,.11-6.57,6.84,6.84,0,0,1,2.07-2.43,4.73,4.73,0,0,1,2.8-.91,4.32,4.32,0,0,1,3.43,1.43,6.71,6.71,0,0,1,1.43,4l-.08.08h-9c0,.28,0,.57,0,.89a5.73,5.73,0,0,0,1.31,3.93,4.63,4.63,0,0,0,3.68,1.51,6.79,6.79,0,0,0,2.36-.39,4.13,4.13,0,0,0,1.67-1h.09v.36a4.67,4.67,0,0,1-1.79,1.6A5.62,5.62,0,0,1,237.77,240.14Zm-.67-12.36a3.32,3.32,0,0,0-2.43,1.11,5.83,5.83,0,0,0-1.4,3.17h7.51a6.71,6.71,0,0,0-1.14-3.15A3,3,0,0,0,237.1,227.78Z"/><path class="cls-1" d="M246.6,239.87v-.42l1.74-.46v-10.5l-2-.24v-.42l3-.66h.27l.14,2.46h.05a19.87,19.87,0,0,1,1.72-1.66,3.46,3.46,0,0,1,1-.66,2.67,2.67,0,0,1,.93-.14,2.16,2.16,0,0,1,.86.16,2.31,2.31,0,0,1,.4.21.33.33,0,0,1,.13.26.69.69,0,0,1,0,.13l0,.18-.28.72h-.05l-.53-.25a2.22,2.22,0,0,0-1-.2,3.24,3.24,0,0,0-1.6.45,5.19,5.19,0,0,0-1.6,1.54V239l2.13.46v.42Z"/><path class="cls-1" d="M261.54,240.14a2.45,2.45,0,0,1-1.84-.71,2.76,2.76,0,0,1-.7-2v-9h-2.43v-.25l2.59-.69.91-3h.31v3H264v.94h-3.64v9a1.54,1.54,0,0,0,.52,1.28,2.09,2.09,0,0,0,1.38.43,4.27,4.27,0,0,0,1.11-.14,3.82,3.82,0,0,0,.93-.39l0,0v.11a2.63,2.63,0,0,1-.94,1A3.23,3.23,0,0,1,261.54,240.14Z"/><path class="cls-1" d="M273.77,240.14a6.17,6.17,0,0,1-3.3-.82,5.33,5.33,0,0,1-2-2.24,7.72,7.72,0,0,1,.11-6.57,6.84,6.84,0,0,1,2.07-2.43,4.74,4.74,0,0,1,2.81-.91,4.31,4.31,0,0,1,3.42,1.43,6.65,6.65,0,0,1,1.43,4l-.08.08h-9c0,.28,0,.57,0,.89a5.73,5.73,0,0,0,1.31,3.93,4.63,4.63,0,0,0,3.68,1.51,6.75,6.75,0,0,0,2.36-.39,4.13,4.13,0,0,0,1.67-1h.09v.36a4.72,4.72,0,0,1-1.78,1.6A5.69,5.69,0,0,1,273.77,240.14Zm-.67-12.36a3.32,3.32,0,0,0-2.43,1.11,5.83,5.83,0,0,0-1.4,3.17h7.51a6.71,6.71,0,0,0-1.14-3.15A3,3,0,0,0,273.1,227.78Z"/><path class="cls-1" d="M285.91,240.14a6.45,6.45,0,0,1-1.72-.2,8.9,8.9,0,0,1-1.56-.6v-2.87H283l.39,1.25a2.45,2.45,0,0,0,.91,1.31,3.17,3.17,0,0,0,1.88.48,3,3,0,0,0,2.05-.65,2.34,2.34,0,0,0,.73-1.86,2.41,2.41,0,0,0-.57-1.7,6.47,6.47,0,0,0-2.16-1.26,7.49,7.49,0,0,1-2.44-1.43,2.94,2.94,0,0,1-.79-2.21,2.9,2.9,0,0,1,.48-1.62,3.64,3.64,0,0,1,1.29-1.17,3.51,3.51,0,0,1,1.71-.44,6.7,6.7,0,0,1,1.82.23,7.64,7.64,0,0,1,1.38.54v2.82h-.33l-.36-1.19a2.18,2.18,0,0,0-1-1.38,3.15,3.15,0,0,0-1.54-.41,2.1,2.1,0,0,0-1.64.63,2.39,2.39,0,0,0-.56,1.66,2.13,2.13,0,0,0,.6,1.6,6.44,6.44,0,0,0,2,1.13,13.08,13.08,0,0,1,2,1,3.05,3.05,0,0,1,1.12,1.14,3.67,3.67,0,0,1,.36,1.73,3.15,3.15,0,0,1-.53,1.74,3.75,3.75,0,0,1-1.49,1.28A5.06,5.06,0,0,1,285.91,240.14Z"/><path class="cls-1" d="M307.51,240.14a4.3,4.3,0,0,1-2.46-.71,4.88,4.88,0,0,1-1.7-2,7.36,7.36,0,0,1-.62-3.14,7.8,7.8,0,0,1,.88-3.85A6.06,6.06,0,0,1,306,228a6.34,6.34,0,0,1,3.23-.83,4.22,4.22,0,0,1,1.27.21,7.56,7.56,0,0,1,1.3.53v-7.42l-2-.53v-.41l3.12-.39h.28V239l2,.46v.42H312l-.24-1.41h-.14a8,8,0,0,1-1.95,1.24A5.29,5.29,0,0,1,307.51,240.14ZM304,233.82a6.79,6.79,0,0,0,.6,3.05,4.19,4.19,0,0,0,1.59,1.77,4,4,0,0,0,2,.57,5.06,5.06,0,0,0,1.82-.34,4.73,4.73,0,0,0,1.69-1.07v-8.89a9.78,9.78,0,0,0-1.71-.75,6,6,0,0,0-1.83-.27,3.77,3.77,0,0,0-3.61,2.47A8.6,8.6,0,0,0,304,233.82Z"/><path class="cls-1" d="M323.79,240.14a6.15,6.15,0,0,1-3.29-.82,5.26,5.26,0,0,1-2-2.24,7.72,7.72,0,0,1,.11-6.57,6.84,6.84,0,0,1,2.07-2.43,4.73,4.73,0,0,1,2.8-.91,4.32,4.32,0,0,1,3.43,1.43,6.71,6.71,0,0,1,1.43,4l-.08.08h-9c0,.28,0,.57,0,.89a5.73,5.73,0,0,0,1.32,3.93,4.63,4.63,0,0,0,3.68,1.51,6.79,6.79,0,0,0,2.36-.39,4.13,4.13,0,0,0,1.67-1h.09v.36a4.67,4.67,0,0,1-1.79,1.6A5.63,5.63,0,0,1,323.79,240.14Zm-.66-12.36a3.32,3.32,0,0,0-2.43,1.11,5.75,5.75,0,0,0-1.4,3.17h7.5a6.6,6.6,0,0,0-1.13-3.15A3,3,0,0,0,323.13,227.78Z"/><path class="cls-1" d="M184.56,273v-.69l2.76-.47v-16.1h-5.38l-1.16,4.06h-.55v-5h15.85v5h-.56l-1.16-4.06H189v16.1l2.76.47V273Z"/><path class="cls-1" d="M199.14,273v-.41l1.74-.47V261.63l-2-.25V261l3-.66h.27l.14,2.46h.05A19.87,19.87,0,0,1,204,261.1a3.46,3.46,0,0,1,1.05-.66,2.93,2.93,0,0,1,.93-.14,2.16,2.16,0,0,1,.86.17,1.82,1.82,0,0,1,.4.2.34.34,0,0,1,.13.27.74.74,0,0,1,0,.12c0,.05,0,.11,0,.18l-.28.72H207l-.53-.25a2.24,2.24,0,0,0-1-.19,3.22,3.22,0,0,0-1.6.44,5.19,5.19,0,0,0-1.6,1.54v8.62l2.13.47V273Z"/><path class="cls-1" d="M212.92,273.28a3.12,3.12,0,0,1-2.13-.76,2.68,2.68,0,0,1-.86-2.11,2.87,2.87,0,0,1,1-2.21,7.28,7.28,0,0,1,3.16-1.44l2.7-.69v-2.29a2.41,2.41,0,0,0-.85-1.92,2.93,2.93,0,0,0-2-.73,2.33,2.33,0,0,0-1.67.48,1.78,1.78,0,0,0-.49,1.31v1.14l-.13.13h-.72a.86.86,0,0,1-.58-.13.78.78,0,0,1-.14-.53,2,2,0,0,1,.36-1.08,3.47,3.47,0,0,1,1.05-1,13.77,13.77,0,0,1,1.5-.81,3.53,3.53,0,0,1,1.45-.35,4.15,4.15,0,0,1,2.61.73,2.68,2.68,0,0,1,.95,2.28v8.59a1.58,1.58,0,0,0,.52.3,1.92,1.92,0,0,0,.67.11h1.44l0,0v.05a2.48,2.48,0,0,1-.64.58,2,2,0,0,1-1.19.31,2.1,2.1,0,0,1-1.49-.5,2,2,0,0,1-.63-1.16h-.06a6.13,6.13,0,0,1-1.72,1.19A5.09,5.09,0,0,1,212.92,273.28Zm-1.6-3.37a2.18,2.18,0,0,0,.63,1.7,2.63,2.63,0,0,0,1.79.56,6.46,6.46,0,0,0,1.5-.2,5.61,5.61,0,0,0,1.51-.65v-4.67a21.63,21.63,0,0,0-3.46.94,3.48,3.48,0,0,0-1.57,1A2.14,2.14,0,0,0,211.32,269.91Z"/><path class="cls-1" d="M228.68,273.28a4.33,4.33,0,0,1-2.46-.72,4.93,4.93,0,0,1-1.69-2,7.16,7.16,0,0,1-.63-3.13,7.84,7.84,0,0,1,.89-3.86,6.13,6.13,0,0,1,2.35-2.41,6.45,6.45,0,0,1,3.23-.83,4.15,4.15,0,0,1,1.26.21,7,7,0,0,1,1.3.54v-7.43l-2-.53v-.41l3.12-.39h.27v19.83l2,.47V273h-3.06l-.25-1.41h-.14a7.8,7.8,0,0,1-1.94,1.25A5.54,5.54,0,0,1,228.68,273.28ZM225.2,267a6.72,6.72,0,0,0,.61,3.06,4,4,0,0,0,1.59,1.76,4,4,0,0,0,2,.57,5.35,5.35,0,0,0,1.82-.33,4.64,4.64,0,0,0,1.68-1.08V262a10.59,10.59,0,0,0-1.71-.75,6,6,0,0,0-1.82-.27,3.92,3.92,0,0,0-2.09.58,4,4,0,0,0-1.53,1.89A8.77,8.77,0,0,0,225.2,267Z"/><path class="cls-1" d="M245.11,273.28a4,4,0,0,1-2.76-1,3.58,3.58,0,0,1-1.08-2.82v-8l-2-.47v-.41h3.34v8.17a3.46,3.46,0,0,0,.87,2.55,3,3,0,0,0,2.25.87,4.36,4.36,0,0,0,1.73-.4,3.73,3.73,0,0,0,1.5-1.14v-9.17l-2.23-.47v-.41h3.61v11.54l2,.47V273H249v-1.68h-.08a8.43,8.43,0,0,1-1.88,1.47A3.87,3.87,0,0,1,245.11,273.28Z"/><path class="cls-1" d="M261.65,273.28a6,6,0,0,1-3.25-.83,5.31,5.31,0,0,1-2-2.24,7.09,7.09,0,0,1-.68-3.17,7.42,7.42,0,0,1,.79-3.47,6,6,0,0,1,2.18-2.4,5.84,5.84,0,0,1,3.16-.87,5.93,5.93,0,0,1,2,.3,6.35,6.35,0,0,1,1.38.67c.59.4.88.75.88,1.05a.46.46,0,0,1-.19.35l-.75.64H265l-.36-.5a6.31,6.31,0,0,0-1.31-1.36,2.89,2.89,0,0,0-1.81-.54,4,4,0,0,0-3.18,1.45,6.4,6.4,0,0,0-1.26,4.32,5.86,5.86,0,0,0,1.28,3.93,4.5,4.5,0,0,0,3.63,1.51,6.86,6.86,0,0,0,2.35-.39,4.1,4.1,0,0,0,1.68-1.05h.09V271a4.94,4.94,0,0,1-1.8,1.6A5.55,5.55,0,0,1,261.65,273.28Z"/><path class="cls-1" d="M274.07,273.28a2.47,2.47,0,0,1-1.84-.72,2.8,2.8,0,0,1-.7-2v-9H269.1v-.25l2.6-.69.91-3h.3v3h3.65v.94h-3.65v9a1.55,1.55,0,0,0,.53,1.28,2.09,2.09,0,0,0,1.38.43,4.19,4.19,0,0,0,1.1-.14,4.51,4.51,0,0,0,.94-.38l0,0v.11a2.64,2.64,0,0,1-.94,1A3.26,3.26,0,0,1,274.07,273.28Z"/><path class="cls-1" d="M280.7,273v-.41l1.74-.47V261.63l-2-.53v-.41l3.12-.39h.28v11.82l2,.47V273Zm2-17.06a1,1,0,0,1-1.05-1.05,1,1,0,0,1,1.05-1,1.05,1.05,0,0,1,.75.3,1,1,0,0,1,.3.75,1,1,0,0,1-1.05,1.05Z"/><path class="cls-1" d="M295.52,273.28a5.14,5.14,0,0,1-2.95-.86,5.79,5.79,0,0,1-2-2.32,8,8,0,0,1,0-6.62,5.79,5.79,0,0,1,2-2.32,5.51,5.51,0,0,1,5.91,0,5.76,5.76,0,0,1,2,2.32,8,8,0,0,1,0,6.62,5.76,5.76,0,0,1-2,2.32A5.18,5.18,0,0,1,295.52,273.28Zm.39-.64a3.12,3.12,0,0,0,2.14-.76,4.59,4.59,0,0,0,1.31-2,7.35,7.35,0,0,0,.44-2.57,9.41,9.41,0,0,0-.52-3.24,5.3,5.3,0,0,0-1.56-2.32,3.79,3.79,0,0,0-2.53-.87,3.26,3.26,0,0,0-2.12.7,4.44,4.44,0,0,0-1.36,1.91,7.37,7.37,0,0,0-.47,2.69,8.92,8.92,0,0,0,.57,3.26,5.57,5.57,0,0,0,1.6,2.32A3.79,3.79,0,0,0,295.91,272.64Z"/><path class="cls-1" d="M305.38,273v-.41l1.74-.47V261.63l-2-.25V261l3-.66h.27l.11,2h.08a7.66,7.66,0,0,1,1.94-1.52,4.44,4.44,0,0,1,2-.47,4.2,4.2,0,0,1,2.86,1,3.52,3.52,0,0,1,1.12,2.81v8l1.74.47V273h-5.08v-.41l2-.47v-7.29a3.41,3.41,0,0,0-.9-2.56,3.26,3.26,0,0,0-2.36-.87,4.91,4.91,0,0,0-1.8.4A3.92,3.92,0,0,0,308.5,263v9.17l2,.47V273Z"/><path class="cls-1" d="M186,306.41a9.93,9.93,0,0,1-2.74-.33,14.66,14.66,0,0,1-2.34-.94l-.28-4.25h.5l1.57,3.5a5.62,5.62,0,0,0,1.82.93,7.4,7.4,0,0,0,1.83.23,3.68,3.68,0,0,0,2.79-1,3.83,3.83,0,0,0,.93-2.75,3.12,3.12,0,0,0-.62-2.07,5.59,5.59,0,0,0-1.76-1.32l-2.7-1.35a13.92,13.92,0,0,1-2-1.22,4,4,0,0,1-1.22-1.42,4.39,4.39,0,0,1-.42-2,4.1,4.1,0,0,1,.73-2.28,6.11,6.11,0,0,1,1.89-1.79,4.75,4.75,0,0,1,2.49-.71,7.4,7.4,0,0,1,2.22.31,13.12,13.12,0,0,1,2.09.85l.27,4.14h-.49l-1.22-3.28a4.72,4.72,0,0,0-1.35-.91,3.9,3.9,0,0,0-1.55-.28,3.36,3.36,0,0,0-2.59,1,3.26,3.26,0,0,0-.91,2.34,3.46,3.46,0,0,0,.42,1.77,4.2,4.2,0,0,0,1.32,1.3,19.28,19.28,0,0,0,2.23,1.24,22.63,22.63,0,0,1,2.73,1.53,4.91,4.91,0,0,1,1.59,1.67,5,5,0,0,1,.51,2.38,3.82,3.82,0,0,1-.84,2.44,6,6,0,0,1-2.14,1.69A6.3,6.3,0,0,1,186,306.41Z"/><path class="cls-1" d="M196.05,312.48v-.41l1.74-.47V294.76l-2-.25v-.42l3-.66H199l.11,1.71h.14a7.77,7.77,0,0,1,2-1.29,5.26,5.26,0,0,1,2.11-.42,4.33,4.33,0,0,1,2.46.72,4.87,4.87,0,0,1,1.69,2,7.16,7.16,0,0,1,.63,3.13,7.77,7.77,0,0,1-.89,3.85,6.09,6.09,0,0,1-2.35,2.42,6.45,6.45,0,0,1-3.23.83,4.27,4.27,0,0,1-1.27-.21,8,8,0,0,1-1.29-.54v5.94l2,.47v.41Zm6.62-18.11a4.89,4.89,0,0,0-1.89.36,5.62,5.62,0,0,0-1.61,1v8.81a7.75,7.75,0,0,0,1.68.84,5.65,5.65,0,0,0,1.85.29,4,4,0,0,0,2.09-.58,4.11,4.11,0,0,0,1.53-1.89,8.79,8.79,0,0,0,.58-3.47,6.81,6.81,0,0,0-.61-3.05,4,4,0,0,0-3.62-2.33Z"/><path class="cls-1" d="M218.66,306.41a6.17,6.17,0,0,1-3.3-.83,5.33,5.33,0,0,1-2-2.24,7.23,7.23,0,0,1-.67-3.17,7.34,7.34,0,0,1,.78-3.4,6.77,6.77,0,0,1,2.08-2.43,4.78,4.78,0,0,1,2.8-.91,4.28,4.28,0,0,1,3.42,1.44,6.66,6.66,0,0,1,1.44,4l-.09.09h-9c0,.27,0,.57,0,.88a5.78,5.78,0,0,0,1.31,3.93,4.6,4.6,0,0,0,3.69,1.51,6.83,6.83,0,0,0,2.36-.39,4.2,4.2,0,0,0,1.67-1.05h.08v.36a4.64,4.64,0,0,1-1.78,1.6A5.55,5.55,0,0,1,218.66,306.41ZM218,294a3.26,3.26,0,0,0-2.43,1.12,5.73,5.73,0,0,0-1.41,3.16h7.51a6.75,6.75,0,0,0-1.13-3.15A3,3,0,0,0,218,294Zm.13-2.54,2.6-4.89H222a1.6,1.6,0,0,1-.22.79,9.58,9.58,0,0,1-.69,1l-2.6,3.15Z"/><path class="cls-1" d="M233.35,306.41a6,6,0,0,1-3.25-.83,5.31,5.31,0,0,1-2-2.24,7.09,7.09,0,0,1-.68-3.17,7.42,7.42,0,0,1,.79-3.47,6,6,0,0,1,2.18-2.4,5.84,5.84,0,0,1,3.16-.87,5.68,5.68,0,0,1,2,.31,5.93,5.93,0,0,1,1.38.66c.59.4.88.75.88,1.05a.47.47,0,0,1-.19.36l-.75.63h-.11l-.36-.5a6.55,6.55,0,0,0-1.31-1.36,2.89,2.89,0,0,0-1.81-.54,4,4,0,0,0-3.18,1.45,6.42,6.42,0,0,0-1.26,4.32,5.86,5.86,0,0,0,1.28,3.93,4.5,4.5,0,0,0,3.63,1.51,6.86,6.86,0,0,0,2.35-.39,4.1,4.1,0,0,0,1.68-1.05h.09v.36a4.85,4.85,0,0,1-1.8,1.6A5.45,5.45,0,0,1,233.35,306.41Z"/><path class="cls-1" d="M242.07,306.13v-.41l1.74-.47V294.76l-2-.53v-.41l3.12-.39h.28v11.82l2,.47v.41Zm2-17.06a1,1,0,0,1-.74-.3,1.06,1.06,0,0,1,0-1.5,1.08,1.08,0,0,1,1.49,0,1.09,1.09,0,0,1,0,1.5A1,1,0,0,1,244.11,289.07Z"/><path class="cls-1" d="M254.16,306.41a3.11,3.11,0,0,1-2.12-.76,2.68,2.68,0,0,1-.86-2.11,2.9,2.9,0,0,1,.95-2.21,7.33,7.33,0,0,1,3.17-1.44l2.7-.69v-2.29a2.41,2.41,0,0,0-.85-1.92,2.93,2.93,0,0,0-2-.73,2.36,2.36,0,0,0-1.68.48,1.79,1.79,0,0,0-.48,1.31v1.14l-.14.13h-.71a.86.86,0,0,1-.58-.13.73.73,0,0,1-.14-.53,2,2,0,0,1,.36-1.08,3.59,3.59,0,0,1,1.05-1,12.14,12.14,0,0,1,1.5-.81,3.53,3.53,0,0,1,1.45-.35,4.26,4.26,0,0,1,2.61.73,2.71,2.71,0,0,1,.95,2.28V305a1.63,1.63,0,0,0,.51.3,2,2,0,0,0,.68.11H262l0,0v0a2.41,2.41,0,0,1-.63.58,2,2,0,0,1-1.19.31,2.1,2.1,0,0,1-1.49-.5,2,2,0,0,1-.63-1.16H258a5.84,5.84,0,0,1-1.73,1.19A5,5,0,0,1,254.16,306.41Zm-1.6-3.37a2.15,2.15,0,0,0,.64,1.7,2.63,2.63,0,0,0,1.79.56,6.31,6.31,0,0,0,1.49-.2,5.67,5.67,0,0,0,1.52-.65v-4.67a21.33,21.33,0,0,0-3.46.94,3.52,3.52,0,0,0-1.58,1A2.2,2.2,0,0,0,252.56,303Z"/><path class="cls-1" d="M265,306.13v-.41l1.74-.47v-18.5l-2-.52v-.42l3.11-.39h.28v19.83l2,.47v.41Z"/><path class="cls-1" d="M274.32,306.13v-.41l1.74-.47V294.76l-2-.53v-.41l3.12-.39h.28v11.82l2,.47v.41Zm2-17.06a1.05,1.05,0,1,1,0-2.1,1,1,0,0,1,.75.3,1.09,1.09,0,0,1,0,1.5A1,1,0,0,1,276.36,289.07Z"/><path class="cls-1" d="M287.13,306.41a6.51,6.51,0,0,1-1.73-.21,9.46,9.46,0,0,1-1.56-.59v-2.87h.33l.39,1.24a2.47,2.47,0,0,0,.91,1.31,3.17,3.17,0,0,0,1.88.48,3,3,0,0,0,2.06-.65,2.37,2.37,0,0,0,.73-1.86,2.43,2.43,0,0,0-.58-1.7,6.36,6.36,0,0,0-2.15-1.25,7.55,7.55,0,0,1-2.45-1.44,3,3,0,0,1-.79-2.21,2.86,2.86,0,0,1,.49-1.61,3.63,3.63,0,0,1,1.28-1.18,3.57,3.57,0,0,1,1.71-.44,6.44,6.44,0,0,1,1.83.24,7.51,7.51,0,0,1,1.38.53V297h-.33l-.36-1.19a2.19,2.19,0,0,0-1-1.38,3.25,3.25,0,0,0-1.53-.41,2.07,2.07,0,0,0-1.64.63,2.41,2.41,0,0,0-.57,1.66,2.08,2.08,0,0,0,.61,1.6,6.12,6.12,0,0,0,2,1.13,13.92,13.92,0,0,1,2,1,3,3,0,0,1,1.12,1.15,3.63,3.63,0,0,1,.36,1.72,3.1,3.1,0,0,1-.53,1.74,3.61,3.61,0,0,1-1.49,1.28A4.89,4.89,0,0,1,287.13,306.41Z"/><path class="cls-1" d="M301.87,306.41a6.22,6.22,0,0,1-3.3-.83,5.25,5.25,0,0,1-2-2.24,7.72,7.72,0,0,1,.11-6.57,6.65,6.65,0,0,1,2.07-2.43,4.78,4.78,0,0,1,2.8-.91,4.27,4.27,0,0,1,3.42,1.44,6.66,6.66,0,0,1,1.44,4l-.08.09h-9c0,.27,0,.57,0,.88a5.78,5.78,0,0,0,1.31,3.93,4.63,4.63,0,0,0,3.69,1.51,6.83,6.83,0,0,0,2.36-.39,4.13,4.13,0,0,0,1.67-1.05h.08v.36a4.56,4.56,0,0,1-1.78,1.6A5.55,5.55,0,0,1,301.87,306.41ZM301.21,294a3.29,3.29,0,0,0-2.43,1.12,5.73,5.73,0,0,0-1.41,3.16h7.51a6.64,6.64,0,0,0-1.13-3.15A3,3,0,0,0,301.21,294Zm.14-2.54,2.59-4.89h1.3a1.5,1.5,0,0,1-.22.79,9.58,9.58,0,0,1-.69,1l-2.6,3.15Z"/><path class="cls-1" d="M316.64,306.41a6.22,6.22,0,0,1-3.3-.83,5.25,5.25,0,0,1-2-2.24,7.72,7.72,0,0,1,.11-6.57,6.65,6.65,0,0,1,2.07-2.43,4.8,4.8,0,0,1,2.8-.91,4.29,4.29,0,0,1,3.43,1.44,6.72,6.72,0,0,1,1.43,4l-.08.09h-9c0,.27,0,.57,0,.88a5.78,5.78,0,0,0,1.31,3.93,4.63,4.63,0,0,0,3.69,1.51,6.83,6.83,0,0,0,2.36-.39,4.13,4.13,0,0,0,1.67-1.05h.08v.36a4.56,4.56,0,0,1-1.78,1.6A5.55,5.55,0,0,1,316.64,306.41ZM316,294a3.29,3.29,0,0,0-2.43,1.12,5.73,5.73,0,0,0-1.41,3.16h7.51a6.64,6.64,0,0,0-1.13-3.15A3,3,0,0,0,316,294Z"/><path class="cls-1" d="M186.64,67q-4.68-4-5-11.59-.06-1.55-.06-5t.06-5.16q.28-7.45,5-11.5t12.81-4a23.84,23.84,0,0,1,9.15,1.66,14.72,14.72,0,0,1,6.39,4.82,12.7,12.7,0,0,1,2.47,7.45,1.14,1.14,0,0,1-.37.86,1.28,1.28,0,0,1-.89.35h-8.14a1.81,1.81,0,0,1-1.18-.32,2.6,2.6,0,0,1-.66-1.17,6.8,6.8,0,0,0-2.44-3.93,7.5,7.5,0,0,0-4.33-1.12q-6.48,0-6.7,7.22c0,1-.06,2.62-.06,4.76s0,3.77.06,4.88q.23,7.21,6.7,7.22a7.6,7.6,0,0,0,4.33-1.14,6.59,6.59,0,0,0,2.44-3.9,2.14,2.14,0,0,1,.63-1.18,1.94,1.94,0,0,1,1.21-.31h8.14a1.27,1.27,0,0,1,.89.34,1.16,1.16,0,0,1,.37.86,12.7,12.7,0,0,1-2.47,7.45,14.65,14.65,0,0,1-6.39,4.82,23.84,23.84,0,0,1-9.15,1.66Q191.32,70.92,186.64,67Z"/><path class="cls-1" d="M226.32,69.92a1.36,1.36,0,0,1-.43-1V31.7a1.49,1.49,0,0,1,.4-1.06,1.34,1.34,0,0,1,1-.43h15.77q7.57,0,11.84,3.44t4.28,9.69a12,12,0,0,1-1.87,6.83,12.31,12.31,0,0,1-5.13,4.35l7.74,14a1.33,1.33,0,0,1,.17.63,1.2,1.2,0,0,1-.34.83,1.12,1.12,0,0,1-.86.37h-8.09a2.41,2.41,0,0,1-2.35-1.55l-6.3-12.44h-5.51V68.92a1.34,1.34,0,0,1-.43,1,1.49,1.49,0,0,1-1.06.4h-7.86A1.36,1.36,0,0,1,226.32,69.92Zm16.72-22a5.23,5.23,0,0,0,3.75-1.23,4.51,4.51,0,0,0,1.29-3.41,4.78,4.78,0,0,0-1.29-3.5A5,5,0,0,0,243,38.47h-6.37v9.46Z"/><path class="cls-1" d="M271.88,67q-4.71-4-5-11.64c0-1.07-.06-2.72-.06-4.93s0-3.88.06-5q.23-7.57,5-11.67t12.81-4.1q8,0,12.76,4.1t5,11.67c.08,2.21.12,3.88.12,5s0,2.79-.12,4.93q-.28,7.68-5,11.64t-12.82,4C279.3,70.92,275,69.61,271.88,67Zm17.6-6.45c1.19-1.21,1.82-3.05,1.9-5.54.07-2.21.11-3.8.11-4.76s0-2.5-.11-4.64c-.08-2.49-.71-4.33-1.9-5.54a6.38,6.38,0,0,0-4.76-1.8,6.45,6.45,0,0,0-4.81,1.8c-1.19,1.21-1.82,3.05-1.89,5.54,0,1.07-.06,2.62-.06,4.64s0,3.65.06,4.76c.07,2.49.7,4.33,1.89,5.54a6.45,6.45,0,0,0,4.81,1.8A6.38,6.38,0,0,0,289.48,60.52Z"/><path class="cls-1" d="M320.31,70a1.34,1.34,0,0,1-.43-1V39.56h-10.1a1.53,1.53,0,0,1-1.06-.4,1.39,1.39,0,0,1-.43-1V31.7a1.47,1.47,0,0,1,.43-1.06,1.43,1.43,0,0,1,1.06-.43h31.14a1.42,1.42,0,0,1,1.06.43,1.43,1.43,0,0,1,.43,1.06v6.42a1.36,1.36,0,0,1-.43,1,1.52,1.52,0,0,1-1.06.4H330.83V68.92a1.37,1.37,0,0,1-.43,1,1.49,1.49,0,0,1-1.06.4h-8A1.47,1.47,0,0,1,320.31,70Z"/><path class="cls-1" d="M355.6,69.32a13.89,13.89,0,0,1-5.91-4.24,10,10,0,0,1-2.12-5.74,1.13,1.13,0,0,1,.38-.86,1.23,1.23,0,0,1,.88-.34h7.63a2.3,2.3,0,0,1,1.12.23,3.54,3.54,0,0,1,.94.8,5.77,5.77,0,0,0,2.33,2.26,8.47,8.47,0,0,0,4.21.89,9.76,9.76,0,0,0,4.76-.94,2.89,2.89,0,0,0,1.66-2.61,2.52,2.52,0,0,0-.86-2,7.51,7.51,0,0,0-2.75-1.38q-1.89-.6-5.45-1.34-6.93-1.38-10.37-4.19t-3.45-8a10.68,10.68,0,0,1,2-6.34,12.91,12.91,0,0,1,5.62-4.32,21.36,21.36,0,0,1,8.46-1.55,20.27,20.27,0,0,1,8.75,1.75,15,15,0,0,1,5.67,4.35,9.27,9.27,0,0,1,2.1,5.14,1.28,1.28,0,0,1-.35.89,1.14,1.14,0,0,1-.86.37h-8a2.23,2.23,0,0,1-1.95-1,3.52,3.52,0,0,0-1.77-2,7.08,7.08,0,0,0-3.56-.83,6.84,6.84,0,0,0-3.73.86,2.81,2.81,0,0,0-1.32,2.52,2.89,2.89,0,0,0,1.73,2.61,25.89,25.89,0,0,0,6.42,1.92,36.44,36.44,0,0,1,8.57,2.44,10.81,10.81,0,0,1,4.7,3.78,10.57,10.57,0,0,1,1.52,5.88A10.68,10.68,0,0,1,380.32,65a14,14,0,0,1-6.2,4.38,28.27,28.27,0,0,1-18.52-.08Z"/><path class="cls-1" d="M182.57,125.86a1.34,1.34,0,0,1-.43-1v-5.74a1.34,1.34,0,0,1,.43-1,1.49,1.49,0,0,1,1.06-.4h18.06a1.41,1.41,0,0,1,1,.4,1.43,1.43,0,0,1,.4,1v5.74a1.46,1.46,0,0,1-.4,1,1.36,1.36,0,0,1-1,.43H183.63A1.49,1.49,0,0,1,182.57,125.86Z"/><path class="cls-1" d="M213,138.73a1.35,1.35,0,0,1-.43-1V100.51a1.49,1.49,0,0,1,.4-1.06,1.37,1.37,0,0,1,1-.43h16.23q7.45,0,11.7,3.39t4.24,9.92q0,6.53-4.24,9.77t-11.7,3.24h-6.53v12.39a1.41,1.41,0,0,1-.41,1,1.32,1.32,0,0,1-1,.43H214A1.36,1.36,0,0,1,213,138.73Zm16.95-21.59a5.26,5.26,0,0,0,3.69-1.23,4.69,4.69,0,0,0,1.35-3.64,5.2,5.2,0,0,0-1.23-3.61,4.85,4.85,0,0,0-3.81-1.38h-6.43v9.86Z"/><path class="cls-1" d="M254.42,138.73a1.35,1.35,0,0,1-.43-1V100.51a1.49,1.49,0,0,1,.4-1.06,1.37,1.37,0,0,1,1-.43h6.48a2.11,2.11,0,0,1,2,1.09l13.53,21.39v-21a1.5,1.5,0,0,1,.41-1.06,1.36,1.36,0,0,1,1-.43h7.28a1.37,1.37,0,0,1,1,.43,1.49,1.49,0,0,1,.4,1.06v37.16a1.47,1.47,0,0,1-.4,1.06,1.34,1.34,0,0,1-1,.43h-6.48a2.09,2.09,0,0,1-1.95-1.09L264.2,117.54v20.19a1.37,1.37,0,0,1-.43,1,1.5,1.5,0,0,1-1.07.4h-7.28A1.36,1.36,0,0,1,254.42,138.73Z"/><path class="cls-1" d="M302.13,135.78q-4.62-4-4.62-11.87v-23.4a1.53,1.53,0,0,1,.4-1.06,1.38,1.38,0,0,1,1-.43h7.85a1.46,1.46,0,0,1,1.06.43,1.43,1.43,0,0,1,.43,1.06v23.28a7.52,7.52,0,0,0,1.69,5.34,6.41,6.41,0,0,0,4.85,1.78,6.31,6.31,0,0,0,4.84-1.81,7.49,7.49,0,0,0,1.7-5.31V100.51a1.43,1.43,0,0,1,.43-1.06,1.46,1.46,0,0,1,1.06-.43h7.8a1.47,1.47,0,0,1,1.49,1.49v23.4q0,7.91-4.59,11.87t-12.67,4Q306.75,139.74,302.13,135.78Z"/><path class="cls-2" d="M45.6,136.8c-1.74-1-3.42-2.16-5.06-3.36Z"/><path class="cls-2" d="M142.18,129.46a78.73,78.73,0,0,1-8.69,9.29,79.69,79.69,0,0,1-21.8,14.15,79.33,79.33,0,0,0-31.92-6.65,66.16,66.16,0,0,0,44.76-17.34,65.45,65.45,0,0,0,8.56-9.43l3.37,3.71Z"/><path class="cls-2" d="M45.6,136.8c-1.74-1-3.42-2.16-5.06-3.36Z"/><path class="cls-2" d="M159.55,226a79.35,79.35,0,0,1-13.65,44.63l-8.31-11.8a66.44,66.44,0,0,0-57.82-99.3,79.41,79.41,0,0,1-12.79-1c-.66-.1-1.33-.21-2-.35q-2.59-.48-5.15-1.13h0a76.64,76.64,0,0,1-12-4.13,79.51,79.51,0,0,1-27.92-20.36,78.82,78.82,0,0,1-6.64-8.66A79.78,79.78,0,0,1,130.8,18.45a78.61,78.61,0,0,1,9.86,9.79l-6.15,7.39-2.51,3a66.48,66.48,0,1,0-91.46,94.79c1.64,1.2,3.32,2.32,5.06,3.36h0a66.24,66.24,0,0,0,34.17,9.44,79.33,79.33,0,0,1,31.92,6.65A75.19,75.19,0,0,1,119.8,157,79.72,79.72,0,0,1,159.55,226Z"/><path class="cls-2" d="M45.6,136.8c-1.74-1-3.42-2.16-5.06-3.36Z"/><path class="cls-2" d="M13.3,135.85v170H0V114.47a85.77,85.77,0,0,0,6.65,12.4A83.34,83.34,0,0,0,13.3,135.85Z"/><path class="cls-2" d="M45.6,136.8c-1.74-1-3.42-2.16-5.06-3.36Z"/><path class="cls-2" d="M159.55,298.7l-3.83,2.69-3,2.09-4.08,2.87-15.08-21.43L128,277l-2.18-3.1L50.61,167l-.39-.57-4.75-6.74a85.74,85.74,0,0,0,10.31,3.67l.95.26a2.56,2.56,0,0,0,.34.1c.53.15,1.06.29,1.59.41l.58.14h0c2.19.53,4.4,1,6.65,1.34l68.84,97.8,8.08,11.47Z"/><path class="cls-2" d="M124.65,280.34a3.5,3.5,0,0,1-.28.27l-2.32-3.3a3.4,3.4,0,0,0,.3-.23Z"/><rect class="cls-3" x="73.13" y="93.62" width="13.3" height="39.89"/><rect class="cls-3" x="73.13" y="93.62" width="13.3" height="39.89"/><path class="cls-3" d="M142.18,129.46a78.73,78.73,0,0,1-8.69,9.29,79.69,79.69,0,0,1-21.8,14.15,79.33,79.33,0,0,0-31.92-6.65,66.16,66.16,0,0,0,44.76-17.34,65.45,65.45,0,0,0,8.56-9.43l3.37,3.71Z"/><rect class="cls-3" x="73.13" y="93.62" width="13.3" height="39.89"/><path class="cls-3" d="M45.74,168.9A66.83,66.83,0,0,0,19.94,197V173.26A80.51,80.51,0,0,1,38.08,158L41,162.15l.39.57Z"/><path class="cls-3" d="M130,288a79.77,79.77,0,0,1-110.08-9.19V255a66.48,66.48,0,0,0,102.11,22.27,3.4,3.4,0,0,0,.3-.23l2.3,3.26Z"/><rect class="cls-3" x="26.59" y="73.13" width="106.36" height="13.3"/><rect class="cls-3" x="73.13" y="93.62" width="13.3" height="39.89"/></g></g></svg>