<svg xmlns="http://www.w3.org/2000/svg" viewBox="0 0 238.9 195.14"><defs><style>.cls-1{fill:#fff;}</style></defs><title>Asset 5</title><g id="Layer_2" data-name="Layer 2"><g id="Layer_1-2" data-name="Layer 1"><path class="cls-1" d="M118.55,108.59a5.56,5.56,0,0,1-2.86-.74,5.4,5.4,0,0,1-2-2A5.58,5.58,0,0,1,113,103a6.3,6.3,0,0,1,.46-2.43,6.1,6.1,0,0,1,1.26-2,5.76,5.76,0,0,1,1.87-1.31,5.63,5.63,0,0,1,2.27-.47,6.08,6.08,0,0,1,2,.26,15.18,15.18,0,0,1,1.45.59l.09,2.67H122l-.69-2a5.77,5.77,0,0,0-1.26-.75,3.29,3.29,0,0,0-1.31-.25,4.54,4.54,0,0,0-2.48.67,4.85,4.85,0,0,0-1.68,1.8,5.08,5.08,0,0,0-.61,2.47,6.55,6.55,0,0,0,.64,3,4.9,4.9,0,0,0,1.74,2,4.41,4.41,0,0,0,2.48.71,4.21,4.21,0,0,0,1.36-.19,4.55,4.55,0,0,0,1.07-.5l.93-2.17h.35l-.16,2.57a9.28,9.28,0,0,1-1,.45,5.82,5.82,0,0,1-1.18.29A10.24,10.24,0,0,1,118.55,108.59Z"/><path class="cls-1" d="M129.44,108.59a3.91,3.91,0,0,1-2.06-.52,3.32,3.32,0,0,1-1.25-1.4,4.37,4.37,0,0,1-.43-2,4.51,4.51,0,0,1,.5-2.12,4.08,4.08,0,0,1,1.29-1.52,3,3,0,0,1,1.75-.57,2.68,2.68,0,0,1,2.14.9,4.21,4.21,0,0,1,.89,2.48l-.05,0h-5.64c0,.18,0,.36,0,.56a3.6,3.6,0,0,0,.81,2.45,2.9,2.9,0,0,0,2.31.94,4.28,4.28,0,0,0,1.47-.24,2.61,2.61,0,0,0,1-.65h.06v.22a3,3,0,0,1-1.12,1A3.56,3.56,0,0,1,129.44,108.59Zm-.41-7.73a2.06,2.06,0,0,0-1.52.7,3.68,3.68,0,0,0-.88,2h4.69a4.19,4.19,0,0,0-.7-2A1.88,1.88,0,0,0,129,100.86Z"/><path class="cls-1" d="M134.89,108.41v-.25l1.09-.3v-6.55l-1.26-.15v-.26l1.86-.42h.18l.06,1.24h.06a4.71,4.71,0,0,1,1.2-.94,2.72,2.72,0,0,1,1.28-.3,2.58,2.58,0,0,1,1.78.61,2.16,2.16,0,0,1,.7,1.75v5l1.09.3v.25h-3.17v-.25l1.22-.3v-4.55a2.12,2.12,0,0,0-.56-1.59,2,2,0,0,0-1.47-.55,3.13,3.13,0,0,0-1.13.25,2.48,2.48,0,0,0-1,.72v5.72l1.23.3v.25Z"/><path class="cls-1" d="M147.76,108.59a1.52,1.52,0,0,1-1.15-.45,1.74,1.74,0,0,1-.44-1.26v-5.64h-1.52v-.15l1.62-.44.57-1.89H147v1.89h2.28v.59H147v5.6a1,1,0,0,0,.33.81,1.38,1.38,0,0,0,.86.26,2.51,2.51,0,0,0,.69-.08,3,3,0,0,0,.59-.24h0v.07a1.62,1.62,0,0,1-.58.61A2.07,2.07,0,0,1,147.76,108.59Z"/><path class="cls-1" d="M151.86,108.41v-.25l1.08-.3v-6.55l-1.25-.15v-.26l1.86-.42h.17l.09,1.54h0c.45-.47.81-.82,1.07-1a2.24,2.24,0,0,1,.66-.41,1.72,1.72,0,0,1,.58-.09,1.33,1.33,0,0,1,.54.11,1.14,1.14,0,0,1,.25.13.19.19,0,0,1,.07.16V101a.81.81,0,0,0,0,.11l-.17.45h0l-.32-.16a1.49,1.49,0,0,0-.64-.12,2,2,0,0,0-1,.28,3.07,3.07,0,0,0-1,1v5.38l1.33.3v.25Z"/><path class="cls-1" d="M162.38,108.59a3.86,3.86,0,0,1-2.06-.52,3.28,3.28,0,0,1-1.26-1.4,4.76,4.76,0,0,1,.07-4.1,4.08,4.08,0,0,1,1.29-1.52,3,3,0,0,1,1.75-.57,2.68,2.68,0,0,1,2.14.9,4.21,4.21,0,0,1,.89,2.48l0,0h-5.64c0,.18,0,.36,0,.56a3.56,3.56,0,0,0,.82,2.45,2.87,2.87,0,0,0,2.3.94,4.28,4.28,0,0,0,1.47-.24,2.73,2.73,0,0,0,1-.65h.05v.22a3,3,0,0,1-1.12,1A3.52,3.52,0,0,1,162.38,108.59Zm-.42-7.73a2,2,0,0,0-1.51.7,3.54,3.54,0,0,0-.88,2h4.69a4.3,4.3,0,0,0-.71-2A1.88,1.88,0,0,0,162,100.86Z"/><path class="cls-1" d="M175.7,108.59a2.7,2.7,0,0,1-1.53-.45,3,3,0,0,1-1.06-1.27,4.54,4.54,0,0,1-.39-2,5,5,0,0,1,.55-2.4,3.82,3.82,0,0,1,1.47-1.51,4,4,0,0,1,2-.52,2.89,2.89,0,0,1,.79.13,5.16,5.16,0,0,1,.81.34V96.31L177.1,96v-.26l2-.24h.17v12.38l1.23.3v.25h-1.92l-.15-.88h-.09a4.65,4.65,0,0,1-1.22.78A3.42,3.42,0,0,1,175.7,108.59Zm-2.17-4a4.23,4.23,0,0,0,.38,1.9,2.48,2.48,0,0,0,2.26,1.46,3.28,3.28,0,0,0,1.14-.21,2.84,2.84,0,0,0,1.05-.67v-5.55a6.23,6.23,0,0,0-1.07-.47,3.88,3.88,0,0,0-1.14-.17,2.47,2.47,0,0,0-1.3.36,2.57,2.57,0,0,0-1,1.18A5.48,5.48,0,0,0,173.53,104.64Z"/><path class="cls-1" d="M186.64,108.59a3.86,3.86,0,0,1-2.06-.52,3.28,3.28,0,0,1-1.26-1.4,4.37,4.37,0,0,1-.43-2,4.63,4.63,0,0,1,.49-2.12,4.2,4.2,0,0,1,1.3-1.52,3,3,0,0,1,1.75-.57,2.68,2.68,0,0,1,2.14.9,4.21,4.21,0,0,1,.89,2.48l-.05,0h-5.64c0,.18,0,.36,0,.56a3.56,3.56,0,0,0,.82,2.45,2.87,2.87,0,0,0,2.3.94,4.28,4.28,0,0,0,1.47-.24,2.61,2.61,0,0,0,1-.65h.06v.22a3,3,0,0,1-1.12,1A3.55,3.55,0,0,1,186.64,108.59Zm-.42-7.73a2.06,2.06,0,0,0-1.52.7,3.6,3.6,0,0,0-.87,2h4.68a4.19,4.19,0,0,0-.7-2A1.88,1.88,0,0,0,186.22,100.86Z"/><path class="cls-1" d="M112.89,129.1v-.43l1.38-.29v-9.93l-1.38-.29v-.44h3.42a4.8,4.8,0,0,1,2.85.75,2.39,2.39,0,0,1,1,2.06,2.52,2.52,0,0,1-.66,1.76,3.88,3.88,0,0,1-1.75,1.07l3.33,5.09,1.14.22v.43h-2l-3.45-5.39h-1.5v4.65l1.29.31v.43Zm3.54-10.77h-1.12v4.77h1.22a2.53,2.53,0,0,0,1.8-.66,2.18,2.18,0,0,0,.72-1.68,2.32,2.32,0,0,0-.71-1.78A2.73,2.73,0,0,0,116.43,118.33Z"/><path class="cls-1" d="M127.53,129.28a3.91,3.91,0,0,1-2.06-.52,3.28,3.28,0,0,1-1.26-1.4,4.85,4.85,0,0,1,.07-4.1,4.27,4.27,0,0,1,1.29-1.52,3,3,0,0,1,1.75-.57,2.67,2.67,0,0,1,2.14.9,4.15,4.15,0,0,1,.9,2.48l-.05,0h-5.64c0,.18,0,.36,0,.56a3.61,3.61,0,0,0,.82,2.45,2.88,2.88,0,0,0,2.3.94,4.38,4.38,0,0,0,1.48-.24,2.61,2.61,0,0,0,1-.65h.05v.22a2.86,2.86,0,0,1-1.11,1A3.56,3.56,0,0,1,127.53,129.28Zm-.41-7.73a2,2,0,0,0-1.52.7,3.6,3.6,0,0,0-.88,2h4.69a4.08,4.08,0,0,0-.71-2A1.85,1.85,0,0,0,127.12,121.55Z"/><path class="cls-1" d="M135.12,129.28a4.44,4.44,0,0,1-1.08-.13,5.82,5.82,0,0,1-1-.37V127h.2l.24.78a1.61,1.61,0,0,0,.57.82,2,2,0,0,0,1.18.3,1.86,1.86,0,0,0,1.28-.41,1.48,1.48,0,0,0,.46-1.16,1.5,1.5,0,0,0-.36-1.06,3.88,3.88,0,0,0-1.35-.78,4.81,4.81,0,0,1-1.53-.9,1.87,1.87,0,0,1-.49-1.38,1.81,1.81,0,0,1,.3-1,2.28,2.28,0,0,1,.81-.73,2.11,2.11,0,0,1,1.07-.28,3.91,3.91,0,0,1,1.13.15,4.79,4.79,0,0,1,.87.34v1.75h-.21l-.23-.74a1.34,1.34,0,0,0-.64-.86,2,2,0,0,0-1-.26,1.3,1.3,0,0,0-1,.4,1.51,1.51,0,0,0-.35,1,1.32,1.32,0,0,0,.38,1,3.94,3.94,0,0,0,1.23.71,10.17,10.17,0,0,1,1.23.6,2,2,0,0,1,.7.72,2.28,2.28,0,0,1,.22,1.08,1.91,1.91,0,0,1-.33,1.08,2.28,2.28,0,0,1-.93.8A3,3,0,0,1,135.12,129.28Z"/><path class="cls-1" d="M142.86,129.28a4.44,4.44,0,0,1-1.08-.13,6.17,6.17,0,0,1-1-.37V127h.2l.25.78a1.54,1.54,0,0,0,.56.82,2,2,0,0,0,1.18.3,1.86,1.86,0,0,0,1.28-.41,1.44,1.44,0,0,0,.46-1.16,1.5,1.5,0,0,0-.36-1.06,3.78,3.78,0,0,0-1.35-.78,4.63,4.63,0,0,1-1.52-.9,1.84,1.84,0,0,1-.5-1.38,1.74,1.74,0,0,1,.31-1,2.17,2.17,0,0,1,.8-.73,2.11,2.11,0,0,1,1.07-.28,3.91,3.91,0,0,1,1.13.15,4.51,4.51,0,0,1,.87.34v1.75H145l-.22-.74a1.35,1.35,0,0,0-.65-.86,2,2,0,0,0-1-.26,1.26,1.26,0,0,0-1,.4,1.47,1.47,0,0,0-.36,1,1.32,1.32,0,0,0,.38,1,3.94,3.94,0,0,0,1.23.71,10.17,10.17,0,0,1,1.23.6,1.92,1.92,0,0,1,.7.72,2.28,2.28,0,0,1,.22,1.08,1.91,1.91,0,0,1-.33,1.08,2.16,2.16,0,0,1-.93.8A3,3,0,0,1,142.86,129.28Z"/><path class="cls-1" d="M151.86,129.28a3.22,3.22,0,0,1-1.85-.54,3.67,3.67,0,0,1-1.24-1.45,4.63,4.63,0,0,1-.44-2.07,4.55,4.55,0,0,1,.44-2.06,3.67,3.67,0,0,1,1.24-1.45,3.22,3.22,0,0,1,1.85-.54,3.17,3.17,0,0,1,1.84.54,3.62,3.62,0,0,1,1.25,1.45,4.69,4.69,0,0,1,.44,2.06,4.76,4.76,0,0,1-.44,2.07,3.62,3.62,0,0,1-1.25,1.45A3.17,3.17,0,0,1,151.86,129.28Zm.24-.4a2,2,0,0,0,1.34-.47,3,3,0,0,0,.82-1.24,4.72,4.72,0,0,0,.27-1.6,5.92,5.92,0,0,0-.33-2,3.23,3.23,0,0,0-1-1.44,2.34,2.34,0,0,0-1.58-.55,2.11,2.11,0,0,0-1.33.44,2.85,2.85,0,0,0-.84,1.19,4.49,4.49,0,0,0-.29,1.68,5.53,5.53,0,0,0,.35,2,3.52,3.52,0,0,0,1,1.45A2.4,2.4,0,0,0,152.1,128.88Z"/><path class="cls-1" d="M161.12,129.28a2.47,2.47,0,0,1-1.73-.61,2.27,2.27,0,0,1-.67-1.76v-5l-1.22-.3v-.25h2.08v5.1a2.12,2.12,0,0,0,.55,1.59,1.87,1.87,0,0,0,1.4.55,2.85,2.85,0,0,0,1.08-.25,2.42,2.42,0,0,0,.94-.72V121.9l-1.4-.3v-.25h2.26v7.2l1.23.3v.25h-2.09v-1h-.05a5.21,5.21,0,0,1-1.18.92A2.36,2.36,0,0,1,161.12,129.28Z"/><path class="cls-1" d="M168,129.1v-.25l1.09-.3V122l-1.26-.15v-.26l1.86-.42h.18l.08,1.54h0a13.71,13.71,0,0,1,1.06-1,2.37,2.37,0,0,1,.66-.41,1.78,1.78,0,0,1,.59-.09,1.32,1.32,0,0,1,.53.11.8.8,0,0,1,.25.13.19.19,0,0,1,.08.16.25.25,0,0,1,0,.08,1,1,0,0,1,0,.11l-.17.45h0l-.33-.16a1.43,1.43,0,0,0-.64-.12,2,2,0,0,0-1,.28,3.17,3.17,0,0,0-1,1v5.38l1.33.3v.25Z"/><path class="cls-1" d="M178.43,129.28a3.78,3.78,0,0,1-2-.52,3.36,3.36,0,0,1-1.24-1.4,4.5,4.5,0,0,1-.42-2,4.61,4.61,0,0,1,.49-2.16,3.73,3.73,0,0,1,1.36-1.5,3.6,3.6,0,0,1,2-.55,3.67,3.67,0,0,1,2.08.61c.37.25.55.47.55.65a.31.31,0,0,1-.12.23l-.46.39h-.07l-.22-.31a4.44,4.44,0,0,0-.82-.85,1.79,1.79,0,0,0-1.13-.34,2.49,2.49,0,0,0-2,.91,4,4,0,0,0-.79,2.7,3.65,3.65,0,0,0,.8,2.45,2.82,2.82,0,0,0,2.27.94,4.36,4.36,0,0,0,1.47-.24,2.73,2.73,0,0,0,1.05-.65h.05v.22a3.12,3.12,0,0,1-1.12,1A3.52,3.52,0,0,1,178.43,129.28Z"/><path class="cls-1" d="M187.38,129.28a3.86,3.86,0,0,1-2.06-.52,3.28,3.28,0,0,1-1.26-1.4,4.76,4.76,0,0,1,.07-4.1,4.17,4.17,0,0,1,1.29-1.52,3,3,0,0,1,1.75-.57,2.68,2.68,0,0,1,2.14.9,4.21,4.21,0,0,1,.89,2.48l0,0h-5.64c0,.18,0,.36,0,.56a3.56,3.56,0,0,0,.82,2.45,2.87,2.87,0,0,0,2.3.94,4.28,4.28,0,0,0,1.47-.24,2.73,2.73,0,0,0,1-.65h.05v.22a3,3,0,0,1-1.12,1A3.52,3.52,0,0,1,187.38,129.28Zm-.42-7.73a2,2,0,0,0-1.51.7,3.54,3.54,0,0,0-.88,2h4.69a4.3,4.3,0,0,0-.71-2A1.88,1.88,0,0,0,187,121.55Z"/><path class="cls-1" d="M195,129.28a4.44,4.44,0,0,1-1.08-.13,6.17,6.17,0,0,1-1-.37V127h.21l.24.78a1.5,1.5,0,0,0,.57.82,1.94,1.94,0,0,0,1.17.3,1.9,1.9,0,0,0,1.29-.41,1.47,1.47,0,0,0,.45-1.16,1.5,1.5,0,0,0-.36-1.06,3.81,3.81,0,0,0-1.34-.78,4.81,4.81,0,0,1-1.53-.9,1.83,1.83,0,0,1-.49-1.38,1.81,1.81,0,0,1,.3-1,2.25,2.25,0,0,1,.8-.73,2.11,2.11,0,0,1,1.07-.28,4,4,0,0,1,1.14.15,4.67,4.67,0,0,1,.86.34v1.75h-.21l-.22-.74a1.35,1.35,0,0,0-.65-.86,2,2,0,0,0-1-.26,1.3,1.3,0,0,0-1,.4,1.46,1.46,0,0,0-.35,1,1.28,1.28,0,0,0,.38,1,4,4,0,0,0,1.22.71,8.87,8.87,0,0,1,1.23.6,1.92,1.92,0,0,1,.7.72,2.28,2.28,0,0,1,.23,1.08,1.91,1.91,0,0,1-.33,1.08,2.28,2.28,0,0,1-.93.8A3.06,3.06,0,0,1,195,129.28Z"/><path class="cls-1" d="M118.38,150a5.16,5.16,0,0,1-2.77-.76,5.38,5.38,0,0,1-1.92-2.09,6.76,6.76,0,0,1,0-6,5.38,5.38,0,0,1,1.92-2.09,5.45,5.45,0,0,1,5.55,0,5.38,5.38,0,0,1,1.92,2.09,6.76,6.76,0,0,1,0,6,5.38,5.38,0,0,1-1.92,2.09A5.2,5.2,0,0,1,118.38,150Zm.36-.52a3.7,3.7,0,0,0,2.08-.6,3.85,3.85,0,0,0,1.4-1.67,6,6,0,0,0,.5-2.54,7.34,7.34,0,0,0-.62-3.11,5.06,5.06,0,0,0-1.67-2.06,4.06,4.06,0,0,0-2.35-.73,3.77,3.77,0,0,0-2.08.59,3.89,3.89,0,0,0-1.43,1.66,5.78,5.78,0,0,0-.52,2.55,7.23,7.23,0,0,0,.63,3.11,5.07,5.07,0,0,0,1.69,2.07A4.1,4.1,0,0,0,118.74,149.45Z"/><path class="cls-1" d="M129.86,150a2.43,2.43,0,0,1-1.72-.61,2.24,2.24,0,0,1-.68-1.76v-5l-1.22-.3V142h2.08v5.11a2.16,2.16,0,0,0,.55,1.59,1.87,1.87,0,0,0,1.4.55,2.81,2.81,0,0,0,1.08-.25,2.35,2.35,0,0,0,.94-.72v-5.72l-1.4-.3V142h2.26v7.21l1.23.3v.25h-2.09v-1h0a5.42,5.42,0,0,1-1.17.92A2.4,2.4,0,0,1,129.86,150Z"/><path class="cls-1" d="M139.32,149.88l-2.81-7.26-1.08-.33V142h3.31v.26l-1.33.3v0l2.23,6h.05l2.19-6v-.06l-1.4-.31V142h3.05v.26l-1.1.33-2.93,7.26Z"/><path class="cls-1" d="M148.48,150a3.89,3.89,0,0,1-2.06-.52,3.28,3.28,0,0,1-1.26-1.4,4.85,4.85,0,0,1,.07-4.1,4.27,4.27,0,0,1,1.29-1.52,3,3,0,0,1,1.75-.57,2.68,2.68,0,0,1,2.14.9,4.15,4.15,0,0,1,.9,2.48l-.05,0h-5.64c0,.18,0,.36,0,.56a3.56,3.56,0,0,0,.82,2.45,2.88,2.88,0,0,0,2.3.94,4.38,4.38,0,0,0,1.48-.24,2.61,2.61,0,0,0,1-.65h0v.22a2.86,2.86,0,0,1-1.11,1A3.59,3.59,0,0,1,148.48,150Zm-.41-7.73a2,2,0,0,0-1.52.7,3.6,3.6,0,0,0-.88,2h4.69a4.19,4.19,0,0,0-.71-2A1.85,1.85,0,0,0,148.07,142.24Z"/><path class="cls-1" d="M154,149.79v-.25l1.08-.3v-6.55l-1.26-.15v-.26l1.87-.42h.17l.09,1.54h0a13.48,13.48,0,0,1,1.07-1,2.22,2.22,0,0,1,.65-.41,1.83,1.83,0,0,1,.59-.09,1.37,1.37,0,0,1,.54.11,1.14,1.14,0,0,1,.25.13.19.19,0,0,1,.07.16.25.25,0,0,1,0,.08.65.65,0,0,1,0,.11l-.17.45h0l-.33-.16a1.41,1.41,0,0,0-.63-.12,2,2,0,0,0-1,.28,3.07,3.07,0,0,0-1,1v5.38l1.32.3v.25Z"/><path class="cls-1" d="M163.32,150a1.51,1.51,0,0,1-1.14-.45,1.74,1.74,0,0,1-.44-1.26v-5.64h-1.52v-.15l1.62-.44.57-1.89h.19V142h2.28v.59H162.6v5.6a1,1,0,0,0,.33.81,1.36,1.36,0,0,0,.86.26,2.51,2.51,0,0,0,.69-.08,3,3,0,0,0,.59-.24h0v.07a1.62,1.62,0,0,1-.58.61A2.08,2.08,0,0,1,163.32,150Z"/><path class="cls-1" d="M171,150a3.91,3.91,0,0,1-2.06-.52,3.34,3.34,0,0,1-1.26-1.4,4.5,4.5,0,0,1-.42-2,4.63,4.63,0,0,1,.49-2.12,4.2,4.2,0,0,1,1.3-1.52,2.93,2.93,0,0,1,1.75-.57,2.66,2.66,0,0,1,2.13.9,4.15,4.15,0,0,1,.9,2.48l0,0H168.1c0,.18,0,.36,0,.56a3.61,3.61,0,0,0,.82,2.45,2.89,2.89,0,0,0,2.3.94,4.33,4.33,0,0,0,1.48-.24,2.61,2.61,0,0,0,1-.65h.05v.22a2.86,2.86,0,0,1-1.11,1A3.56,3.56,0,0,1,171,150Zm-.41-7.73a2.06,2.06,0,0,0-1.52.7,3.6,3.6,0,0,0-.88,2h4.69a4.08,4.08,0,0,0-.71-2A1.85,1.85,0,0,0,170.55,142.24Z"/><path class="cls-1" d="M178.55,150a4.44,4.44,0,0,1-1.08-.13,5.82,5.82,0,0,1-1-.37v-1.8h.2l.25.78a1.54,1.54,0,0,0,.56.82,2,2,0,0,0,1.18.3,1.86,1.86,0,0,0,1.28-.41,1.44,1.44,0,0,0,.46-1.16,1.5,1.5,0,0,0-.36-1.06,3.88,3.88,0,0,0-1.35-.78,4.63,4.63,0,0,1-1.52-.9,1.84,1.84,0,0,1-.5-1.38,1.74,1.74,0,0,1,.31-1,2.17,2.17,0,0,1,.8-.73,2.11,2.11,0,0,1,1.07-.28A3.91,3.91,0,0,1,180,142a4.51,4.51,0,0,1,.87.34v1.75h-.21l-.22-.74a1.35,1.35,0,0,0-.65-.86,2,2,0,0,0-1-.26,1.26,1.26,0,0,0-1,.4,1.47,1.47,0,0,0-.36,1,1.32,1.32,0,0,0,.38,1,3.94,3.94,0,0,0,1.23.71,10.17,10.17,0,0,1,1.23.6,2,2,0,0,1,.7.72,2.28,2.28,0,0,1,.22,1.08,1.91,1.91,0,0,1-.33,1.08,2.16,2.16,0,0,1-.93.8A3,3,0,0,1,178.55,150Z"/><path class="cls-1" d="M192,150a2.7,2.7,0,0,1-1.53-.45,3,3,0,0,1-1.06-1.27,4.54,4.54,0,0,1-.39-2,4.84,4.84,0,0,1,.55-2.4,3.82,3.82,0,0,1,1.47-1.51,4,4,0,0,1,2-.52,2.9,2.9,0,0,1,.8.13,5.59,5.59,0,0,1,.81.34v-4.64l-1.26-.33v-.26l1.95-.24h.17v12.38l1.22.3v.25h-1.91l-.16-.88h-.08a4.65,4.65,0,0,1-1.22.78A3.42,3.42,0,0,1,192,150ZM189.86,146a4.23,4.23,0,0,0,.38,1.9,2.48,2.48,0,0,0,2.26,1.46,3.18,3.18,0,0,0,1.13-.21,2.88,2.88,0,0,0,1.06-.67V143a6.59,6.59,0,0,0-1.07-.47,3.88,3.88,0,0,0-1.14-.17,2.45,2.45,0,0,0-1.3.36,2.51,2.51,0,0,0-1,1.18A5.48,5.48,0,0,0,189.86,146Z"/><path class="cls-1" d="M202.2,150a3.91,3.91,0,0,1-2.06-.52,3.32,3.32,0,0,1-1.25-1.4,4.37,4.37,0,0,1-.43-2A4.63,4.63,0,0,1,199,144a4.2,4.2,0,0,1,1.3-1.52,3,3,0,0,1,1.75-.57,2.68,2.68,0,0,1,2.14.9,4.21,4.21,0,0,1,.89,2.48l-.05,0h-5.64c0,.18,0,.36,0,.56a3.61,3.61,0,0,0,.82,2.45,2.9,2.9,0,0,0,2.31.94,4.28,4.28,0,0,0,1.47-.24,2.61,2.61,0,0,0,1-.65h0v.22a2.86,2.86,0,0,1-1.11,1A3.56,3.56,0,0,1,202.2,150Zm-.41-7.73a2.06,2.06,0,0,0-1.52.7,3.6,3.6,0,0,0-.88,2h4.69a4.19,4.19,0,0,0-.7-2A1.88,1.88,0,0,0,201.79,142.24Z"/><path class="cls-1" d="M115.26,170.48v-.43l1.72-.29v-10h-3.36l-.73,2.53h-.34V159.1h9.9v3.14h-.35l-.72-2.53H118v10l1.73.29v.43Z"/><path class="cls-1" d="M124.36,170.48v-.25l1.09-.3v-6.55l-1.26-.15V163l1.86-.42h.17l.09,1.54h0c.45-.47.81-.82,1.07-1a2.24,2.24,0,0,1,.66-.41,1.72,1.72,0,0,1,.58-.09,1.33,1.33,0,0,1,.54.11.94.94,0,0,1,.25.13.19.19,0,0,1,.07.16V163a.81.81,0,0,0,0,.11l-.17.45h0l-.33-.16a1.41,1.41,0,0,0-.63-.12,2,2,0,0,0-1,.28,3.07,3.07,0,0,0-1,1v5.38l1.32.3v.25Z"/><path class="cls-1" d="M133,170.66a1.88,1.88,0,0,1-1.32-.48,1.65,1.65,0,0,1-.54-1.32,1.8,1.8,0,0,1,.6-1.38,4.59,4.59,0,0,1,2-.89l1.69-.43v-1.43a1.48,1.48,0,0,0-.54-1.2,1.78,1.78,0,0,0-1.22-.46,1.45,1.45,0,0,0-1,.3,1.12,1.12,0,0,0-.3.82v.71l-.09.08h-.45a.53.53,0,0,1-.36-.08.47.47,0,0,1-.09-.33,1.23,1.23,0,0,1,.23-.67,2,2,0,0,1,.65-.62,7.24,7.24,0,0,1,.94-.51,2.13,2.13,0,0,1,.91-.22,2.65,2.65,0,0,1,1.63.46,1.69,1.69,0,0,1,.59,1.42v5.36a.94.94,0,0,0,.32.19,1.09,1.09,0,0,0,.42.07h.9l0,0v0a1.63,1.63,0,0,1-.4.37,1.54,1.54,0,0,1-1.67-.12,1.3,1.3,0,0,1-.4-.73h0a3.63,3.63,0,0,1-1.08.74A3.09,3.09,0,0,1,133,170.66Zm-1-2.11a1.32,1.32,0,0,0,.4,1.06,1.6,1.6,0,0,0,1.12.36,4,4,0,0,0,.93-.13,3.46,3.46,0,0,0,1-.41v-2.91a13.1,13.1,0,0,0-2.16.58,2.31,2.31,0,0,0-1,.64A1.39,1.39,0,0,0,132,168.55Z"/><path class="cls-1" d="M142.81,170.66a2.7,2.7,0,0,1-1.54-.45,3,3,0,0,1-1.06-1.27,4.51,4.51,0,0,1-.39-2,4.84,4.84,0,0,1,.56-2.4,3.73,3.73,0,0,1,1.46-1.51,4.08,4.08,0,0,1,2-.52,2.83,2.83,0,0,1,.79.13,4.79,4.79,0,0,1,.81.34v-4.64l-1.26-.33v-.26l2-.24h.17v12.38l1.23.3v.25h-1.92l-.15-.88h-.09a4.61,4.61,0,0,1-1.21.78A3.46,3.46,0,0,1,142.81,170.66Zm-2.17-3.95a4.23,4.23,0,0,0,.37,1.9,2.65,2.65,0,0,0,1,1.11,2.52,2.52,0,0,0,1.26.35,3.28,3.28,0,0,0,1.14-.21,2.84,2.84,0,0,0,1.05-.67v-5.55a5.91,5.91,0,0,0-1.07-.47,3.77,3.77,0,0,0-1.13-.17,2.48,2.48,0,0,0-1.31.36,2.55,2.55,0,0,0-.95,1.18A5.48,5.48,0,0,0,140.64,166.71Z"/><path class="cls-1" d="M153.07,170.66a2.46,2.46,0,0,1-1.73-.61,2.23,2.23,0,0,1-.67-1.76v-5l-1.22-.3v-.25h2.08v5.1a2.16,2.16,0,0,0,.54,1.59,1.89,1.89,0,0,0,1.41.55,2.89,2.89,0,0,0,1.08-.25,2.42,2.42,0,0,0,.94-.72v-5.72l-1.4-.3v-.25h2.26v7.2l1.22.3v.25H155.5v-1h-.05a5.21,5.21,0,0,1-1.18.92A2.39,2.39,0,0,1,153.07,170.66Z"/><path class="cls-1" d="M163.39,170.66a3.74,3.74,0,0,1-2-.52,3.3,3.3,0,0,1-1.24-1.4,4.37,4.37,0,0,1-.43-2,4.62,4.62,0,0,1,.5-2.16,3.66,3.66,0,0,1,1.36-1.5,3.59,3.59,0,0,1,2-.55,3.87,3.87,0,0,1,1.23.19,4.06,4.06,0,0,1,.86.42c.37.25.55.47.55.65a.31.31,0,0,1-.12.23l-.47.39h-.07l-.22-.31a4.16,4.16,0,0,0-.82-.85,1.77,1.77,0,0,0-1.13-.34,2.5,2.5,0,0,0-2,.91,4,4,0,0,0-.78,2.7,3.6,3.6,0,0,0,.8,2.45,2.8,2.8,0,0,0,2.27.94,4.34,4.34,0,0,0,1.46-.24,2.58,2.58,0,0,0,1.05-.65h0v.22a3,3,0,0,1-1.12,1A3.49,3.49,0,0,1,163.39,170.66Z"/><path class="cls-1" d="M171.15,170.66a1.51,1.51,0,0,1-1.14-.45,1.7,1.7,0,0,1-.44-1.26v-5.64h-1.52v-.15l1.62-.43.57-1.9h.19v1.9h2.27v.58h-2.27v5.6a1,1,0,0,0,.33.81,1.34,1.34,0,0,0,.86.26,2.51,2.51,0,0,0,.69-.08,3,3,0,0,0,.58-.24h0v.07a1.71,1.71,0,0,1-.58.61A2.11,2.11,0,0,1,171.15,170.66Z"/><path class="cls-1" d="M175.29,170.48v-.25l1.09-.3v-6.55l-1.26-.33v-.26l1.95-.24h.17v7.38l1.22.3v.25Zm1.28-10.65a.65.65,0,0,1-.66-.66.6.6,0,0,1,.19-.46.63.63,0,0,1,.47-.19.62.62,0,0,1,.46.19.6.6,0,0,1,.19.46.63.63,0,0,1-.19.47A.62.62,0,0,1,176.57,159.83Z"/><path class="cls-1" d="M184.55,170.66a3.22,3.22,0,0,1-1.85-.54,3.67,3.67,0,0,1-1.24-1.45,4.63,4.63,0,0,1-.45-2.07,4.56,4.56,0,0,1,.45-2.06,3.67,3.67,0,0,1,1.24-1.45,3.22,3.22,0,0,1,1.85-.54,3.17,3.17,0,0,1,1.84.54,3.52,3.52,0,0,1,1.24,1.45,4.56,4.56,0,0,1,.45,2.06,4.63,4.63,0,0,1-.45,2.07,3.52,3.52,0,0,1-1.24,1.45A3.17,3.17,0,0,1,184.55,170.66Zm.24-.4a2,2,0,0,0,1.34-.47,3,3,0,0,0,.82-1.24,4.72,4.72,0,0,0,.27-1.6,5.92,5.92,0,0,0-.33-2,3.31,3.31,0,0,0-1-1.44,2.34,2.34,0,0,0-1.58-.55,2.09,2.09,0,0,0-1.33.44,2.77,2.77,0,0,0-.84,1.19,4.49,4.49,0,0,0-.29,1.68,5.53,5.53,0,0,0,.35,2,3.52,3.52,0,0,0,1,1.45A2.4,2.4,0,0,0,184.79,170.26Z"/><path class="cls-1" d="M190.7,170.48v-.25l1.09-.3v-6.55l-1.26-.15V163l1.86-.42h.18l.07,1.24h.05a4.71,4.71,0,0,1,1.2-.94,2.72,2.72,0,0,1,1.28-.3,2.58,2.58,0,0,1,1.78.61,2.16,2.16,0,0,1,.7,1.75v5l1.09.3v.25h-3.17v-.25l1.22-.3v-4.55a2.12,2.12,0,0,0-.56-1.59,2,2,0,0,0-1.47-.55,3.13,3.13,0,0,0-1.13.25,2.55,2.55,0,0,0-1,.72v5.72l1.23.3v.25Z"/><path class="cls-1" d="M116.15,191.35a6,6,0,0,1-1.7-.21,8.36,8.36,0,0,1-1.47-.59l-.17-2.65h.31l1,2.19a3.62,3.62,0,0,0,1.14.58,4.81,4.81,0,0,0,1.14.14,2.29,2.29,0,0,0,1.74-.61,2.39,2.39,0,0,0,.58-1.72,2,2,0,0,0-.38-1.29,3.43,3.43,0,0,0-1.11-.83l-1.68-.84a8.86,8.86,0,0,1-1.27-.76,2.57,2.57,0,0,1-.76-.89,2.69,2.69,0,0,1-.26-1.27,2.5,2.5,0,0,1,.46-1.42,3.62,3.62,0,0,1,1.18-1.12,3,3,0,0,1,1.55-.44,5.08,5.08,0,0,1,1.39.19,8.18,8.18,0,0,1,1.3.54l.17,2.58H119l-.76-2.05a3.29,3.29,0,0,0-.84-.57,2.63,2.63,0,0,0-1-.17,2.13,2.13,0,0,0-1.62.6,2.26,2.26,0,0,0-.3,2.57,2.54,2.54,0,0,0,.82.81,14.48,14.48,0,0,0,1.39.78,14,14,0,0,1,1.71.95,3.06,3.06,0,0,1,1,1.05,3,3,0,0,1,.32,1.48,2.4,2.4,0,0,1-.52,1.53,3.78,3.78,0,0,1-1.34,1.05A3.89,3.89,0,0,1,116.15,191.35Z"/><path class="cls-1" d="M122.43,195.14v-.26l1.08-.29V184.07l-1.25-.15v-.26l1.86-.42h.17l.07,1.07h.09a4.76,4.76,0,0,1,1.26-.81,3.41,3.41,0,0,1,1.32-.26,2.7,2.7,0,0,1,1.54.45,3.11,3.11,0,0,1,1.06,1.27,4.51,4.51,0,0,1,.38,2,4.84,4.84,0,0,1-.55,2.4,3.86,3.86,0,0,1-1.46,1.51,4.08,4.08,0,0,1-2,.52,2.83,2.83,0,0,1-.79-.13,4.79,4.79,0,0,1-.81-.34v3.71l1.22.29v.26Zm4.14-11.31a3.11,3.11,0,0,0-1.19.22,3.69,3.69,0,0,0-1,.64v5.5a4.71,4.71,0,0,0,1.05.53,3.47,3.47,0,0,0,1.15.18,2.45,2.45,0,0,0,1.3-.36,2.54,2.54,0,0,0,1-1.19,5.4,5.4,0,0,0,.36-2.16,4.1,4.1,0,0,0-.38-1.9,2.57,2.57,0,0,0-1-1.11A2.52,2.52,0,0,0,126.57,183.83Z"/><path class="cls-1" d="M136.55,191.35a3.89,3.89,0,0,1-2.06-.52,3.28,3.28,0,0,1-1.26-1.4,4.85,4.85,0,0,1,.07-4.1,4.27,4.27,0,0,1,1.29-1.52,3,3,0,0,1,1.75-.57,2.68,2.68,0,0,1,2.14.9,4.15,4.15,0,0,1,.9,2.48l-.06,0h-5.63c0,.18,0,.36,0,.56a3.56,3.56,0,0,0,.82,2.45,2.87,2.87,0,0,0,2.3.94,4.28,4.28,0,0,0,1.47-.24,2.65,2.65,0,0,0,1.05-.65h.05V190a2.86,2.86,0,0,1-1.11,1A3.59,3.59,0,0,1,136.55,191.35Zm-.42-7.73a2,2,0,0,0-1.51.7,3.6,3.6,0,0,0-.88,2h4.69a4.19,4.19,0,0,0-.71-2A1.86,1.86,0,0,0,136.13,183.62Zm.09-1.58,1.62-3.06h.81a.9.9,0,0,1-.14.5,4.86,4.86,0,0,1-.43.59l-1.62,2Z"/><path class="cls-1" d="M145.72,191.35a3.8,3.8,0,0,1-2-.52,3.36,3.36,0,0,1-1.24-1.4,4.5,4.5,0,0,1-.42-2,4.61,4.61,0,0,1,.49-2.16,3.68,3.68,0,0,1,1.37-1.5,3.56,3.56,0,0,1,2-.55,3.76,3.76,0,0,1,1.22.19,3.62,3.62,0,0,1,.86.42c.37.25.56.47.56.65a.31.31,0,0,1-.12.23l-.47.39h-.07l-.22-.31a4.44,4.44,0,0,0-.82-.85,1.77,1.77,0,0,0-1.13-.34,2.49,2.49,0,0,0-2,.91,4,4,0,0,0-.79,2.7,3.65,3.65,0,0,0,.8,2.45,2.82,2.82,0,0,0,2.27.94,4.36,4.36,0,0,0,1.47-.24,2.58,2.58,0,0,0,1-.65h.05V190a3,3,0,0,1-1.12,1A3.52,3.52,0,0,1,145.72,191.35Z"/><path class="cls-1" d="M151.17,191.17v-.25l1.08-.3v-6.55l-1.25-.33v-.26l1.94-.24h.18v7.38l1.22.3v.25Zm1.28-10.65a.65.65,0,0,1-.66-.66.6.6,0,0,1,.19-.46.63.63,0,0,1,.47-.19.62.62,0,0,1,.46.19.6.6,0,0,1,.19.46.63.63,0,0,1-.19.47A.62.62,0,0,1,152.45,180.52Z"/><path class="cls-1" d="M158.72,191.35a1.92,1.92,0,0,1-1.33-.48,1.67,1.67,0,0,1-.53-1.32,1.83,1.83,0,0,1,.59-1.38,4.7,4.7,0,0,1,2-.89l1.69-.43v-1.44a1.48,1.48,0,0,0-.54-1.19,1.78,1.78,0,0,0-1.22-.46,1.44,1.44,0,0,0-1,.3,1.09,1.09,0,0,0-.31.82v.71l-.08.08h-.45a.53.53,0,0,1-.36-.08.47.47,0,0,1-.09-.33,1.23,1.23,0,0,1,.23-.67,1.94,1.94,0,0,1,.65-.62,6.64,6.64,0,0,1,.94-.51,2.13,2.13,0,0,1,.91-.22,2.62,2.62,0,0,1,1.62.46,1.67,1.67,0,0,1,.6,1.42v5.36a.94.94,0,0,0,.32.19,1.09,1.09,0,0,0,.42.07h.9v0a1.56,1.56,0,0,1-.39.37,1.35,1.35,0,0,1-.74.19,1.3,1.3,0,0,1-.93-.31,1.24,1.24,0,0,1-.4-.73h0a3.46,3.46,0,0,1-1.07.74A3.09,3.09,0,0,1,158.72,191.35Zm-1-2.11a1.32,1.32,0,0,0,.4,1.06,1.6,1.6,0,0,0,1.12.36,4,4,0,0,0,.93-.13,3.46,3.46,0,0,0,1-.41v-2.91a13.56,13.56,0,0,0-2.17.58,2.33,2.33,0,0,0-1,.64A1.32,1.32,0,0,0,157.72,189.24Z"/><path class="cls-1" d="M165.51,191.17v-.25l1.09-.3V179.07l-1.26-.33v-.26l1.95-.24h.17v12.38l1.23.3v.25Z"/><path class="cls-1" d="M171.31,191.17v-.25l1.08-.3v-6.55l-1.26-.33v-.26l2-.24h.18v7.38l1.22.3v.25Zm1.27-10.65a.6.6,0,0,1-.46-.19.63.63,0,0,1-.19-.47.65.65,0,0,1,.65-.65.63.63,0,0,1,.47.19.64.64,0,0,1,.19.46.67.67,0,0,1-.19.47A.63.63,0,0,1,172.58,180.52Z"/><path class="cls-1" d="M179.31,191.35a4.38,4.38,0,0,1-1.08-.13,5.82,5.82,0,0,1-1-.37v-1.8h.2l.24.78a1.61,1.61,0,0,0,.57.82,2,2,0,0,0,1.17.3,1.88,1.88,0,0,0,1.29-.41,1.48,1.48,0,0,0,.46-1.16,1.46,1.46,0,0,0-.37-1.06,3.81,3.81,0,0,0-1.34-.78,4.81,4.81,0,0,1-1.53-.9,1.87,1.87,0,0,1-.49-1.38,1.81,1.81,0,0,1,.3-1,2.2,2.2,0,0,1,.81-.73,2.1,2.1,0,0,1,1.06-.28,3.94,3.94,0,0,1,1.14.15,4.4,4.4,0,0,1,.86.34v1.75h-.2l-.23-.74a1.34,1.34,0,0,0-.64-.86,2,2,0,0,0-1-.26,1.3,1.3,0,0,0-1,.4,1.51,1.51,0,0,0-.35,1,1.32,1.32,0,0,0,.38,1,4,4,0,0,0,1.22.71,9.69,9.69,0,0,1,1.24.6,2,2,0,0,1,.7.72,2.41,2.41,0,0,1,.22,1.08,1.91,1.91,0,0,1-.33,1.08,2.28,2.28,0,0,1-.93.8A3,3,0,0,1,179.31,191.35Z"/><path class="cls-1" d="M188.51,191.35a3.91,3.91,0,0,1-2.06-.52,3.41,3.41,0,0,1-1.26-1.4,4.5,4.5,0,0,1-.42-2,4.63,4.63,0,0,1,.49-2.12,4.2,4.2,0,0,1,1.3-1.52,2.93,2.93,0,0,1,1.75-.57,2.66,2.66,0,0,1,2.13.9,4.15,4.15,0,0,1,.9,2.48l-.05,0h-5.64c0,.18,0,.36,0,.56a3.61,3.61,0,0,0,.82,2.45,2.9,2.9,0,0,0,2.31.94,4.28,4.28,0,0,0,1.47-.24,2.61,2.61,0,0,0,1-.65h0V190a2.86,2.86,0,0,1-1.11,1A3.56,3.56,0,0,1,188.51,191.35Zm-.41-7.73a2.06,2.06,0,0,0-1.52.7,3.6,3.6,0,0,0-.88,2h4.69a4.19,4.19,0,0,0-.7-2A1.88,1.88,0,0,0,188.1,183.62Zm.09-1.58,1.62-3.06h.81a1,1,0,0,1-.14.5,6.28,6.28,0,0,1-.43.59l-1.62,2Z"/><path class="cls-1" d="M197.74,191.35a3.86,3.86,0,0,1-2.06-.52,3.28,3.28,0,0,1-1.26-1.4,4.85,4.85,0,0,1,.07-4.1,4.27,4.27,0,0,1,1.29-1.52,3,3,0,0,1,1.75-.57,2.68,2.68,0,0,1,2.14.9,4.15,4.15,0,0,1,.9,2.48l-.06,0h-5.63a5.06,5.06,0,0,0,0,.56,3.56,3.56,0,0,0,.82,2.45,2.87,2.87,0,0,0,2.3.94,4.28,4.28,0,0,0,1.47-.24,2.65,2.65,0,0,0,1.05-.65h.05V190a3,3,0,0,1-1.11,1A3.59,3.59,0,0,1,197.74,191.35Zm-.42-7.73a2,2,0,0,0-1.51.7,3.6,3.6,0,0,0-.88,2h4.69a4.19,4.19,0,0,0-.71-2A1.87,1.87,0,0,0,197.32,183.62Z"/><path class="cls-1" d="M116.55,41.82q-2.91-2.48-3.09-7.23c0-.65,0-1.7,0-3.15s0-2.56,0-3.23A9.45,9.45,0,0,1,116.59,21a11.93,11.93,0,0,1,8-2.52,14.72,14.72,0,0,1,5.71,1,9.2,9.2,0,0,1,4,3,8,8,0,0,1,1.54,4.66.71.71,0,0,1-.24.54.79.79,0,0,1-.55.21H130a1.06,1.06,0,0,1-.73-.2,1.57,1.57,0,0,1-.41-.73,4.25,4.25,0,0,0-1.52-2.45,4.7,4.7,0,0,0-2.71-.7c-2.7,0-4.09,1.5-4.19,4.51q0,1,0,3c0,1.34,0,2.36,0,3,.1,3,1.49,4.51,4.19,4.51a4.73,4.73,0,0,0,2.71-.72,4.09,4.09,0,0,0,1.52-2.43,1.35,1.35,0,0,1,.39-.74,1.22,1.22,0,0,1,.75-.19h5.09a.79.79,0,0,1,.55.21.7.7,0,0,1,.24.54,7.93,7.93,0,0,1-1.54,4.65,9.15,9.15,0,0,1-4,3,14.9,14.9,0,0,1-5.71,1Q119.48,44.29,116.55,41.82Z"/><path class="cls-1" d="M141.33,43.66a.83.83,0,0,1-.27-.62V19.8a.94.94,0,0,1,.26-.67.85.85,0,0,1,.64-.26h9.85q4.73,0,7.39,2.14a7.34,7.34,0,0,1,2.67,6.06,7.58,7.58,0,0,1-1.16,4.26,7.79,7.79,0,0,1-3.21,2.72l4.84,8.74a.87.87,0,0,1,.1.39.77.77,0,0,1-.21.52.68.68,0,0,1-.54.23h-5.05a1.5,1.5,0,0,1-1.47-1l-3.94-7.77H147.8V43a.82.82,0,0,1-.27.64.92.92,0,0,1-.66.25H142A.86.86,0,0,1,141.33,43.66Zm10.44-13.73a3.29,3.29,0,0,0,2.35-.77,2.82,2.82,0,0,0,.8-2.13,3,3,0,0,0-.8-2.18,3.15,3.15,0,0,0-2.35-.83h-4v5.91Z"/><path class="cls-1" d="M169.78,41.82q-2.92-2.48-3.11-7.27c0-.67,0-1.69,0-3.08s0-2.42,0-3.11a9.46,9.46,0,0,1,3.13-7.29,13.73,13.73,0,0,1,16,0,9.47,9.47,0,0,1,3.14,7.29c0,1.38.07,2.42.07,3.11s0,1.74-.07,3.08c-.12,3.2-1.16,5.62-3.1,7.27s-4.62,2.47-8,2.47S171.74,43.47,169.78,41.82Zm11-4A5,5,0,0,0,182,34.34c0-1.39.07-2.38.07-3s0-1.56-.07-2.9A5,5,0,0,0,180.78,25a4,4,0,0,0-3-1.13,4,4,0,0,0-3,1.13,4.93,4.93,0,0,0-1.18,3.45c0,.67,0,1.64,0,2.9s0,2.28,0,3a4.93,4.93,0,0,0,1.18,3.45,4,4,0,0,0,3,1.13A4,4,0,0,0,180.78,37.79Z"/><path class="cls-1" d="M200,43.68a.82.82,0,0,1-.27-.64V24.7h-6.31a.92.92,0,0,1-.66-.25.82.82,0,0,1-.27-.64v-4a.9.9,0,0,1,.27-.67.93.93,0,0,1,.66-.26H212.9a.93.93,0,0,1,.66.26.9.9,0,0,1,.27.67v4a.82.82,0,0,1-.27.64.92.92,0,0,1-.66.25h-6.3V43a.82.82,0,0,1-.27.64.92.92,0,0,1-.66.25h-5A.91.91,0,0,1,200,43.68Z"/><path class="cls-1" d="M222.07,43.29a8.55,8.55,0,0,1-3.69-2.65,6.18,6.18,0,0,1-1.33-3.58.68.68,0,0,1,.24-.54.79.79,0,0,1,.55-.21h4.76a1.43,1.43,0,0,1,.7.14,2.09,2.09,0,0,1,.59.5,3.65,3.65,0,0,0,1.45,1.41,5.38,5.38,0,0,0,2.63.56,6.19,6.19,0,0,0,3-.59,1.82,1.82,0,0,0,1-1.63,1.61,1.61,0,0,0-.54-1.24,5,5,0,0,0-1.72-.86c-.79-.25-1.92-.53-3.4-.84a14.76,14.76,0,0,1-6.48-2.61,6.08,6.08,0,0,1-2.15-5,6.69,6.69,0,0,1,1.23-4,8.14,8.14,0,0,1,3.51-2.71,13.52,13.52,0,0,1,5.28-1,12.68,12.68,0,0,1,5.47,1.09,9.38,9.38,0,0,1,3.54,2.72A5.85,5.85,0,0,1,238,25.53a.75.75,0,0,1-.22.55.67.67,0,0,1-.53.23h-5a1.39,1.39,0,0,1-1.22-.64,2.2,2.2,0,0,0-1.11-1.27,4.29,4.29,0,0,0-2.22-.52,4.21,4.21,0,0,0-2.32.54,1.75,1.75,0,0,0-.83,1.57,1.8,1.8,0,0,0,1.08,1.63,15.62,15.62,0,0,0,4,1.2A23,23,0,0,1,235,30.34,6.72,6.72,0,0,1,238,32.71a6.58,6.58,0,0,1,1,3.67,6.66,6.66,0,0,1-1.4,4.22,8.66,8.66,0,0,1-3.87,2.74,15.72,15.72,0,0,1-5.66.95A15.45,15.45,0,0,1,222.07,43.29Z"/><path class="cls-1" d="M114,78.6a.85.85,0,0,1-.27-.65V74.37a.82.82,0,0,1,.27-.64.92.92,0,0,1,.66-.25H126a.87.87,0,0,1,.65.25.88.88,0,0,1,.25.64V78a.93.93,0,0,1-.25.63.85.85,0,0,1-.65.27H114.67A1,1,0,0,1,114,78.6Z"/><path class="cls-1" d="M133,86.64a.86.86,0,0,1-.27-.63V62.77a.92.92,0,0,1,.25-.66.85.85,0,0,1,.65-.27h10.13A11.44,11.44,0,0,1,151.06,64a7.47,7.47,0,0,1,2.65,6.2,7.21,7.21,0,0,1-2.65,6.1,11.8,11.8,0,0,1-7.31,2h-4.08V86a.88.88,0,0,1-.25.63.84.84,0,0,1-.65.26h-5.15A.85.85,0,0,1,133,86.64Zm10.58-13.49a3.26,3.26,0,0,0,2.31-.77,2.92,2.92,0,0,0,.84-2.27,3.25,3.25,0,0,0-.77-2.26,3,3,0,0,0-2.38-.86h-4v6.16Z"/><path class="cls-1" d="M158.88,86.64a.86.86,0,0,1-.27-.63V62.77a.92.92,0,0,1,.25-.66.85.85,0,0,1,.65-.27h4a1.3,1.3,0,0,1,1.22.68l8.45,13.36V62.77a1,1,0,0,1,.25-.66.85.85,0,0,1,.65-.27h4.55a.84.84,0,0,1,.64.27.92.92,0,0,1,.25.66V86a.93.93,0,0,1-.25.67.83.83,0,0,1-.64.26h-4a1.3,1.3,0,0,1-1.22-.68L165,73.4V86a.82.82,0,0,1-.27.64.93.93,0,0,1-.67.25h-4.54A.85.85,0,0,1,158.88,86.64Z"/><path class="cls-1" d="M188.67,84.79q-2.88-2.48-2.88-7.41V62.77a.92.92,0,0,1,.25-.66.85.85,0,0,1,.65-.27h4.9a.88.88,0,0,1,.66.27.9.9,0,0,1,.27.66V77.31a4.64,4.64,0,0,0,1.06,3.33,4.65,4.65,0,0,0,6,0,4.65,4.65,0,0,0,1.06-3.31V62.77a.9.9,0,0,1,.27-.66.88.88,0,0,1,.66-.27h4.87a.92.92,0,0,1,.93.93V77.38q0,4.94-2.87,7.41c-1.91,1.65-4.54,2.47-7.91,2.47S190.59,86.44,188.67,84.79Z"/><path class="cls-1" d="M28.48,85.43c-1.09-.65-2.14-1.35-3.16-2.1Z"/><path class="cls-1" d="M88.79,80.85a50.46,50.46,0,0,1-5.43,5.8,49.55,49.55,0,0,1-13.61,8.83,49.58,49.58,0,0,0-19.93-4.15A41.57,41.57,0,0,0,83.11,74.61l2.11,2.32Z"/><path class="cls-1" d="M28.48,85.43c-1.09-.65-2.14-1.35-3.16-2.1Z"/><path class="cls-1" d="M99.63,141.15A49.58,49.58,0,0,1,91.11,169l-5.19-7.37a41.51,41.51,0,0,0-36.1-62,49,49,0,0,1-8-.64c-.42-.06-.83-.13-1.24-.21-1.09-.2-2.16-.44-3.22-.71h0a47.89,47.89,0,0,1-7.48-2.59,49.39,49.39,0,0,1-7.24-3.9A49.82,49.82,0,1,1,87.84,17.63L84,22.25l-1.57,1.88a41.93,41.93,0,0,0-6.06-6.22A41.51,41.51,0,1,0,25.32,83.33c1,.75,2.07,1.45,3.16,2.1h0a41.35,41.35,0,0,0,21.34,5.89,49.58,49.58,0,0,1,19.93,4.15,49,49,0,0,1,5.06,2.57A49.76,49.76,0,0,1,99.63,141.15Z"/><path class="cls-1" d="M28.48,85.43c-1.09-.65-2.14-1.35-3.16-2.1Z"/><path class="cls-1" d="M8.3,84.84V191H0V71.48a52.85,52.85,0,0,0,4.15,7.75A54.16,54.16,0,0,0,8.3,84.84Z"/><path class="cls-1" d="M28.48,85.43c-1.09-.65-2.14-1.35-3.16-2.1Z"/><path class="cls-1" d="M99.63,186.53l-2.39,1.69-1.85,1.3-2.55,1.79-9.42-13.39L80,173l-1.36-1.93-47-66.76-.25-.36-3-4.21a54.55,54.55,0,0,0,6.43,2.3l.6.16.21.06c.33.09.66.18,1,.25l.36.09h0c1.37.34,2.75.62,4.16.84l43,61.07,5,7.17Z"/><path class="cls-1" d="M77.84,175.07l-.17.17-1.45-2.06.18-.15Z"/><rect class="cls-1" x="45.67" y="58.47" width="8.3" height="24.91"/><rect class="cls-1" x="45.67" y="58.47" width="8.3" height="24.91"/><path class="cls-1" d="M88.79,80.85a50.46,50.46,0,0,1-5.43,5.8,49.55,49.55,0,0,1-13.61,8.83,49.58,49.58,0,0,0-19.93-4.15A41.57,41.57,0,0,0,83.11,74.61l2.11,2.32Z"/><rect class="cls-1" x="45.67" y="58.47" width="8.3" height="24.91"/><path class="cls-1" d="M28.57,105.48A41.71,41.71,0,0,0,12.45,123V108.19a50.28,50.28,0,0,1,11.33-9.52l1.82,2.59.25.36Z"/><path class="cls-1" d="M81.2,179.84a49.84,49.84,0,0,1-68.75-5.74V159.27a41.53,41.53,0,0,0,63.77,13.91l.18-.15,1.44,2Z"/><rect class="cls-1" x="16.61" y="45.67" width="66.42" height="8.3"/><rect class="cls-1" x="45.67" y="58.47" width="8.3" height="24.91"/></g></g></svg>