<?xml version="1.0" encoding="utf-8"?>
<!-- Generator: Adobe Illustrator 24.0.3, SVG Export Plug-In . SVG Version: 6.00 Build 0)  -->
<svg version="1.1" id="Layer_1" xmlns="http://www.w3.org/2000/svg" xmlns:xlink="http://www.w3.org/1999/xlink" x="0px" y="0px"
	 viewBox="0 0 362.2 372.2" style="enable-background:new 0 0 362.2 372.2;" xml:space="preserve">
<style type="text/css">
	.st0{fill:#E4DFD1;}
	.st1{fill:#283371;}
	.st2{fill:#FFFFFF;}
	.st3{fill:#E73743;}
	.st4{fill:#006C35;}
	.st5{fill:#729799;}
</style>
<path class="st0" d="M243.8,119C216.1,75,167,72.7,167,72.7V106c0,23.6,19.1,42.7,42.7,42.7H248L243.8,119l4.2-3.5L243.8,119z"/>
<path class="st0" d="M143,70.2h33.2l0,0v38.3c0,23.6-19.1,42.7-42.7,42.7h-33.3l0,0v-38.3C100.3,89.3,119.4,70.2,143,70.2
	C143,70.2,143,70.2,143,70.2z"/>
<g>
	<path class="st1" d="M199.5,102.7L199.5,102.7v30.6l0,0c-5.6,0-10.2-4.6-10.2-10.2v-10.2C189.3,107.3,193.8,102.7,199.5,102.7z"/>
	<rect x="199.5" y="102.7" class="st2" width="10.2" height="30.6"/>
	<path class="st3" d="M209.7,102.7L209.7,102.7c5.6,0,10.2,4.6,10.2,10.2v10.2c0,5.6-4.6,10.2-10.2,10.2l0,0V102.7z"/>
</g>
<g>
	<path class="st4" d="M130.9,102.7L130.9,102.7v30.6l0,0c-5.6,0-10.2-4.6-10.2-10.2v-10.2C120.7,107.3,125.3,102.7,130.9,102.7z"/>
	<rect x="130.9" y="102.7" class="st4" width="10.2" height="30.6"/>
	<path class="st4" d="M141.1,102.7L141.1,102.7c5.6,0,10.2,4.6,10.2,10.2v10.2c0,5.6-4.6,10.2-10.2,10.2l0,0V102.7z"/>
	<g id="dEwNzf.tif">
		<path class="st2" d="M123,119.6c-0.2,0.1-0.5,0-0.5-0.3c-0.1-0.5,0-1,0.4-1.3c0,0.3,0,0.5,0,0.8s0,0.4,0.3,0.2
			c0.1-0.1,0.2,0,0.2,0.1C123.4,119.3,123.2,119.5,123,119.6C123,119.6,123,119.6,123,119.6z"/>
		<path class="st2" d="M124.9,116.3c0,0.1-0.1,0.1-0.2,0.2l-2,0.7c0.4-0.7,1.1-1,1.9-1C124.8,116.2,124.9,116.2,124.9,116.3z"/>
		<path class="st2" d="M123.8,113.1c0,0.1,0,0.2-0.1,0.3c-0.1,0.1-0.2,0.1-0.2,0c0-0.1-0.1-0.3-0.2-0.4c-0.1-0.1-0.2-0.2-0.1-0.3
			c0.1-0.1,0.3-0.1,0.4,0C123.7,112.8,123.8,113,123.8,113.1z"/>
		<path class="st2" d="M131,113.2c-0.1,0.7-0.7,0.8-1.1,1.2c-0.3,0.2-0.6,0.2-1,0.1c0.1-0.2,0.3-0.3,0.4-0.4
			c0.3-0.2,0.6-0.3,0.9-0.5c0.2-0.1,0.3-0.2,0-0.4c-0.1-0.1-0.2-0.2-0.1-0.3c0,0,0-0.1,0.1-0.1c0.2-0.2,0.4-0.2,0.6-0.1
			C131.1,112.9,131,113,131,113.2z"/>
		<path class="st2" d="M130.8,114.9c-0.1,0.2-0.3,0.3-0.6,0.2c-0.1,0-0.2-0.1-0.2-0.3c0-0.1,0.1-0.3,0.2-0.4
			c0.1-0.1,0.2-0.1,0.2,0.1C130.4,114.9,130.6,114.9,130.8,114.9z"/>
		<path class="st2" d="M130.9,115.7c-0.1,0-0.3,0-0.3,0.2c0,0,0,0,0,0c0,0.1-0.1,0.2-0.2,0.1c-0.3-0.4-0.6-0.2-0.8,0.1
			c0,0-0.1,0.1-0.1,0.1c-0.3-0.1-0.6-0.3-0.9-0.5c-0.1-0.5-0.2-0.9-0.3-1.4c0-0.1,0-0.2,0.1-0.2c0.2,0,0.2-0.2,0.1-0.3
			c-0.1-0.2-0.2-0.5-0.4-0.7c-0.1-0.2-0.3-0.2-0.5-0.1c-0.2,0.1-0.2,0.2-0.2,0.4c0,0.2,0.1,0.2,0,0.4c-0.2-0.2-0.4-0.3-0.7-0.3
			c-0.2,0-0.1-0.1-0.1-0.2s0.1-0.4-0.3-0.2c-0.2,0.1-0.3,0.1-0.5,0c-0.3,0-0.2,0.1-0.2,0.2c0.1,0.3,0.3,0.2,0.5,0.2
			c0.2,0,0.3,0,0.3,0.3c0,0.2,0.1,0.5,0.2,0.7c0.1,0.1,0.2,0.3,0.3,0.4c0.1,0.2,0,0.3-0.2,0.3c-0.3,0-0.6-0.3-0.6-0.7
			c0-0.3-0.1-0.6-0.3-0.8c-0.1-0.2-0.3-0.2-0.4,0c0,0.1,0,0.2-0.1,0.1s-0.1-0.1-0.1-0.2c0-0.1-0.1-0.3-0.1-0.4
			c-0.1-0.1-0.2-0.2-0.3-0.2c-0.2,0-0.2,0.2-0.2,0.3c0,0.3,0,0.5,0.1,0.7c0.1,0.3,0.1,0.6,0.2,0.9c0,0.1,0,0.2-0.1,0.2
			c-0.1,0-0.2-0.1-0.2-0.2c0-0.1,0-0.2,0-0.3c0-0.2,0-0.4,0-0.5c0-0.2,0-0.4-0.3-0.4c-0.2,0-0.4,0.1-0.5,0.2
			c-0.2,0.2-0.3,0.5-0.3,0.8c0,0.2,0,0.4-0.2,0.4c-0.2,0-0.2-0.2-0.3-0.3c-0.1-0.3-0.1-0.6-0.4-0.9c-0.1,0.4-0.1,0.9,0,1.3
			c0,0.3,0.3,0.5,0.7,0.5c0,0,0,0,0,0c0.4-0.1,0.4-0.4,0.4-0.7c0-0.2,0-0.3,0.1-0.5c0-0.1,0.1-0.2,0.2-0.1c0.1,0,0.1,0.1,0.1,0.2
			c0,0.1,0,0.3,0,0.5c0,0.7,0,0.7,0.7,0.9c0.2,0,0.3,0.2,0.3,0.4c0,0,0,0,0,0c0,0.4,0,0.7,0.1,1.1c0,0.1,0,0.3,0.1,0.3
			c0.1,0,0.2-0.2,0.3-0.3c0.1-0.1,0-0.2,0.1-0.2c0.1-0.5,0.1-1,0-1.4c0-0.3,0.1-0.4,0.4-0.3c0.1,0,0.2,0.1,0.2,0.1
			c0.4,0.1,0.8,0,1-0.2c0.3-0.2,0.2-0.4,0.2-0.7c0-0.2-0.1-0.3-0.1-0.4c0-0.1-0.1-0.2,0.1-0.3c0.2,0,0.2,0.1,0.2,0.2l0.3,1.6
			c0,0.2,0.2,0.4-0.1,0.5c-0.2,0.1-0.3-0.1-0.4-0.2c-0.3-0.3-0.8-0.2-1.2,0.1c-0.2,0.2-0.3,0.6-0.2,0.9c0.1,0.3,0.4,0.3,0.7,0.2
			c0.1,0,0.2,0,0.3-0.1c0.1-0.1,0.2-0.1,0.3,0c0.1,0.1,0,0.2-0.1,0.3c-0.3,0.4-0.7,0.6-1.1,0.7c-0.9,0.2-1.1,0.1-1.3-0.8
			c0-0.1,0-0.3-0.2-0.3s-0.2,0.2-0.2,0.3c-0.1,0.1,0,0.6-0.5,0.5c0,0-0.1,0.1-0.1,0.1c-0.3,0.6,0,1.4,0.6,1.7c0.1,0,0.2,0.1,0.2,0.1
			c0.7,0.2,1.5,0.1,2.2-0.2c1.3-0.5,1.6-1,1.6-2.4c0-0.1,0-0.2,0.2-0.2c0.3,0.1,0.7,0,0.9-0.2c0.1,0,0.2,0,0.3,0
			c0.7,0.2,0.9,0,1-0.7C131,115.9,131,115.7,130.9,115.7z M125.6,114.7c-0.1,0.1-0.2,0-0.2-0.1c-0.1-0.2-0.1-0.4,0-0.6l0.2,0.5
			C125.7,114.6,125.7,114.7,125.6,114.7L125.6,114.7z M128.1,117.2c-0.1,0.8-0.6,1.4-1.3,1.7c-0.5,0.2-1.1,0.3-1.7,0.2
			c-0.4,0-0.7-0.4-0.7-0.8c0-0.1,0-0.1,0-0.2c0.7,1.2,2.7,0.8,3.3-0.4c0.1-0.2,0.1-0.3,0.2-0.5c0.1-0.2,0.1-0.2,0.2-0.2
			C128.2,116.9,128.1,117.1,128.1,117.2L128.1,117.2z"/>
		<path class="st2" d="M129.8,118c0-0.2-0.1-0.5-0.3-0.6c-0.1,0-0.1-0.1,0-0.2s0.2,0,0.2,0C130,117.3,130.1,117.6,129.8,118z"/>
		<path class="st2" d="M132.3,113.1c0,0,0,0.1-0.1,0.2c-0.1,0.1-0.2,0.1-0.3,0c-0.1,0-0.1-0.2-0.1-0.2c0.1-0.3,0.3-0.5,0.5-0.5
			C132.3,112.8,132.1,112.9,132.3,113.1z"/>
		<path class="st2" d="M138.1,119.2c-0.1,0.1-0.3,0.1-0.4,0.1c-0.2,0-0.2,0-0.3-0.1c0-0.1,0-0.1-0.1-0.2c-0.1-0.1-0.3,0-0.2-0.2
			c0.1-0.2,0.2-0.2,0.3-0.2c0.1-0.1,0.2,0,0.2,0.1c0,0.3,0.2,0.3,0.4,0.2c0.2-0.1,0.4-0.2,0.5,0
			C138.5,119.2,138.2,119.2,138.1,119.2z"/>
		<path class="st2" d="M134.2,112.8c-0.1,0.2,0,0.5-0.3,0.6c-0.1,0-0.1-0.1-0.1-0.2c0.1-0.2,0-0.5,0.3-0.6
			C134.2,112.6,134.3,112.7,134.2,112.8z"/>
		<path class="st2" d="M135.4,116c-0.1,0.1-0.3,0.1-0.5,0.1c-0.1,0-0.2,0-0.3-0.1c-0.1,0-0.2-0.2-0.2-0.3c0-0.2,0.1-0.1,0.2-0.1
			c0.1,0,0.4,0.1,0.6,0c0.1-0.1,0.2,0,0.2,0.1C135.6,115.8,135.5,115.9,135.4,116z"/>
		<path class="st2" d="M138.3,117.1h-1.9c0.1-0.1,0.2-0.2,0.4-0.2c0.2,0,0.5-0.1,0.7-0.3c0.3-0.2,0.5-0.5,0.3-0.9
			c-0.2-0.4-0.6-0.6-1-0.5c-0.4,0-0.7,0.3-0.7,0.7c0,0.4-0.2,0.5-0.5,0.5c-0.5,0-1,0.2-1.5,0.6c-0.3,0.2-0.3,0.2-0.4-0.1
			c-0.1-0.5-0.2-0.9-0.5-1.3c-0.1-0.2-0.2-0.4-0.5-0.2c-0.2,0.1-0.2,0.3-0.2,0.5c0,0,0,0,0,0.1c0.1,0.3,0.3,0.5,0.4,0.8
			c0.4,0.6,0.2,1.3-0.3,1.7c0,0-0.1,0-0.1,0.1c-0.3,0.2-0.6,0.4-0.9,0.6c-0.2,0.1-0.4,0.1-0.7,0.1c-0.1,0-0.2-0.1-0.3-0.2
			c0-0.1,0.1-0.2,0.2-0.3c0.3-0.2,0.6-0.3,0.9-0.6c0.5-0.3,0.7-1,0.4-1.6c0-0.1-0.1-0.1,0-0.2c0.3-0.4-0.1-0.5-0.3-0.7
			c-0.1-0.2-0.4-0.2-0.6,0c0,0-0.1,0.1-0.1,0.1c-0.2,0.2-0.1,0.5,0,0.6c0,0,0,0,0,0c0.1,0.1,0.3,0.2,0.4,0.3c0.2,0.2,0.2,0.4,0,0.6
			c0,0,0,0-0.1,0.1c-0.3,0.2-0.6,0.4-0.9,0.6c-0.1,0.1-0.2,0.1-0.2-0.1s0-0.2-0.1-0.2s-0.2,0.1-0.2,0.2c-0.1,0.5-0.5,0.6-0.9,0.8
			c-0.3,0.1-0.7,0.3-1,0.5c-0.3,0.1-0.5,0.3-0.7,0.5c0.1,0.1,0.3,0.1,0.4,0c0.5-0.1,1.1-0.3,1.6-0.5c0.1-0.1,0.3,0,0.4,0.1
			c0.3,0.4,0.9,0.6,1.4,0.4c0.6-0.2,1.2-0.5,1.7-1c0.2-0.2,0.3-0.2,0.5,0c0.3,0.3,0.7,0.6,1.2,0.7c0.4,0.1,0.8,0.2,1.2,0.2
			c0.1,0,0.2-0.1,0.3-0.2c0-0.2-0.1-0.2-0.2-0.3c-0.1,0-0.2-0.1-0.4-0.2c-0.1-0.1-0.3-0.1-0.3-0.3c0-0.2,0.2-0.2,0.3-0.3
			c0.1,0,0.3-0.1,0.4-0.1c0.5,0,1-0.1,1.4-0.2c0.4-0.1,0.7-0.1,0.8-0.5S138.7,117.1,138.3,117.1z M135.5,117.9
			c-0.3,0.1-0.5,0.2-0.5,0.6c0,0.1-0.1,0.1-0.2,0.1c-0.3-0.1-0.5-0.3-0.7-0.6c-0.2-0.3-0.1-0.5,0.3-0.5c0.1,0,0.3,0,0.4,0l0,0
			c0.2,0,0.5,0,0.7,0.1c0.1,0,0.2,0,0.2,0.2C135.7,117.9,135.6,117.9,135.5,117.9z"/>
		<path class="st2" d="M141.2,117.9C141.2,118,141.1,118,141.2,117.9c-0.1,0.1-0.2,0-0.3,0l-0.9-1.3l-0.2-0.3
			c-0.1-0.1-0.1-0.2-0.2-0.2c-0.1,0-0.1,0.2-0.1,0.3c0,0.5,0.1,1,0.1,1.6c0,0.3-0.1,0.5-0.3,0.7c-0.1,0.1-0.2,0.2-0.3,0.1
			s-0.1-0.2-0.1-0.3c0.1-1.1,0-2.2-0.2-3.2c0-0.2-0.1-0.4-0.2-0.5c-0.5-0.5-1-1-1.4-1.5c-0.2-0.2-0.3,0-0.5,0s-0.1,0.2,0,0.3
			c0,0.1,0.1,0.2,0.1,0.3c0.1,0.4,0.3,0.5,0.7,0.3c0.1,0,0.2-0.1,0.3,0s0,0.2-0.1,0.3c-0.1,0.1-0.2,0.2-0.3,0.3
			c-0.1,0-0.2,0.1-0.2-0.1c-0.1-0.3-0.2-0.2-0.4,0c-0.5,0.5-0.8,0.6-1.4,0.1c-0.2-0.2-0.4-0.1-0.6,0c-0.2,0.2-0.6,0.4-1,0.3
			c-0.3,0-0.6-0.3-0.7-0.7c0-0.1,0-0.2,0-0.3s0-0.2-0.1-0.2c-0.1,0-0.1,0.1-0.2,0.2c-0.1,0.2-0.2,0.4-0.3,0.6
			c-0.1,0.2-0.4,0.3-0.6,0.2c0,0,0,0,0,0c-0.5-0.4-0.7-1-0.6-1.6c0-0.1,0.1-0.1,0.1-0.1c0.1,0,0.1,0.1,0.1,0.2
			c0.1,0.3,0.1,0.5,0.2,0.8c0,0.1,0.1,0.3,0.2,0.3c0.1,0,0.2-0.1,0.2-0.3c0.1-0.4,0.4-0.7,0.7-1c0.1-0.1,0.3-0.2,0.4-0.2
			c0.2,0.1,0.2,0.3,0.2,0.4c0,0.2,0,0.4,0,0.6c0,0.3,0.2,0.6,0.5,0.6c0,0,0,0,0.1,0c0.3,0,0.6-0.3,0.6-0.6c0-0.3,0-0.5-0.1-0.8
			c0-0.1-0.1-0.2-0.1-0.3c0-0.2,0.1-0.4,0.3-0.5c0.2,0,0.3,0.2,0.3,0.4c0.1,0.2,0.1,0.5,0.1,0.7c0,0.2,0,0.5,0.1,0.7
			c0.1,0.2,0.3,0.3,0.5,0.2c0,0,0,0,0,0c0.3-0.1,0.2-0.3,0.2-0.5c0-0.2-0.1-0.4-0.3-0.5c-0.2-0.3-0.2-0.7,0-0.8
			c0.2-0.2,0.5-0.1,0.8,0.1c0.1,0,0.1,0.1,0.2,0.1c0.1,0,0.1-0.1,0.1-0.2c0-0.3,0.2-0.3,0.4-0.2c0.2,0.1,0.4,0.2,0.7,0.4
			c0.2,0.1,0.2,0.1,0.3-0.1c0.2-0.3,0.2-0.3,0.5-0.1c0.2,0.2,0.4,0.4,0.5,0.6c0.1,0.2,0.1,0.3,0.1,0.5c-0.1,0.4,0,0.9,0.3,1.2
			c0.5,0.6,1,1.3,1.5,2C141.3,117.4,141.3,117.7,141.2,117.9z"/>
		<path class="st2" d="M140.1,113.9c0-0.3-0.1-0.5-0.3-0.7c-0.1-0.1-0.2-0.2-0.1-0.3c0.1-0.1,0.3-0.1,0.4,0
			C140.4,113.1,140.4,113.5,140.1,113.9C140.1,113.8,140.1,113.9,140.1,113.9z"/>
		<path class="st2" d="M140.5,114.9c-0.2,0.1-0.4,0.1-0.7,0c-0.1,0-0.2-0.2-0.2-0.3c0-0.2,0.2-0.1,0.3-0.1c0.1-0.1,0.3,0,0.4,0
			s0.2-0.1,0.3,0C140.7,114.6,140.6,114.8,140.5,114.9z"/>
		<path class="st2" d="M141.9,117.8c-0.1,1.1-1,1.9-2.1,2c-0.1,0-0.2,0-0.2,0c-0.1,0-0.2-0.1-0.2-0.2c0-0.1,0.1-0.1,0.2-0.2
			c0.5-0.2,1-0.5,1.5-0.8c0.2-0.1,0.3-0.4,0.3-0.6c-0.1-1.4-0.3-2.8-0.5-4.2c0-0.3,0-0.5,0.1-0.8c0.1-0.2,0.2-0.2,0.3,0
			s0.3,0.5,0.4,0.7c0.1,0.1,0,0.2,0,0.2c0,0,0,0-0.1,0c-0.2,0.1-0.2,0.3-0.1,0.5C141.8,115.4,141.9,116.6,141.9,117.8z"/>
		<path class="st2" d="M143.2,118.4c-0.1,0.1-0.1,0.3-0.3,0.2c-0.2,0-0.1-0.2-0.1-0.3c0-1.3-0.3-2.7-0.7-3.9
			c-0.1-0.3-0.1-0.5-0.2-0.7c0-0.1,0-0.1,0-0.1c0.1-0.2,0-0.6,0.3-0.7s0.3,0.3,0.4,0.5c0.1,0.1,0.2,0.2,0.2,0.3
			c0.1,0.1,0.3,0.3,0,0.4c-0.1,0.1-0.1,0.2,0,0.4c0.2,0.9,0.4,1.9,0.5,2.8C143.4,117.5,143.4,118,143.2,118.4z"/>
		<path class="st2" d="M144.8,115c-0.2,0.1-0.2,0.3-0.2,0.5c0,0.2,0,0.3-0.2,0.2c-0.3-0.1-0.6-0.3-0.8-0.6c-0.1-0.1-0.1-0.2,0-0.3
			c0.1-0.1,0.3-0.1,0.4,0c0.2,0.1,0.3,0.1,0.3-0.1c0-0.1,0.2-0.3,0.3-0.2c0,0,0,0,0,0c0.2,0,0.3,0.1,0.3,0.3
			C145.1,115,144.9,115,144.8,115z"/>
		<path class="st2" d="M145.4,116.3c-0.3,0.2-0.7,0.4-1.1,0.6c-0.1,0-0.1,0-0.2,0.1c-0.1,0-0.2,0-0.2-0.1c0-0.1,0-0.1,0-0.2
			c0.4-0.3,0.9-0.5,1.3-0.7c0.1,0,0.1,0,0.1,0.1c0,0,0,0,0,0C145.5,116,145.5,116.2,145.4,116.3z"/>
		<path class="st2" d="M145.6,117.3c0,0.1,0,0.2-0.1,0.3c0,0.1-0.1,0.2-0.2,0.1c-0.1,0-0.1-0.1-0.1-0.2c0-0.2-0.1-0.4-0.2-0.7
			c-0.1-0.2-0.1-0.2,0.1-0.3c0.1,0,0.2,0,0.3,0.1C145.5,116.9,145.6,117.1,145.6,117.3z"/>
		<path class="st2" d="M148.9,118.5c-0.3-0.3-0.5-0.5-0.7-0.8c-0.1-0.1-0.1-0.2-0.2-0.2c-0.1,0-0.1,0.2-0.1,0.2
			c0,0.3-0.1,0.5-0.3,0.7c-0.1,0.1-0.2,0.2-0.3,0.1s-0.1-0.2-0.1-0.3c0-0.5-0.1-0.9-0.1-1.4c0-0.4-0.2-0.7-0.5-0.9
			c-0.1-0.1-0.2-0.1-0.2,0.1c0,0.3,0,0.6,0,0.9s0,0.7,0,1.1c-0.1,0.5-0.5,0.9-1.1,0.9c-0.1,0-0.1,0-0.2,0c-0.2-0.1-0.5-0.2-0.7-0.3
			c-0.3-0.2-0.5-0.2-0.7,0.2c-0.1,0.2-0.1,0.4-0.2,0.6c-0.1,0.3-0.4,0.5-0.7,0.3c0,0-0.1,0-0.1,0c-0.5-0.2-0.9-0.7-0.8-1.3
			c0-0.1,0-0.3,0.2-0.3c0.1,0.2,0,0.5,0.2,0.7s0.2,0.3,0.5,0.3c0.2,0,0.3-0.2,0.4-0.3c0.2-0.3,0.3-0.6,0.6-0.9
			c0.3-0.3,0.5-0.3,0.8,0c0.2,0.2,0.3,0.5,0.7,0.4c0.3-0.1,0.4-0.5,0.4-0.8c0-0.8-0.1-1.7-0.2-2.5c0-0.1-0.1-0.3-0.2-0.4l-0.9-0.9
			c-0.1-0.1-0.2-0.2-0.3-0.4c-0.1-0.2-0.1-0.5,0.1-0.7s0.3,0.1,0.5,0.2c0,0,0.1,0,0.1,0.1c0.2,0.1,0.4,0.5,0.4-0.1
			c0-0.2,0.3-0.3,0.4-0.1s0.4,0.5,0.5,0.8c0,0.1,0,0.1,0,0.2c-0.3,0.5-0.2,1.1,0.3,1.4c0,0,0.1,0,0.1,0c0,0,0.1,0.1,0.1,0.1
			c0.1,0,0.1-0.1,0.1-0.2c-0.1-0.3-0.1-0.7-0.2-1s-0.1-0.5-0.2-0.8c-0.1-0.2,0-0.4,0.1-0.5c0.2-0.1,0.3-0.2,0.5,0
			c0.1,0.2,0.3,0.5,0.5,0.8c0.2-0.2,0.3-0.3,0.5-0.1c0.2,0.3,0.2,0.6,0.1,0.9c-0.1,0.1-0.2,0-0.2-0.1c0-0.1,0-0.2,0-0.3
			c-0.1-0.1-0.1-0.4-0.3-0.3c-0.2,0.1-0.4,0.2-0.3,0.4c0.2,0.7,0.3,1.4,0.4,2.1c0,0.1,0.1,0.2,0.2,0.3c0.2,0.2,0.4,0.5,0.6,0.7
			C148.9,117.6,149.1,118.1,148.9,118.5z"/>
		<path class="st2" d="M149.7,118c0.1,0.8-0.5,1.6-1.4,1.7c-0.1,0-0.1,0-0.2,0c-0.3,0-0.7,0.2-0.9-0.2c0,0-0.3,0-0.4,0.1
			c-0.1,0-0.2,0.1-0.3,0c-0.1-0.1,0-0.1,0.1-0.2s0.2-0.2,0-0.3c-0.2-0.1-0.2-0.1-0.1-0.2c0.1-0.1,0.2-0.1,0.3,0s0.2,0,0.2,0.1
			c0,0.2,0.2,0.4,0.5,0.4c0,0,0.1,0,0.1,0c0.4-0.1,0.8-0.3,1.1-0.7c0.1-0.1,0.2-0.1,0.1-0.2c0.1-0.1,0.2-0.3,0.2-0.5
			c-0.1-1-0.2-2-0.3-3c-0.1-0.5-0.2-1.1-0.3-1.6c0-0.1,0-0.1,0-0.2c0-0.2,0-0.4,0.2-0.5c0.2-0.1,0.2,0.2,0.3,0.2
			c0.1,0.1,0.2,0.2,0.3,0.4c0.1,0.1,0.3,0.3,0,0.4c-0.1,0.1-0.1,0.2-0.1,0.3C149.6,115.4,149.7,116.7,149.7,118z"/>
		<path class="st2" d="M145.5,122.1c-0.6,0-1.2,0-1.9,0c-0.2,0-0.4,0-0.4-0.3c0-0.2-0.2-0.2-0.3-0.3c-0.1,0-0.2,0.1-0.2,0.2
			c0.1,0.5-0.2,0.4-0.5,0.4c-5.1,0-10.2,0-15.3-0.1c-0.2,0-0.4,0-0.5,0.1c0.1,0.2,0.3,0.3,0.5,0.4c0.6,0.2,1.2,0.3,1.8,0.3h13.7
			c0.3,0,0.5,0,0.5,0.4c0,0.2,0.1,0.4,0.3,0.4c0.5-0.1,1-0.1,1.6-0.1c0.3,0,0.6,0,0.9,0.1c0.3,0.1,0.6,0,0.7-0.3
			c0-0.1,0.1-0.2,0-0.3C146.3,122.5,146,122.1,145.5,122.1z M145,123c-0.5,0-1,0-1.6,0c-0.1,0-0.2,0-0.2-0.1s0.2-0.1,0.3-0.1h0.7
			l0,0c0.3,0,0.6,0,0.8,0c0.1,0,0.2,0,0.2,0.2C145.2,123.1,145.1,123.1,145,123L145,123z"/>
	</g>
</g>
<title>Asset 18</title>
<path class="st0" d="M30.9,95.4c2-3.1,4.1-6.2,6.2-9.2c2.3-3.2,2.3-8.1-1.1-10.5c-3.1-2.3-8.1-2.3-10.5,1.1c-2.1,3-4.2,6.1-6.2,9.2
	c-2.1,3.3-2.4,8,1.1,10.6C23.4,98.7,28.7,98.9,30.9,95.4z"/>
<path class="st0" d="M53.5,66.6C109.2,9.3,201.1-1.5,268.4,42c24.4,15.7,44.5,37.3,58.4,62.8c1.9,3.6,5.5,5.9,9.7,4.3
	c3.4-1.3,6.2-6.1,4.3-9.7c-24.2-45.4-65.9-79-115.5-92.9c-41-11.2-84.7-8.1-123.7,8.9c-22.5,9.9-42.8,24.1-59.8,41.7
	C35.1,64.1,46.8,73.5,53.5,66.6z"/>
<path class="st0" d="M337.1,128.1c8.4,23.6,11.6,48.7,9.5,73.6c-0.8,9.6,14,11.9,14.8,2.2c2.4-27.5-1.1-55.1-10.3-81.1
	C347.9,113.6,333.9,119,337.1,128.1z"/>
<path class="st0" d="M178.8,372.2c61.9-1,121-33.5,154.2-86c11-17.4,19.1-36.4,24.1-56.3c2.4-9.4-12.5-11.5-14.8-2.2
	c-14.8,58.7-60.5,105.8-118.5,122.8c-15.1,4.3-30.8,6.6-46.5,6.8C167.5,357.5,169.2,372.4,178.8,372.2z"/>
<path class="st0" d="M128.7,366.2c3.9,1.1,7.9-2.6,8.5-6.3c0.7-4.4-2.4-7.5-6.3-8.5c-54.1-14.8-97.7-56.1-116.4-108.7
	c-3.2-9.1-17.2-3.8-14,5.3C21.1,306,69.4,349.9,128.7,366.2z"/>
<path class="st5" d="M252.1,168c0-14,1-28.3-2.9-41.9c-6.9-24-25-43.1-48.5-51.5c-15.9-5.7-33.1-4.3-49.7-4.3c-7.1,0-14.3,0-21.4,0
	c-10.1,0-19.5,4.6-25,13.3c-5.7,9.2-4.1,21.3-4.1,31.6v98.3c0,3.8,0,7.5,0,11.3c0,8.8,3.6,17.1,10.6,22.6c4.9,3.9,11,6,17.3,6.1
	c4.9,0.1,4.9-7.4,0-7.5c-11.2-0.1-20.3-9.2-20.4-20.4c0-2.4,0-4.8,0-7.2v-41.3c0-26.2-0.2-52.4,0-78.6c0.1-8.8,5.4-17,13.9-19.7
	c5.2-1.7,11.3-1,16.7-1c13.5,0,27.2-0.6,40.8,0.1c36.3,2.1,64.8,31.8,65.2,68.2c0.1,3.5,0,6.9,0,10.4v66.1c0,6.2-0.9,12.1-5.4,16.9
	c-3.9,4.1-9.3,6.5-15,6.5c-4.8,0.1-4.9,7.6,0,7.5c12.8-0.2,24.5-9.1,27.2-21.8c1-4.5,0.7-9.3,0.7-13.9L252.1,168z"/>
<path class="st5" d="M170.2,176.6v-10.8c0-4.8-7.5-4.9-7.5,0v10.8C162.6,181.4,170.2,181.4,170.2,176.6z"/>
<path class="st5" d="M205.6,270.9h-15.7v-81.1c0-4.8-7.5-4.9-7.5,0v84.9c0,2.1,1.7,3.7,3.8,3.8h12.4l-22.3,33.2L154,278.5h12.4
	c2.1,0,3.7-1.7,3.8-3.8v-84.9c0-4.8-7.5-4.9-7.5,0v81.1H147c-2.7,0-4.9,3.2-3.2,5.7l29.2,43.7c1.1,1.8,3.5,2.4,5.3,1.2
	c0.5-0.3,0.9-0.7,1.2-1.2c9.8-14.6,19.6-29.1,29.3-43.7C210.5,274.2,208.3,270.9,205.6,270.9z"/>
<path class="st5" d="M186.1,162.5c2.1,0,3.7-1.7,3.8-3.8V155c-0.1-2.1-1.9-3.7-4-3.6c-1.9,0.1-3.5,1.6-3.6,3.6v3.7
	C182.4,160.8,184.1,162.5,186.1,162.5z"/>
</svg>
