<svg xmlns="http://www.w3.org/2000/svg" viewBox="0 0 362.16 372.25"><defs><style>.cls-1{fill:#e4dfd1;}.cls-2{fill:#729799;}.cls-3{fill:#283371;}.cls-4{fill:#fff;}.cls-5{fill:#e73743;}</style></defs><title>Asset 18</title><g id="Layer_2" data-name="Layer 2"><g id="Layer_1-2" data-name="Layer 1"><path class="cls-1" d="M143,70.22h33.25a0,0,0,0,1,0,0v38.29a42.69,42.69,0,0,1-42.69,42.69H100.29a0,0,0,0,1,0,0V112.91A42.69,42.69,0,0,1,143,70.22Z"/><path class="cls-1" d="M30.92,95.38q3-4.68,6.19-9.17C39.4,83,39.37,78.15,36,75.66c-3.13-2.29-8.09-2.27-10.54,1.14q-3.22,4.5-6.2,9.17c-2.09,3.3-2.38,8,1.14,10.55C23.35,98.7,28.66,98.92,30.92,95.38Z"/><path class="cls-1" d="M53.47,66.63C109.23,9.3,201.1-1.54,268.4,42a172.63,172.63,0,0,1,58.38,62.85c1.93,3.59,5.53,5.86,9.68,4.34,3.42-1.27,6.25-6.12,4.34-9.68A188.69,188.69,0,0,0,225.33,6.63a186.52,186.52,0,0,0-123.72,8.89,189.42,189.42,0,0,0-59.82,41.7C35.06,64.14,46.79,73.5,53.47,66.63Z"/><path class="cls-1" d="M337.09,128.07a173.94,173.94,0,0,1,9.48,73.57c-.84,9.56,14,11.87,14.84,2.22a191.55,191.55,0,0,0-10.3-81.13C347.86,113.61,333.85,119,337.09,128.07Z"/><path class="cls-1" d="M178.77,372.25c61.9-1,121-33.51,154.16-85.95A193,193,0,0,0,357,230c2.36-9.35-12.49-11.53-14.84-2.23-14.79,58.73-60.52,105.8-118.52,122.77a175.24,175.24,0,0,1-46.48,6.78C167.5,357.49,169.18,372.4,178.77,372.25Z"/><path class="cls-1" d="M128.7,366.16c3.94,1.07,7.94-2.65,8.53-6.31.71-4.38-2.42-7.47-6.3-8.53C76.82,336.51,33.21,295.26,14.5,242.58c-3.24-9.12-17.25-3.75-14,5.34C21.12,306.05,69.36,349.91,128.7,366.16Z"/><path class="cls-2" d="M252.07,168c0-14,1-28.31-2.89-41.88A77.47,77.47,0,0,0,200.7,74.65C184.77,69,167.56,70.36,151,70.36c-7.14,0-14.29,0-21.43,0-10.14,0-19.53,4.57-25,13.35-5.65,9.17-4.09,21.28-4.09,31.61v98.32c0,3.77,0,7.53,0,11.3,0,8.8,3.6,17.11,10.6,22.62a28.39,28.39,0,0,0,17.3,6.05c4.85.09,4.85-7.44,0-7.53A20.61,20.61,0,0,1,108,225.7c0-2.39,0-4.78,0-7.17V177.21c0-26.18-.16-52.37,0-78.55.06-8.79,5.37-17,13.9-19.73,5.21-1.68,11.27-1,16.67-1,13.54,0,27.23-.61,40.75.11a69.11,69.11,0,0,1,65.2,68.16c.05,3.46,0,6.92,0,10.38v66.1c0,6.23-.92,12.11-5.41,16.9a20.68,20.68,0,0,1-15,6.54c-4.84.09-4.85,7.62,0,7.53,12.84-.22,24.5-9.06,27.23-21.82,1-4.54.67-9.32.67-13.94Z"/><path class="cls-2" d="M170.17,156.59V145.81c0-4.84-7.53-4.85-7.53,0v10.78C162.64,161.43,170.17,161.44,170.17,156.59Z"/><path class="cls-2" d="M205.6,250.93H189.91V169.81c0-4.84-7.53-4.85-7.53,0v84.88a3.83,3.83,0,0,0,3.77,3.77h12.4l-22.27,33.18L154,258.46h12.41a3.82,3.82,0,0,0,3.76-3.77V169.81c0-4.84-7.53-4.85-7.53,0v81.12H147c-2.72,0-4.88,3.25-3.25,5.66L173,300.29a3.83,3.83,0,0,0,6.51,0q14.66-21.85,29.33-43.7C210.48,254.18,208.32,250.93,205.6,250.93Z"/><path class="cls-2" d="M186.15,142.47a3.82,3.82,0,0,0,3.76-3.76V135a3.77,3.77,0,0,0-7.53,0v3.68A3.8,3.8,0,0,0,186.15,142.47Z"/><path class="cls-3" d="M131.47,90.11h0v46.76h0a15.59,15.59,0,0,1-15.59-15.58V105.7A15.59,15.59,0,0,1,131.47,90.11Z"/><rect class="cls-4" x="131.47" y="90.11" width="15.59" height="46.76"/><path class="cls-5" d="M147.05,90.11h0a15.59,15.59,0,0,1,15.59,15.59v15.59a15.59,15.59,0,0,1-15.59,15.58h0Z"/></g></g></svg>