<svg xmlns="http://www.w3.org/2000/svg" viewBox="0 0 362.16 372.25"><defs><style>.cls-1{fill:#e4dfd1;}.cls-2{fill:#729799;}.cls-3{fill:#006c35;}.cls-4{fill:#fff;}</style></defs><title>Asset 17</title><g id="Layer_2" data-name="Layer 2"><g id="Layer_1-2" data-name="Layer 1"><path class="cls-1" d="M143,70.22h33.25a0,0,0,0,1,0,0v38.29a42.69,42.69,0,0,1-42.69,42.69H100.29a0,0,0,0,1,0,0V112.91A42.69,42.69,0,0,1,143,70.22Z"/><path class="cls-1" d="M30.92,95.38q3-4.68,6.19-9.17C39.4,83,39.37,78.15,36,75.66c-3.13-2.29-8.09-2.27-10.54,1.14q-3.22,4.5-6.2,9.17c-2.09,3.3-2.38,8,1.14,10.55C23.35,98.7,28.66,98.92,30.92,95.38Z"/><path class="cls-1" d="M53.47,66.63C109.23,9.3,201.1-1.54,268.4,42a172.63,172.63,0,0,1,58.38,62.85c1.93,3.59,5.53,5.86,9.68,4.34,3.42-1.27,6.25-6.12,4.34-9.68A188.69,188.69,0,0,0,225.33,6.63a186.52,186.52,0,0,0-123.72,8.89,189.42,189.42,0,0,0-59.82,41.7C35.06,64.14,46.79,73.5,53.47,66.63Z"/><path class="cls-1" d="M337.09,128.07a173.94,173.94,0,0,1,9.48,73.57c-.84,9.56,14,11.87,14.84,2.22a191.55,191.55,0,0,0-10.3-81.13C347.86,113.61,333.85,119,337.09,128.07Z"/><path class="cls-1" d="M178.77,372.25c61.9-1,121-33.51,154.16-85.95A193,193,0,0,0,357,230c2.36-9.35-12.49-11.53-14.84-2.23-14.79,58.73-60.52,105.8-118.52,122.77a175.24,175.24,0,0,1-46.48,6.78C167.5,357.49,169.18,372.4,178.77,372.25Z"/><path class="cls-1" d="M128.7,366.16c3.94,1.07,7.94-2.65,8.53-6.31.71-4.38-2.42-7.47-6.3-8.53C76.82,336.51,33.21,295.26,14.5,242.58c-3.24-9.12-17.25-3.75-14,5.34C21.12,306.05,69.36,349.91,128.7,366.16Z"/><path class="cls-2" d="M252.07,168c0-14,1-28.31-2.89-41.88A77.47,77.47,0,0,0,200.7,74.65C184.77,69,167.56,70.36,151,70.36c-7.14,0-14.29,0-21.43,0-10.14,0-19.53,4.57-25,13.35-5.65,9.17-4.09,21.28-4.09,31.61v98.32c0,3.77,0,7.53,0,11.3,0,8.8,3.6,17.11,10.6,22.62a28.39,28.39,0,0,0,17.3,6.05c4.85.09,4.85-7.44,0-7.53A20.61,20.61,0,0,1,108,225.7c0-2.39,0-4.78,0-7.17V177.21c0-26.18-.16-52.37,0-78.55.06-8.79,5.37-17,13.9-19.73,5.21-1.68,11.27-1,16.67-1,13.54,0,27.23-.61,40.75.11a69.11,69.11,0,0,1,65.2,68.16c.05,3.46,0,6.92,0,10.38v66.1c0,6.23-.92,12.11-5.41,16.9a20.68,20.68,0,0,1-15,6.54c-4.84.09-4.85,7.62,0,7.53,12.84-.22,24.5-9.06,27.23-21.82,1-4.54.67-9.32.67-13.94Z"/><path class="cls-2" d="M170.17,156.59V145.81c0-4.84-7.53-4.85-7.53,0v10.78C162.64,161.43,170.17,161.44,170.17,156.59Z"/><path class="cls-2" d="M205.6,250.93H189.91V169.81c0-4.84-7.53-4.85-7.53,0v84.88a3.83,3.83,0,0,0,3.77,3.77h12.4l-22.27,33.18L154,258.46h12.41a3.82,3.82,0,0,0,3.76-3.77V169.81c0-4.84-7.53-4.85-7.53,0v81.12H147c-2.72,0-4.88,3.25-3.25,5.66L173,300.29a3.83,3.83,0,0,0,6.51,0q14.66-21.85,29.33-43.7C210.48,254.18,208.32,250.93,205.6,250.93Z"/><path class="cls-2" d="M186.15,142.47a3.82,3.82,0,0,0,3.76-3.76V135a3.77,3.77,0,0,0-7.53,0v3.68A3.8,3.8,0,0,0,186.15,142.47Z"/><path class="cls-3" d="M131.47,90.11h0v46.76h0a15.59,15.59,0,0,1-15.59-15.58V105.7A15.59,15.59,0,0,1,131.47,90.11Z"/><rect class="cls-3" x="131.47" y="90.11" width="15.59" height="46.76"/><path class="cls-3" d="M147.05,90.11h0a15.59,15.59,0,0,1,15.59,15.59v15.59a15.59,15.59,0,0,1-15.59,15.58h0Z"/><g id="dEwNzf.tif"><path class="cls-4" d="M119.33,115.92c-.38.08-.73,0-.81-.46a2.06,2.06,0,0,1,.59-2c0,.49-.07.83-.06,1.17s.07.56.46.32c.2-.12.33,0,.34.17A.66.66,0,0,1,119.33,115.92Z"/><path class="cls-4" d="M122.22,110.88c0,.17-.14.19-.25.24l-3,1.06a3.23,3.23,0,0,1,2.92-1.54C122.05,110.67,122.21,110.69,122.22,110.88Z"/><path class="cls-4" d="M120.51,106.06a.69.69,0,0,1-.13.46c-.12.14-.26.19-.28-.06a.88.88,0,0,0-.27-.57c-.12-.13-.3-.28-.11-.45a.42.42,0,0,1,.55,0A.65.65,0,0,1,120.51,106.06Z"/><path class="cls-4" d="M131.56,106.17c-.13,1-1,1.28-1.65,1.82-.42.38-.94.25-1.47.22.14-.35.44-.41.66-.55.42-.28.87-.53,1.3-.8.25-.16.39-.34.07-.59a.38.38,0,0,1,0-.65.73.73,0,0,1,.95-.09C131.68,105.68,131.59,105.9,131.56,106.17Z"/><path class="cls-4" d="M131.28,108.73a.67.67,0,0,1-.84.38.42.42,0,0,1-.37-.42.6.6,0,0,1,.29-.55c.13-.09.35-.12.32.08C130.63,108.67,130.89,108.73,131.28,108.73Z"/><path class="cls-4" d="M131.35,109.92a.41.41,0,0,0-.51.31c-.05.19-.22.34-.35.2-.5-.57-.84-.26-1.19.16a.39.39,0,0,1-.19.1,3.82,3.82,0,0,1-1.34-.81c-.14-.72-.26-1.44-.4-2.16,0-.18,0-.34.2-.37.38,0,.31-.28.2-.52a5.07,5.07,0,0,0-.57-1,.58.58,0,0,0-.74-.17c-.28.11-.31.33-.3.58s.13.38,0,.56a1.47,1.47,0,0,0-1-.51c-.25-.06-.19-.17-.17-.35s.08-.55-.39-.33a1.34,1.34,0,0,1-.79,0c-.39-.07-.36.15-.29.38.12.39.45.37.77.35s.48,0,.41.41a1.39,1.39,0,0,0,.38,1,3.73,3.73,0,0,1,.41.65c.13.31,0,.45-.34.43a1,1,0,0,1-.91-1,1.7,1.7,0,0,0-.51-1.28c-.22-.23-.41-.23-.58.05,0,.09-.06.23-.2.2s-.15-.15-.18-.26a2,2,0,0,0-.19-.62c-.12-.17-.26-.32-.49-.28s-.27.27-.26.48a3.38,3.38,0,0,0,.15,1.13,9,9,0,0,1,.28,1.39c0,.14,0,.3-.19.35s-.3-.11-.38-.25a.87.87,0,0,1,0-.48,4.53,4.53,0,0,0,0-.82c0-.26,0-.58-.39-.65a.73.73,0,0,0-.74.36,3.39,3.39,0,0,0-.48,1.22c-.07.23-.06.54-.34.56s-.3-.3-.41-.51c-.2-.39-.08-.91-.57-1.31a5.24,5.24,0,0,0,.06,2.06.88.88,0,0,0,1.07.72c.54-.11.56-.54.59-1a1.94,1.94,0,0,1,.09-.76c0-.11.11-.26.27-.22s.12.17.12.28,0,.47,0,.71c0,1,0,1.09,1.06,1.31a.5.5,0,0,1,.45.57c0,.56.07,1.13.13,1.69,0,.18,0,.47.22.5s.36-.23.46-.42,0-.25.09-.37a7.66,7.66,0,0,0,0-2.19c0-.5.2-.62.65-.42.12,0,.23.13.35.18a1.74,1.74,0,0,0,1.6-.29c.44-.26.33-.68.28-1.08a3.59,3.59,0,0,0-.21-.68c-.06-.16-.15-.38.13-.44s.25.14.28.3l.48,2.42c0,.26.24.55-.09.74s-.47-.09-.68-.24a1.34,1.34,0,0,0-1.76.09,1.2,1.2,0,0,0-.31,1.31c.16.48.64.4,1,.38a1,1,0,0,0,.47-.13c.12-.08.28-.17.39,0s0,.28-.1.4a3,3,0,0,1-1.75,1.06c-1.43.34-1.65.19-1.92-1.2,0-.19,0-.47-.28-.47s-.26.26-.34.44,0,.93-.69.81c0,0-.11.1-.14.16a1.9,1.9,0,0,0,1.25,2.68,5.63,5.63,0,0,0,3.39-.35c2-.78,2.45-1.48,2.47-3.6,0-.2,0-.34.27-.29a1.75,1.75,0,0,0,1.41-.26.48.48,0,0,1,.42,0c1,.28,1.44,0,1.51-1C131.49,110.23,131.58,110,131.35,109.92Zm-8-1.45c-.19.09-.25-.07-.32-.2a1.17,1.17,0,0,1-.06-.93l.38.8C123.42,108.25,123.53,108.38,123.37,108.47Zm3.72,3.73a3.1,3.1,0,0,1-2,2.61,4.6,4.6,0,0,1-2.54.24,1.17,1.17,0,0,1-1-1.53c1.08,1.86,4.1,1.21,5-.64.12-.24.18-.51.28-.77s.12-.31.28-.28S127.11,112.07,127.09,112.2Z"/><path class="cls-4" d="M129.79,113.43a1.32,1.32,0,0,0-.43-.93c-.1-.07-.18-.19-.05-.32s.23-.07.36,0C130.08,112.34,130.18,112.88,129.79,113.43Z"/><path class="cls-4" d="M133.59,106c.07.07,0,.18-.1.23a.38.38,0,0,1-.41,0,.33.33,0,0,1-.17-.38.94.94,0,0,1,.83-.73C133.52,105.47,133.29,105.7,133.59,106Z"/><path class="cls-4" d="M142.36,115.34a3.87,3.87,0,0,1-.67.21c-.25,0-.38,0-.46-.21a1.09,1.09,0,0,0-.1-.25c-.09-.13-.45,0-.36-.27s.32-.29.52-.38.36,0,.34.2c0,.51.26.46.6.38s.63-.27.71,0S142.56,115.24,142.36,115.34Z"/><path class="cls-4" d="M136.52,105.54c-.09.35-.07.79-.52.91-.18,0-.19-.16-.18-.33.11-.32,0-.8.46-.92C136.49,105.15,136.56,105.37,136.52,105.54Z"/><path class="cls-4" d="M138.33,110.37a1.6,1.6,0,0,1-.69.15,4.15,4.15,0,0,1-.48-.1.38.38,0,0,1-.23-.45c0-.23.2-.14.37-.16s.59.15.88,0c.13-.09.24,0,.28.16A.35.35,0,0,1,138.33,110.37Z"/><path class="cls-4" d="M142.63,112.13h-2.9a.65.65,0,0,1,.59-.37,2.52,2.52,0,0,0,1-.4,1.06,1.06,0,0,0,.53-1.3,1.33,1.33,0,0,0-1.51-.73,1,1,0,0,0-1,1c0,.62-.3.76-.83.82a4.09,4.09,0,0,0-2.22.86c-.39.32-.5.23-.56-.21a4.61,4.61,0,0,0-.79-2c-.17-.25-.34-.59-.73-.37a.56.56,0,0,0-.17.85c.21.39.4.78.58,1.18a1.88,1.88,0,0,1-.61,2.69,6.49,6.49,0,0,1-1.35.84,2,2,0,0,1-1,.15.42.42,0,0,1-.43-.29c-.05-.22.11-.32.29-.4a6.22,6.22,0,0,0,1.38-.88,1.89,1.89,0,0,0,.64-2.43c0-.08-.09-.21-.05-.26.41-.56-.12-.77-.42-1a.61.61,0,0,0-1,.1.68.68,0,0,0,.13,1c.18.18.39.34.55.53a.64.64,0,0,1-.08,1,7.44,7.44,0,0,1-1.36.93c-.12.08-.27.15-.34-.08s.06-.31-.12-.32-.28.17-.32.33c-.16.7-.72.94-1.31,1.18a15.26,15.26,0,0,0-1.54.71,2.61,2.61,0,0,0-1.07.71.69.69,0,0,0,.62,0c.81-.22,1.62-.44,2.43-.69a.44.44,0,0,1,.56.15,2,2,0,0,0,2.17.66,5.59,5.59,0,0,0,2.59-1.56c.23-.23.46-.38.73,0a3.4,3.4,0,0,0,1.83,1,5.92,5.92,0,0,0,1.78.29.39.39,0,0,0,.41-.3c.07-.23-.09-.32-.28-.39a3.46,3.46,0,0,1-.56-.23c-.18-.1-.44-.17-.41-.45s.23-.36.45-.43a3.87,3.87,0,0,1,.59-.13c.73,0,1.45-.15,2.18-.25.55-.08,1-.19,1.21-.82S143.26,112.13,142.63,112.13Zm-4.22,1.23c-.41.15-.77.3-.75.86,0,.22-.22.22-.38.14a2,2,0,0,1-1-.85c-.25-.46-.13-.69.39-.69.22,0,.44,0,.66.05v0c.36,0,.72.06,1.08.12.12,0,.27.07.27.23S138.51,113.33,138.41,113.36Z"/><path class="cls-4" d="M147.08,113.38c0,.05-.07.15-.11.15s-.22-.1-.3-.2l-1.42-2-.31-.39c-.09-.11-.19-.27-.33-.23s-.1.25-.09.39c0,.8.15,1.6.12,2.41a1.55,1.55,0,0,1-.47,1.13c-.12.12-.27.25-.43.19s-.12-.28-.12-.44a26.09,26.09,0,0,0-.23-4.92,1.37,1.37,0,0,0-.35-.78c-.73-.75-1.47-1.48-2.16-2.26-.31-.35-.52,0-.76,0s-.1.32-.06.49.11.31.16.47c.22.58.51.71,1.1.49.15,0,.31-.22.45,0s-.05.33-.14.47a1.25,1.25,0,0,1-.49.45c-.14.07-.3.1-.36-.09-.15-.49-.36-.29-.57-.06-.74.81-1.28.86-2.09.16-.33-.28-.6-.16-.88.06a1.76,1.76,0,0,1-1.45.5,1.09,1.09,0,0,1-1-1c0-.14,0-.29,0-.43s0-.28-.16-.32-.21.15-.26.27a7.18,7.18,0,0,1-.39.84.71.71,0,0,1-1,.27,2.23,2.23,0,0,1-.85-2.46c0-.09.09-.21.22-.21s.17.13.19.23c.12.4.22.81.33,1.21.06.2.17.4.38.42s.3-.21.38-.4a4,4,0,0,1,1-1.57c.2-.16.4-.33.68-.24s.3.39.31.65,0,.58,0,.87a.85.85,0,0,0,.86.94,1,1,0,0,0,.91-.87,2.1,2.1,0,0,0-.17-1.18,1.08,1.08,0,0,1-.11-.47.67.67,0,0,1,.47-.72c.34-.07.39.3.49.55a3.4,3.4,0,0,1,.14,1.14,2.27,2.27,0,0,0,.22,1.06.61.61,0,0,0,.82.34c.4-.1.35-.41.32-.71a1.82,1.82,0,0,0-.43-.81c-.33-.47-.36-1-.07-1.25s.74-.2,1.21.22c.08.06.13.18.27.16s.08-.16.08-.25c0-.51.31-.52.67-.33a7.6,7.6,0,0,1,1,.59c.25.18.35.13.48-.14.24-.49.36-.5.74-.1a7.59,7.59,0,0,1,.78.92.92.92,0,0,1,.1.79,2,2,0,0,0,.4,1.84,32.64,32.64,0,0,1,2.28,3A1.85,1.85,0,0,1,147.08,113.38Z"/><path class="cls-4" d="M145.39,107.19a1.24,1.24,0,0,0-.44-1.09c-.11-.11-.3-.28-.1-.46a.45.45,0,0,1,.56,0A1,1,0,0,1,145.39,107.19Z"/><path class="cls-4" d="M146,108.67a1.33,1.33,0,0,1-1,0,.41.41,0,0,1-.3-.46c.06-.26.25-.21.46-.09.19-.1.42,0,.65-.05s.31-.21.39.06A.41.41,0,0,1,146,108.67Z"/><path class="cls-4" d="M148.19,113.11a3.5,3.5,0,0,1-3.17,3,1.4,1.4,0,0,1-.38-.07c-.14-.07-.34-.13-.32-.33s.19-.2.33-.25a9.62,9.62,0,0,0,2.28-1.27,1,1,0,0,0,.44-.93c-.2-2.15-.43-4.29-.81-6.41a1.76,1.76,0,0,1,.21-1.15c.13-.26.33-.3.5,0s.43.71.63,1.08a.23.23,0,0,1-.1.37c-.34.15-.28.44-.21.7A19,19,0,0,1,148.19,113.11Z"/><path class="cls-4" d="M150.14,114.07c-.1.16-.21.4-.44.34s-.14-.31-.13-.48a23.66,23.66,0,0,0-1-6c-.1-.41-.19-.82-.27-1.13,0-.14,0-.18,0-.21.11-.38,0-.94.42-1.07s.41.46.66.69a2.35,2.35,0,0,1,.36.41c.16.22.46.44-.07.64-.22.08-.12.35-.07.54.33,1.4.56,2.83.76,4.25A2.8,2.8,0,0,1,150.14,114.07Z"/><path class="cls-4" d="M152.68,108.93c-.29.15-.23.47-.27.73s0,.39-.35.35a2.63,2.63,0,0,1-1.17-.86.34.34,0,0,1,.06-.46.41.41,0,0,1,.55,0c.25.18.42.21.47-.18a.41.41,0,0,1,.48-.35c.27,0,.4.22.5.46S152.84,108.84,152.68,108.93Z"/><path class="cls-4" d="M153.51,110.8a9.15,9.15,0,0,1-1.63.88,1.48,1.48,0,0,1-.28.09c-.13,0-.23,0-.27-.1a.25.25,0,0,1,0-.3,15.88,15.88,0,0,1,2.06-1.14.17.17,0,0,1,.23.09A.38.38,0,0,1,153.51,110.8Z"/><path class="cls-4" d="M153.81,112.4c0,.13-.07.29-.12.44s-.14.24-.28.21-.14-.16-.13-.26c.05-.38-.22-.65-.31-1s-.09-.38.13-.47a.39.39,0,0,1,.47.19A1.91,1.91,0,0,1,153.81,112.4Z"/><path class="cls-4" d="M158.94,114.23a10.24,10.24,0,0,1-1.09-1.28c-.09-.11-.16-.3-.32-.25s-.13.25-.13.38a1.28,1.28,0,0,1-.44,1c-.12.12-.24.28-.42.2s-.1-.25-.11-.39c0-.69-.09-1.39-.08-2.08a1.84,1.84,0,0,0-.77-1.39c-.22-.19-.32-.11-.32.16,0,.46,0,.92,0,1.37s0,1.14,0,1.7a1.48,1.48,0,0,1-1.85,1.29,3,3,0,0,1-1-.51c-.47-.34-.72-.28-1,.27-.13.28-.2.59-.33.86a.87.87,0,0,1-1.27.45,1.81,1.81,0,0,1-1.18-2c0-.21.06-.4.31-.51.19.36.07.79.31,1.14s.36.52.71.53.5-.25.65-.51a5.78,5.78,0,0,1,.88-1.31c.46-.45.76-.44,1.21,0,.29.29.52.76,1,.6s.58-.73.57-1.15c0-1.27-.16-2.54-.27-3.82a.89.89,0,0,0-.36-.54l-1.4-1.31a1.49,1.49,0,0,1-.46-.6c-.09-.35-.2-.79.1-1s.51.17.75.3a1.13,1.13,0,0,1,.18.12c.29.21.64.73.66-.18,0-.36.41-.45.64-.17s.56.76.83,1.15a.29.29,0,0,1,0,.31,1.55,1.55,0,0,0,.63,2.21c.06,0,.1.11.19.08s.09-.15.08-.23c-.1-.5-.19-1-.3-1.51s-.22-.81-.31-1.21a.74.74,0,0,1,.16-.81c.26-.21.5-.26.7,0s.46.74.71,1.15c.24-.25.5-.48.81-.08a1.32,1.32,0,0,1,.11,1.39c-.14.13-.23.07-.25-.1a1.43,1.43,0,0,0-.07-.43c-.09-.21-.19-.55-.44-.44s-.55.27-.45.66c.27,1,.51,2.09.68,3.16,0,.16.18.3.3.44.3.34.59.7.92,1A1.82,1.82,0,0,1,158.94,114.23Z"/><path class="cls-4" d="M160.05,113.54a2.36,2.36,0,0,1-2.41,2.61c-.45,0-1,.35-1.35-.24,0-.06-.4.07-.61.11s-.3.09-.4-.07.07-.22.16-.3.3-.25.06-.44-.24-.18-.12-.31.31-.08.47-.07.27,0,.32.21a.66.66,0,0,0,.92.52,3.37,3.37,0,0,0,1.68-1c.09-.1.25-.17.18-.35a1,1,0,0,0,.23-.74,40.32,40.32,0,0,0-.51-4.52c-.13-.83-.29-1.65-.43-2.48a1.15,1.15,0,0,1,0-.32c.05-.27,0-.6.33-.71s.37.23.53.38a4,4,0,0,1,.52.56c.16.2.43.41,0,.6-.2.08-.13.32-.08.49A21.9,21.9,0,0,1,160.05,113.54Z"/><path class="cls-4" d="M153.67,119.79a27.09,27.09,0,0,1-2.85,0c-.29,0-.59.06-.6-.41,0-.27-.31-.34-.52-.41s-.38.12-.36.26c.09.69-.38.55-.75.55-7.8,0-15.6-.07-23.4-.19a1.34,1.34,0,0,0-.8.09,1.92,1.92,0,0,0,.79.57,6.67,6.67,0,0,0,2.69.43h20.87c.39,0,.72,0,.7.54,0,.28.17.68.53.54a8,8,0,0,1,2.39-.13,2.79,2.79,0,0,1,1.44.19.79.79,0,0,0,1.11-.8C154.87,120.32,154.47,119.71,153.67,119.79Zm-.72,1.37a13.4,13.4,0,0,0-2.37,0c-.15,0-.38,0-.37-.21s.23-.2.39-.2h1.1v0c.42,0,.84,0,1.26,0,.14,0,.32,0,.3.23S153.07,121.19,153,121.16Z"/></g></g></g></svg>