<svg xmlns="http://www.w3.org/2000/svg" viewBox="0 0 372.29 372.03"><defs><style>.cls-1{fill:#729799;}.cls-2{fill:#e4dfd1;}</style></defs><title>Asset 7</title><g id="Layer_2" data-name="Layer 2"><g id="Layer_1-2" data-name="Layer 1"><g id="_4iDv9d.tif" data-name="4iDv9d.tif"><path class="cls-1" d="M102.74,177.18q0-25.55,0-51.07c0-4.64,1.37-6,6.09-6q29.51,0,59,0a21.65,21.65,0,0,1,16.86,7.22c1.22,1.34,1.77,1.18,2.9,0a21.77,21.77,0,0,1,16.88-7.17c19.68,0,39.35,0,59,0,4.66,0,6,1.37,6,6q0,50.93,0,101.86c0,4.88-1.29,6.19-6.14,6.19H205.19c-9,0-14,4.58-14.72,13.44a4.33,4.33,0,0,1-8.66-.06c-.69-8.67-5.78-13.38-14.51-13.38H108.82c-4.71,0-6.08-1.34-6.08-6Q102.73,202.71,102.74,177.18Zm79,52.75c.06-1.09.1-1.54.1-2q0-42.94,0-85.89c0-7.58-5.83-13.23-13.51-13.25-18,0-36,0-54.06-.06-2.28,0-2.88.58-2.87,2.87q.12,45.54,0,91.1c0,2.24.5,2.92,2.84,2.9,16.18-.11,32.38,0,48.57-.09C169.3,225.48,175.75,225.52,181.7,229.93Zm8.77.1c6.13-4.6,12.69-4.54,19.32-4.5,16.1.09,32.2,0,48.29.08,2.32,0,2.85-.63,2.85-2.89q-.12-45.54,0-91.1c0-2.27-.55-2.89-2.85-2.88-17.66.1-35.31,0-53,.06-9.31,0-14.64,5.32-14.65,14.61V230Z"/><path class="cls-1" d="M85.16,190.25V135.07c0-.55,0-1.1,0-1.65.17-2.62,1.91-4.45,4.26-4.5a4.4,4.4,0,0,1,4.39,4.36c.06.92,0,1.83,0,2.75,0,34.59,0,69.19-.07,103.78,0,2.87.81,3.39,3.48,3.38,23.06-.11,46.13-.06,69.19-.06a14.72,14.72,0,0,1,2.74.08,4.21,4.21,0,0,1,3.7,4.14,4.3,4.3,0,0,1-3.75,4.38,14.53,14.53,0,0,1-2.19.06q-37.89,0-75.78,0c-4.64,0-6-1.36-6-6.08Q85.16,218,85.16,190.25Z"/><path class="cls-1" d="M287.12,190.53v55.18c0,4.72-1.34,6.08-6,6.08q-37.75,0-75.51,0a16.81,16.81,0,0,1-2.46-.06,4.29,4.29,0,0,1-3.76-4.37,4.22,4.22,0,0,1,3.7-4.15,14.72,14.72,0,0,1,2.74-.08c23.06,0,46.12,0,69.19.06,2.65,0,3.5-.49,3.49-3.37-.12-34.78-.08-69.56-.08-104.33,0-.74,0-1.47,0-2.2a4.39,4.39,0,0,1,4.38-4.36,4.33,4.33,0,0,1,4.24,4.49c.09,3.38,0,6.77,0,10.16Z"/><path class="cls-1" d="M146.33,172.72H125.77c-3.44,0-5.5-1.69-5.45-4.4s2.05-4.25,5.31-4.26h42c3.27,0,5.27,1.65,5.31,4.26s-2,4.39-5.45,4.4C160.4,172.74,153.37,172.72,146.33,172.72Z"/><path class="cls-1" d="M146.89,181.63h20.57c3.42,0,5.48,1.71,5.43,4.41s-2,4.24-5.32,4.25q-21,0-41.95,0c-3.26,0-5.26-1.66-5.3-4.27s2-4.38,5.46-4.39Z"/><path class="cls-1" d="M159.57,207.86c-2.74,0-5.48.06-8.22,0s-4.68-1.89-4.67-4.33,1.9-4.27,4.69-4.3c5.66-.06,11.32-.07,17,0a4.32,4.32,0,0,1,4.54,4.17,4.37,4.37,0,0,1-4.56,4.44C165.41,207.93,162.49,207.86,159.57,207.86Z"/><path class="cls-1" d="M137.72,155.14c-1.46,0-2.93.08-4.38,0a4.3,4.3,0,0,1,.07-8.6c2.91-.11,5.84-.11,8.75,0a4.29,4.29,0,0,1,4.37,4.33,4.37,4.37,0,0,1-4.44,4.28C140.64,155.21,139.18,155.15,137.72,155.14Z"/><path class="cls-1" d="M163.94,155.13c-1.46,0-2.92.1-4.37,0a4.29,4.29,0,0,1,.05-8.58c3-.13,6-.12,9,0a4.28,4.28,0,0,1,4.24,4.18,4.34,4.34,0,0,1-4.3,4.41c-1.54.1-3.1,0-4.65,0Z"/><path class="cls-1" d="M128.78,207.86c-1.37,0-2.74.07-4.1,0a4.35,4.35,0,0,1-4.36-4.35,4.27,4.27,0,0,1,4.18-4.24q4.52-.19,9,0a4.29,4.29,0,0,1,4.22,4.2,4.35,4.35,0,0,1-4.32,4.4C131.89,207.94,130.33,207.86,128.78,207.86Z"/><path class="cls-1" d="M226,146.48c6.85,0,13.71,0,20.56,0,3.43,0,5.49,1.71,5.43,4.41s-2.05,4.24-5.32,4.25H205c-3.5,0-5.53-1.59-5.57-4.28s2-4.38,5.46-4.38C211.89,146.47,218.93,146.48,226,146.48Z"/><path class="cls-1" d="M225.39,172.72H204.83c-3.45,0-5.49-1.69-5.44-4.41s2.05-4.24,5.32-4.25h41.95c3.28,0,5.26,1.64,5.3,4.27s-2,4.38-5.46,4.39Z"/><path class="cls-1" d="M225.9,199.2c6.86,0,13.71,0,20.57,0,3.46,0,5.5,1.65,5.49,4.34s-2.06,4.31-5.54,4.31q-21,0-41.94,0c-3.06,0-5-1.68-5.09-4.2s2-4.38,5.13-4.45H225.9Z"/><path class="cls-1" d="M212.52,190.29c-2.83,0-5.66.06-8.49,0s-4.67-1.92-4.64-4.37,1.92-4.23,4.73-4.26q8.35-.09,16.71,0c2.83,0,4.72,1.77,4.77,4.22s-1.9,4.36-4.86,4.41C218,190.33,215.26,190.29,212.52,190.29Z"/><path class="cls-1" d="M243.17,190.27a42.4,42.4,0,0,1-4.65,0,4.29,4.29,0,0,1,0-8.55c3.1-.16,6.21-.15,9.3,0A4.26,4.26,0,0,1,252,186a4.38,4.38,0,0,1-4.14,4.3c-.81.08-1.64,0-2.46,0h-2.19Z"/></g><path class="cls-2" d="M364.79,178.46a7.64,7.64,0,0,0-7.5,7.5c0,3.69-.12,7.38-.33,11.06-.23,3.93,3.61,7.68,7.5,7.5A7.67,7.67,0,0,0,372,197c.21-3.68.33-7.37.33-11.06C372.3,182,368.84,178.28,364.79,178.46Z"/><path class="cls-2" d="M353.86,220.32a173.61,173.61,0,0,1-60.56,99.15C262,344.85,221.86,358,181.69,357.05a171.77,171.77,0,0,1-80.19-22.3c-8.41-4.75-16,8.2-7.57,12.95,43.63,24.63,96.27,31.07,144.43,17a188,188,0,0,0,101.39-73.58,185.43,185.43,0,0,0,28.58-66.8C370.31,214.89,355.85,210.86,353.86,220.32Z"/><path class="cls-2" d="M81.89,321.78A177.83,177.83,0,0,1,33.36,263.2c-4.42-8.58-17.37-1-12.95,7.57a187.88,187.88,0,0,0,50.87,61.61c3.21,2.52,7.47,3.08,10.61,0C84.52,329.81,85.07,324.27,81.89,321.78Z"/><path class="cls-2" d="M23.87,240.53C5,183.05,17.31,118.57,57.5,73.06A174.68,174.68,0,0,1,92.87,42.43c8-5.26.54-18.25-7.57-12.95C33.84,63.15,1.37,120.4,0,182A188.37,188.37,0,0,0,9.4,244.51C12.4,253.65,26.89,249.74,23.87,240.53Z"/><path class="cls-2" d="M135,22.58c53.48-16.34,112.63-6,156.74,28.63,3.21,2.52,7.47,3.07,10.61,0,2.63-2.57,3.17-8.11,0-10.6C254,2.6,190.05-9.91,131,8.11,121.82,10.93,125.75,25.41,135,22.58Z"/></g></g></svg>