<svg xmlns="http://www.w3.org/2000/svg" viewBox="0 0 371.95 372.08"><defs><style>.cls-1{fill:#e4dfd1;}.cls-2{fill:#729799;}</style></defs><title>Asset 9</title><g id="Layer_2" data-name="Layer 2"><g id="Layer_1-2" data-name="Layer 1"><path class="cls-1" d="M343.48,119.11c0,.06.63,1.52.72,1.72.64,1.58,1.25,3.17,1.86,4.77,1.37,3.66,5.12,6.56,9.22,5.24,3.58-1.16,6.72-5.3,5.24-9.23s-3.19-8.07-4.94-12c-1.6-3.6-7.12-4.71-10.26-2.69-3.73,2.41-4.4,6.41-2.7,10.27C342.91,117.8,343.2,118.45,343.48,119.11Z"/><path class="cls-1" d="M353.26,150.07a171.33,171.33,0,0,1-100.32,193.4,173.56,173.56,0,0,1-84.78,12.78c-9.61-.92-9.54,14.09,0,15a186,186,0,0,0,201-153,189.68,189.68,0,0,0-1.45-72.21C365.71,136.65,351.24,140.64,353.26,150.07Z"/><path class="cls-1" d="M145.09,352.18A174.36,174.36,0,0,1,78.57,319.4c-3.18-2.56-7.48-3.06-10.6,0-2.66,2.59-3.16,8.07,0,10.6a191.55,191.55,0,0,0,73.13,36.65C150.47,369,154.46,354.55,145.09,352.18Z"/><path class="cls-1" d="M22.13,136.13a175.35,175.35,0,0,1,20.57-44C48,84,35,76.45,29.75,84.54A186.5,186.5,0,0,0,48.66,311.81c6.49,7.17,17.07-3.46,10.61-10.6C19.06,256.79,4.72,193.47,22.13,136.13Z"/><path class="cls-1" d="M73.3,57a172.85,172.85,0,0,1,155-36.81c9.36,2.37,13.36-12.1,4-14.46A188.63,188.63,0,0,0,62.69,46.34C55.39,52.68,66,63.25,73.3,57Z"/><g id="bNxQkJ.tif"><path class="cls-2" d="M185.86,273.92q-31.58,0-63.17,0a14.09,14.09,0,0,1-13.86-14.07,14.49,14.49,0,0,1,2.47-7.48q22.59-36.24,45.17-72.5a27.68,27.68,0,0,0,4.3-14.92q0-22.44,0-44.9a2,2,0,0,0-1.2-2,8,8,0,0,1-4.68-7.63c0-2.12-.32-4.26.33-6.35a8.17,8.17,0,0,1,8.06-6q12.39,0,24.79,0c6.74,0,13.48.08,20.22,0a8.46,8.46,0,0,1,8.73,8.78c-.13,2.12.29,4.26-.37,6.36a7.75,7.75,0,0,1-4.28,4.92,1.88,1.88,0,0,0-1.24,2c0,15.31,0,30.62,0,45.93,0,5.32,1.87,10.09,4.67,14.58,14.86,23.79,29.64,47.64,44.56,71.4,4.26,6.78,2.7,14.27-2.29,18.61a13.45,13.45,0,0,1-9.1,3.37q-14.5,0-29,0H185.86Zm-.17-9.3h62.49a5.64,5.64,0,0,0,2.77-.51c2.64-1.4,3.23-4.12,1.51-6.89Q230.05,221,207.64,184.89c-3.4-5.47-5.6-11.36-5.64-17.82-.11-17.41,0-34.81-.1-52.21,0-2.85,2-5.22,4.74-5.14,1.24,0,1.13-.79,1.17-1.62s-.52-1-1.24-1H165.44c-.75,0-1.36,0-1.32,1.06,0,.86,0,1.53,1.21,1.6,3,.17,4.67,2,4.67,5,0,16.87,0,33.74,0,50.61a35.78,35.78,0,0,1-5.61,19.35q-19.1,30.5-38.21,61c-2.4,3.84-4.81,7.67-7.17,11.52-2.22,3.63-.24,7.3,4,7.39.53,0,1.07,0,1.6,0Z"/><path class="cls-2" d="M201.87,189.66a2.88,2.88,0,0,1,2.46,1.55q9.91,15.93,19.88,31.83,3.72,5.94,7.43,11.89a5.35,5.35,0,0,1,.59,1.23,2.23,2.23,0,0,1-1.13,2.69,2.41,2.41,0,0,1-3-.92c-2.87-4.58-5.72-9.15-8.6-13.72q-9.44-15-18.88-30c-.67-1.07-1.38-2.13-.55-3.47A2.11,2.11,0,0,1,201.87,189.66Z"/><path class="cls-2" d="M232.12,247.92a5.08,5.08,0,1,1,10.15.08,5.08,5.08,0,1,1-10.15-.08Z"/></g></g></g></svg>