<svg xmlns="http://www.w3.org/2000/svg" viewBox="0 0 372.39 364.37"><defs><style>.cls-1{fill:#729799;}.cls-2{fill:#e4dfd1;}</style></defs><title>Asset 10</title><g id="Layer_2" data-name="Layer 2"><g id="Layer_1-2" data-name="Layer 1"><path class="cls-1" d="M276.26,259.65H258.51V163.49c0-4.68.19-9.41,0-14.09v-.2c0-2.62-3.29-3.22-4.65-1.26L243,163.53l-17.33,25-2.11,3L204.09,171l-3-3.18a2.54,2.54,0,0,0-3.93.51q-6.06,8.1-12.11,16.19L165.9,210.09q-1.29,1.74-2.59,3.46L144.2,195.1l-3-2.9a2.55,2.55,0,0,0-3.54,0l-13.38,13.58L103,227.39l-.63.64V218.5l38.17-38.18L158.21,198c3,3,7.15,1.83,9.42-1.21l32.68-43.94,15.84,22.22c2.6,3.65,7.85,4.07,10.36,0q13.14-21.24,26.27-42.5l9.73,6.94c4,2.84,8.76-1.06,9-5.18q1-16,2.08-32c.33-5-5.23-6.83-9-5.18l-27,11.7c-3.56,1.54-3.75,7-1.21,9.42l7,6.68L221,161.23,205.6,139.69c-2.78-3.9-7.56-3.77-10.36,0l-33.43,44.94-17-17a6.1,6.1,0,0,0-8.49,0l-33.93,33.94v-111c0-7.72-12-7.73-12,0v125c0,.1,0,.2,0,.31v49.79a6.08,6.08,0,0,0,6,6H276.26C284,271.65,284,259.65,276.26,259.65Zm-22.75,0H102.35V235.16L115,222.28l21.3-21.62,3.14-3.18,19.36,18.7,3,2.89a2.55,2.55,0,0,0,3.93-.5l12.11-16.2L197,176.76l2.5-3.35,19.58,20.67,3,3.18a2.54,2.54,0,0,0,3.93-.51l10.82-15.59,16.65-24Z"/><path class="cls-2" d="M237,14.75q5.28,1.65,10.46,3.59c3.68,1.38,8.39-1.53,9.23-5.24,1-4.26-1.3-7.75-5.24-9.23Q246.26,1.94,241,.29a7.56,7.56,0,0,0-9.22,5.23A7.65,7.65,0,0,0,237,14.75Z"/><path class="cls-2" d="M276.39,15.32c-8.44-4.7-16,8.25-7.57,13,35.35,19.67,63.34,51.49,77.54,89.49A171.22,171.22,0,0,1,303.1,303.24c-7,6.64,3.59,17.23,10.61,10.6a188.1,188.1,0,0,0,58.54-128.79C374,141.2,359.45,97.73,332.53,63.2A185.79,185.79,0,0,0,276.39,15.32Z"/><path class="cls-2" d="M284.86,318.08a177.91,177.91,0,0,1-70.3,29c-9.49,1.69-5.47,16.15,4,14.46A188,188,0,0,0,292.43,331C300.32,325.57,292.83,312.57,284.86,318.08Z"/><path class="cls-2" d="M190.15,349.34c-60.94,1-118.88-30.35-150.43-82.62a174.28,174.28,0,0,1-18.28-42.11c-2.65-9.26-17.13-5.32-14.46,4A186.43,186.43,0,0,0,190.15,364.34C199.8,364.18,199.83,349.18,190.15,349.34Z"/><path class="cls-2" d="M15,178.54c.19-56,27.77-109.31,73.94-141.21,7.89-5.45.4-18.46-7.57-12.95A188.44,188.44,0,0,0,0,178.54C0,188.2,15,188.21,15,178.54Z"/></g></g></svg>