<svg xmlns="http://www.w3.org/2000/svg" viewBox="0 0 372.04 372.25"><defs><style>.cls-1{fill:#729799;}.cls-2{fill:#e4dfd1;}</style></defs><title>Asset 11</title><g id="Layer_2" data-name="Layer 2"><g id="Layer_1-2" data-name="Layer 1"><path class="cls-1" d="M284.32,257.79q-.06-35.52,0-71V167.86a3.81,3.81,0,0,0,0-.59c-.11-4-1.14-6.4-5.19-7.94-4.88-1.85-9.87-3.48-14.8-5.21l-29.53-10.39q-14.42-5.07-28.81-10.15-6.83-2.42-13.61-4.88a18.72,18.72,0,0,0-6-1.57c-2.58,0-5.07,1.18-7.46,2q-29.35,10.41-58.74,20.76L105.72,155c-4.41,1.56-9.81,2.65-13.86,5-3.68,2.15-3.77,5.89-3.77,9.69q0,8,0,16,0,30.57,0,61.13c0,4.95-.32,10,0,15a8.09,8.09,0,0,0,5.8,7.82c9.62,3.44,19.74,5.83,29.53,8.76l29,8.68c9.55,2.86,19.58,5.14,28.89,8.69,2.45.93,4.67,1.92,7.39,1.22,1.93-.49,3.74-1.73,5.69-2.33,2.42-.75,4.88-1.37,7.3-2.11q14.79-4.53,29.6-8.93,16.55-4.94,33.09-9.83c5.14-1.51,11.33-2.4,16.08-4.88C284.78,266.63,284.33,262,284.32,257.79ZM97,167.28c.1-.34.3-.27,0,0Zm144.46,104q-13.15,3.93-26.32,7.86c-8.26,2.48-16.76,4.62-24.88,7.5-.5.17-3.59,1.33-3.61,1.6l-.3,0-.23-.18c-1.35-1-3.59-1.21-5.19-1.7l-8.25-2.48q-13.06-3.94-26.15-7.86l-26.24-7.85-12.44-3.7-6.23-1.82a17.57,17.57,0,0,0-3.47-1L97,261.27c-.54-1.79.05-4.6.06-6.45,0-2.17,0-4.35,0-6.53,0-4.84,0-9.68,0-14.53q0-13.83,0-27.65V190.48l18-4.89c5.52-1.5,3.18-10.11-2.37-8.6L97,181.24c0-.94,0-1.88,0-2.82,0-2.18,0-4.37,0-6.55a17.12,17.12,0,0,0,0-3.65,2.22,2.22,0,0,1-.06-.81c3.85-1.86,8.47-2.89,12.47-4.31l52.4-18.5,15.2-5.38c2.3-.82,4.6-1.68,6.91-2.45,2.78-.93,3.9-.24,6.68.77,9.76,3.55,19.57,7,29.37,10.43l28.85,10.15,15.11,5.32,6.86,2.42,3.44,1.21,1,.36a4,4,0,0,0,.06.43,3.91,3.91,0,0,0,0,.49v12.58l-9.92-2.66c-5.55-1.49-7.92,7.11-2.37,8.6l12.29,3.3q0,26.4,0,52.82,0,7,0,14.06a17.59,17.59,0,0,0,0,3.7v.42c-2.36.44-4.81,1.49-7.06,2.14Q254.88,267.26,241.42,271.27Z"/><path class="cls-1" d="M90.77,148.83c2.68,1.62,5.63,0,8.16-1.07q11.5-4.87,23-9.8,22.39-9.57,44.77-19.13L178,114c1.78-.76,3.56-1.54,5.34-2.29,2.62-1.1,3.39-1,6,.11q11.4,4.89,22.81,9.74,22.55,9.6,45.06,19.27L268,145.41c3.1,1.32,6.43,3.35,9.75,4,7.71,1.56,6.47-8.18,6.47-12.77,0-3.08.63-6.49-1.05-9.28s-5.4-4.24-8.27-5.76l-22.07-11.7q-21.75-11.53-43.47-23.13c-3.4-1.81-6.78-3.66-10.21-5.43s-6.62-4.12-10-5.72-6.14.39-9.09,2.07c-3.52,2-7.13,3.85-10.73,5.72-16.45,8.55-32.73,17.44-49.1,26.14L96.16,122.35c-3.14,1.66-6.65,3.22-7.75,6.93-1.17,4-.29,9.24-.3,13.37C88.16,145,88.56,147.49,90.77,148.83Zm184.3-5.09c-.19.2-.31.25,0,0ZM97,132.32c.61-1.44,6.26-3.64,8.24-4.69l19.52-10.36q19.19-10.22,38.36-20.45c6-3.18,12-6.25,17.93-9.45a40.87,40.87,0,0,0,4.71-2.64,1.8,1.8,0,0,1,.48-.24,4.76,4.76,0,0,1,.54.31c2.53,2.09,6.14,3.33,9,4.85,12.79,6.71,25.5,13.6,38.26,20.38s25.53,13.56,38.3,20.32c.95.5,2.84,1.4,3.06,1.88.48,1.06-.11,4.05-.1,5.17,0,.38-.05.91-.1,1.49-5.86-2.46-11.68-5-17.51-7.51q-19.84-8.5-39.68-17-10.07-4.29-20.13-8.58c-2.94-1.26-5.93-2.91-9-3.79s-5.8.15-8.66,1.38q-22.36,9.57-44.72,19.14L113.37,132l-10.82,4.62L97.05,139c0-.49,0-1,0-1.47C97.07,136.3,96.51,133.44,97,132.32Z"/><path class="cls-1" d="M145.77,168l-13.63,3.7c-5.53,1.51-3.18,10.11,2.37,8.6l13.63-3.71C153.67,175.08,151.33,166.48,145.77,168Z"/><path class="cls-1" d="M207.4,162.69c-6.57-1.76-13.28-4.25-20-5.36-3.18-.53-7,1.24-10,2.06l-10.48,2.85c-5.53,1.51-3.18,10.11,2.37,8.6l9.77-2.66,6-1.63c.22-.06.58-.12.94-.19.95.31,2.31.44,3,.62l6.75,1.81,9.3,2.5C210.57,172.78,212.94,164.18,207.4,162.69Z"/><path class="cls-1" d="M250.9,174.37l-22-5.9c-5.54-1.49-7.91,7.11-2.37,8.6l22,5.9C254.08,184.45,256.45,175.86,250.9,174.37Z"/><path class="cls-2" d="M182,357.25q-5.53-.13-11-.59c-3.92-.32-7.67,3.68-7.5,7.5.19,4.34,3.3,7.16,7.5,7.5q5.52.45,11,.59a7.57,7.57,0,0,0,7.5-7.5A7.65,7.65,0,0,0,182,357.25Z"/><path class="cls-2" d="M147.75,353A171.24,171.24,0,0,1,39.33,98c5-8.32-8-15.87-12.95-7.57a188.17,188.17,0,0,0-20.13,144c11.09,41.4,36.72,77.87,71.36,103a185,185,0,0,0,66.15,30C153.15,369.66,157.16,355.2,147.75,353Z"/><path class="cls-2" d="M52.78,78.71a177.72,177.72,0,0,1,59.69-47.15c8.68-4.23,1.08-17.17-7.57-12.95A188,188,0,0,0,42.18,68.1c-2.59,3.15-3,7.51,0,10.61C44.8,81.39,50.22,81.83,52.78,78.71Z"/><path class="cls-2" d="M344.72,88.73C312.35,36.71,256.09,3.18,194.79.21a188.13,188.13,0,0,0-63.4,8c-9.22,2.79-5.29,17.28,4,14.47C193.45,5,257.7,19.09,302.28,60.49a174.93,174.93,0,0,1,29.49,35.82C336.86,104.48,349.84,97,344.72,88.73Z"/><path class="cls-2" d="M350.62,138.91c15.13,53.89,3.29,112.71-32.36,156-2.59,3.15-3,7.51,0,10.6,2.63,2.68,8,3.12,10.61,0a188.49,188.49,0,0,0,36.21-170.6C362.48,125.64,348,129.58,350.62,138.91Z"/></g></g></svg>