<svg xmlns="http://www.w3.org/2000/svg" viewBox="0 0 371.9 372.07"><defs><style>.cls-1{fill:#729799;}.cls-2{fill:#e4dfd1;}</style></defs><title>Asset 6</title><g id="Layer_2" data-name="Layer 2"><g id="Layer_1-2" data-name="Layer 1"><path class="cls-1" d="M177.44,231.39c0-6.87,2.76-20.86-6.3-23.38-4.39-1.22-9.51,1.2-13.66,2.36l-16.95,4.74-33.9,9.5L98.16,227c-1.63.45-6.57.89-7.82,2.16-.83.85,1.17,2.22,1.77,1.46.18-.24-.08-2.06,0-2.54a6.26,6.26,0,0,1,1.71-3.1c3.66-4,9.23-6.93,13.59-10.1l14.2-10.36q14.19-10.35,28.39-20.69,7.09-5.16,14.2-10.29c3.84-2.77,8.2-5.27,10.46-9.62s1.77-9.88,1.88-14.73q.19-8.7.4-17.38t.41-17.35c.13-5.26-.09-11,1.94-16,1.24-3,4.15-7.3,8-6,4.06,1.38,5.94,7,6.49,10.83,1.67,11.4,1,23.56,1.16,35.05.12,9-2,21.81,4.57,29,3.57,3.91,8.73,6.74,13,9.83q7.22,5.22,14.41,10.46l28.79,20.94,13.6,9.89c3.39,2.47,9.7,5.36,10.49,10,.07.4-.25,2.19,0,2.56l-.19.65,2.86-2.27c-.29-.67-6.49-1.83-7.26-2l-18-5q-18.8-5.28-37.58-10.55c-8.2-2.28-23.19-9-25,4.41-.82,6.07-.39,12.52-.5,18.65-.1,5.78-1.12,11.63,2.33,16.61s7.56,9.7,11.34,14.48,7.66,8.5,5.19,14.85l2.76-3.58c2.94-1.51-.24-1.74-1.83-2.55s-3.3-1.7-4.94-2.57c-2.86-1.52-5.66-3.32-8.65-4.56-5.08-2.11-12-2-14.79,3.54a13.66,13.66,0,0,0-1.13,4.31c-.14.76-1.49,4.76-1.37,5.32q7.28,2.73,5.63-.78a12.15,12.15,0,0,1-.65-2.23c-.34-1.41-.39-2.9-.76-4.3-1.42-5.39-6.08-7.83-11.39-7.06-6.46.94-12.58,5.63-18.27,8.61l-1.69.88q-4.66,1.5,2.53,3.15c.42-.45,0-3.74.15-4.47.73-3.22,3-5.46,5.08-7.91,4.16-5,8.79-10.26,12.27-15.74s2-13.32,2-19.42a6.08,6.08,0,0,0-6-6h-.49c-7.72,0-7.73,12,0,12h.49l-6-6c0,3.49,0,7,0,10.47,0,3.34-2,5-4.05,7.63-4.34,5.64-10.27,11.15-13.34,17.6-2.36,4.94-3.41,12.14-.9,17.24,3.11,6.28,9.32,4.33,14.31,1.81,3.39-1.72,6.73-3.56,10.08-5.37,1.1-.6,3.8-1.45,4.58-2.44l1.17-.3q-2.85-3.12-1.88-.26c-.54,2.39,1.53,6.87,2.65,8.9,1.56,2.84,4.06,5.17,7.53,5.1,6-.11,8.49-6.55,9.57-11.5l.31-1.74c.75-2.23.23-2.39-1.58-.48,0-.14,4,1.92,4.27,2.06Q204,283,209.5,285.83c5.07,2.57,12.27,5.29,15-1.89a21.42,21.42,0,0,0-2.1-18.81c-4.1-6-9.14-11.5-13.61-17.21-.71-.92-2.47-2.44-2.9-3.46-.52-1.27.09-4.4.11-5.79q.12-6.76.25-13.52c0-1.59.58-4.26.14-5.79l0-1.93q-5.32,2.5-1,2.88c2.65,1.76,7.83,2.15,10.92,3l22.42,6.29L261.55,236l11.37,3.19c3.28.91,6.9,2.43,10.37,2.15,5.6-.47,8.12-5.21,8.47-10.33a18.46,18.46,0,0,0-7-15.95c-12.4-10.13-26-19.05-39-28.47l-17.6-12.79-9.6-7c-2.94-2.14-8.69-4.8-10.55-8-1.38-2.34-.8-6.3-.88-9-.12-3.85-.13-7.72-.18-11.58-.11-8.54-.25-17.09-.62-25.63-.53-12.28-2.42-28.84-17.06-32.13-12.85-2.88-21.27,9.81-23,20.81-1.17,7.47-1,15.15-1.14,22.69q-.3,12.55-.58,25.1c-.06,2.81.71,7.14-.76,9.65s-6.33,4.83-8.8,6.62q-10.26,7.41-20.49,14.89-21.3,15.53-42.61,31.06C86,215.71,80.7,220,80.13,227.86c-.38,5.2.92,11.5,6.65,13.09,6.44,1.78,15.09-2.54,21.16-4.24l26.36-7.39,26.37-7.38,5.65-1.58c.8-.24,1.61-.46,2.42-.66q-4.12-4.87-3.29-.59c-1,3.38,0,8.72,0,12.28C165.42,239.11,177.42,239.12,177.44,231.39Z"/><path class="cls-2" d="M248.2,345.45q-5.17,2-10.44,3.67c-3.73,1.19-6.52,5.26-5.24,9.22,1.21,3.74,5.22,6.52,9.22,5.24q5.28-1.68,10.45-3.66c3.65-1.4,6.57-5.11,5.23-9.23C256.27,347.13,252.12,344,248.2,345.45Z"/><path class="cls-2" d="M213,355.07c-78.66,12.7-158.52-33.14-186.81-107.73a172.58,172.58,0,0,1-9.64-86c.6-4-1-8-5.24-9.23-3.52-1-8.63,1.24-9.22,5.24A188.74,188.74,0,0,0,40.25,301.84a186.5,186.5,0,0,0,104.5,65.69,189.4,189.4,0,0,0,72.19,2c4-.65,6.24-5.63,5.23-9.23C221,356.06,217,354.42,213,355.07Z"/><path class="cls-2" d="M22.1,136.5A174.23,174.23,0,0,1,58.37,71.82c6.4-7.19-4.17-17.83-10.6-10.6A191.65,191.65,0,0,0,7.64,132.51C4.8,141.76,19.27,145.71,22.1,136.5Z"/><path class="cls-2" d="M294.8,35C243.19-2.09,174.41-10.56,115.55,13.73A192.64,192.64,0,0,0,66.91,42.86c-3.16,2.58-2.63,7.91,0,10.6C70,56.6,74.4,56,77.52,53.46,124,15.51,188.13,4.83,244.46,25.13A175.94,175.94,0,0,1,287.23,48c3.31,2.38,8.32.55,10.26-2.69C299.74,41.51,298.07,37.35,294.8,35Z"/><path class="cls-2" d="M320.74,69.76c-3.18,3.11-2.48,7.44,0,10.61,34.6,44.16,44.94,103.31,28.55,156.76-2.84,9.25,11.63,13.2,14.46,4,18.09-59,5.53-122.94-32.4-171.35C328.83,66.55,323.39,67.17,320.74,69.76Z"/></g></g></svg>