<svg xmlns="http://www.w3.org/2000/svg" viewBox="0 0 370.33 371.96"><defs><style>.cls-1{fill:#729799;}.cls-2{fill:#e4dfd1;}</style></defs><title>Asset 8</title><g id="Layer_2" data-name="Layer 2"><g id="Layer_1-2" data-name="Layer 1"><g id="otHpCn.tif"><path class="cls-1" d="M176.18,141.13q-7.52-7.47-15-14.95L142.1,107.13c-2.74-2.75-3-6-.64-8.44s5.72-2.19,8.44.52q16.53,16.53,33,33.09c1.07,1.08,1.63,1.22,2.8,0,11-11.16,22.18-22.23,33.27-33.35a5.59,5.59,0,0,1,5.66-1.77,5.3,5.3,0,0,1,4,4.13c.55,2.25-.34,4-1.92,5.62q-16.5,16.45-32.95,33c-.42.43-1,.76-1.2,1.44a3.75,3.75,0,0,0,1.87.16h54.41c14.17,0,24.46,10.28,24.46,24.43q0,42.33,0,84.66c0,14.15-10.3,24.43-24.48,24.43H119.73c-14,0-24.38-10.32-24.39-24.34V165.88c0-14,10.25-24.3,24.21-24.33,18.13-.05,36.27,0,54.41,0h2Zm8.18,122.8h65a12.54,12.54,0,0,0,12.88-12.84q0-42.75,0-85.51a12.55,12.55,0,0,0-12.8-12.91H119.79c-8,0-13.32,5.3-13.32,13.27q0,42.41,0,84.81c0,7.83,5.38,13.18,13.24,13.18Z"/><path class="cls-1" d="M251.12,202.78q0,13.54,0,27.1c0,7.05-4.73,11.79-11.74,11.8h-32c-7.27,0-11.91-4.67-11.91-12q0-27,0-54c0-7.19,4.66-11.88,11.82-11.88h32.15c6.92,0,11.65,4.76,11.66,11.7Q251.14,189.14,251.12,202.78Zm-33.37-11.25h0c0,5.09,0,10.19,0,15.28,0,1.25.37,1.55,1.56,1.52,2.77-.09,5.56-.07,8.33,0,1,0,1.29-.25,1.28-1.25q0-15.47,0-30.91c0-1-.33-1.27-1.29-1.25-2.78,0-5.56.08-8.34,0-1.2,0-1.56.29-1.54,1.53C217.79,181.45,217.75,186.49,217.75,191.53ZM228.86,225c0-1.45-.06-2.9,0-4.34.06-1-.33-1.26-1.28-1.24-2.89.05-5.79,0-8.68,0-.88,0-1.22.21-1.2,1.15q.09,4.42,0,8.85c0,.94.32,1.17,1.2,1.16,2.89,0,5.79,0,8.68,0,1,0,1.34-.22,1.29-1.24C228.81,227.89,228.87,226.44,228.86,225Z"/><path class="cls-1" d="M145.48,252.81c-8.76,0-17.51,0-26.26,0-1.24,0-1.68-.24-1.66-1.6.09-5.1,0-10.2,0-15.3a16.72,16.72,0,0,1,16.53-16.51c7.48,0,15,0,22.43,0a16.68,16.68,0,0,1,16.66,16.73c0,5,0,10.08,0,15.12,0,1.21-.3,1.55-1.53,1.55C163,252.78,154.23,252.81,145.48,252.81Z"/><path class="cls-1" d="M145.47,174.92a16.69,16.69,0,1,1-16.75,16.63A16.69,16.69,0,0,1,145.47,174.92Z"/></g><path class="cls-2" d="M60.81,67.6q3.84-4,7.91-7.74a7.57,7.57,0,0,0,0-10.61,7.66,7.66,0,0,0-10.61,0Q54,53,50.21,57c-2.73,2.82-3,7.83,0,10.6S57.91,70.62,60.81,67.6Z"/><path class="cls-2" d="M87.14,45.12A173.65,173.65,0,0,1,202.33,15.8C243.41,19.94,282,39.67,310,69.82a171.21,171.21,0,0,1,38.44,67.49c2.77,9.22,17.25,5.29,14.47-4-14-46.51-45.81-86.59-88.36-110.16A188,188,0,0,0,147.75,3.54,185.21,185.21,0,0,0,79.57,32.17C71.64,37.57,79.13,50.57,87.14,45.12Z"/><path class="cls-2" d="M359.13,152.93c-4.31,1.21-5.8,5.18-5.23,9.22a174.34,174.34,0,0,1-5.79,73.78c-2.75,9.27,11.72,13.24,14.47,4a192.11,192.11,0,0,0,5.78-81.75C367.8,154.16,362.67,151.94,359.13,152.93Z"/><path class="cls-2" d="M339.32,258.88c-26.1,54.29-79.31,92.48-139.63,97.65a174.8,174.8,0,0,1-47.24-2.29c-9.43-1.78-13.48,12.68-4,14.46,61.79,11.61,126.33-8.08,170-53.6a187.82,187.82,0,0,0,33.76-48.64C356.43,257.8,343.5,250.18,339.32,258.88Z"/><path class="cls-2" d="M108.28,339.42a173.77,173.77,0,0,1-93.7-131.19c-.56-4-5.69-6.23-9.23-5.23C1,204.2-.45,208.18.12,212.22c8.41,59.94,46.61,112.84,100.59,140.16C109.3,356.72,116.9,343.79,108.28,339.42Z"/></g></g></svg>