<svg xmlns="http://www.w3.org/2000/svg" viewBox="0 0 372.06 371.82"><defs><style>.cls-1{fill:#729799;}.cls-2{fill:#e4dfd1;}</style></defs><title>Asset 15</title><g id="Layer_2" data-name="Layer 2"><g id="Layer_1-2" data-name="Layer 1"><g id="RssqA9.tif"><path class="cls-1" d="M186,258.21H98.62c-5.81,0-8-2.14-8-7.89,0-12.85,0-16.63,0-29.48,0-35.84,0-62.61,0-98.44,0-.46,0-.91,0-1.37.09-4.78,2.52-7.23,7.32-7.24,15.2,0,21.32,0,36.52,0H274c5.1,0,7.52,2.41,7.52,7.47,0,49.07,0,80,0,129.06,0,5.75-2.15,7.88-8,7.88H186Zm29.18-95.43v-2.27c0-12.17,0-24.35,0-36.52,0-1.56-.37-2.08-2-2q-9.64.14-19.28,0c-1.62,0-2,.51-2,2.06.08,4.91,0,9.82,0,14.74q0,54.44,0,108.87c0,1.66.26,2.33,2.17,2.33q38.44-.12,76.89,0c2,0,2.39-.61,2.3-2.42-.14-3.17,0-6.35,0-9.53q0-56.8.05-113.63c0-1.84-.41-2.46-2.35-2.42q-9.4.19-18.82,0c-1.77,0-2.12.56-2.11,2.2.07,12,0,24,0,36.06a3.23,3.23,0,0,1-.33,2.29c-.65-.39-1.3-.74-1.9-1.15-4.41-2.93-8.87-5.78-13.17-8.84-1.59-1.13-2.67-1-4.16.06C225.53,155.94,220.53,159.18,215.13,162.78ZM99,185.82q0,31,0,61.93c0,1.62.31,2.19,2.08,2.18q38.56-.09,77.13,0c1.74,0,2.11-.51,2.11-2.16q-.08-61.71,0-123.41c0-1.79-.35-2.44-2.32-2.43q-38.34.1-76.67,0c-2,0-2.35.59-2.34,2.42Q99,155.09,99,185.82Z"/><path class="cls-1" d="M139.61,191.7c-8.85,0-17.69-.08-26.54.05-2.09,0-2.59-.65-2.46-2.57a58.72,58.72,0,0,0,0-7c-.09-1.67.38-2.2,2.12-2.18,9.9.09,19.81,0,29.71,0,8.09,0,16.18,0,24.26,0,1.62,0,2.09.48,2,2a63.41,63.41,0,0,0,0,7c.13,2-.42,2.73-2.59,2.7-8.84-.13-17.69,0-26.53,0Z"/><path class="cls-1" d="M139.6,238.09c-9,0-18,0-27,0-1.6,0-2.09-.46-2-2a53.16,53.16,0,0,0,0-7.25c-.17-2.13.74-2.45,2.61-2.44,12.39.07,24.79,0,37.18,0,5.37,0,10.73.06,16.1,0,1.61,0,2.34.31,2.24,2.1-.14,2.56-.1,5.14,0,7.71.06,1.46-.4,1.92-1.91,1.91C157.73,238.06,148.66,238.09,139.6,238.09Z"/><path class="cls-1" d="M139.78,203.22c8.93,0,17.85,0,26.77,0,1.7,0,2.25.46,2.17,2.16-.12,2.64-.08,5.29,0,7.93,0,1.3-.46,1.66-1.72,1.66q-27.33,0-54.66,0c-1.27,0-1.74-.38-1.71-1.67.08-2.64.13-5.3,0-7.94-.09-1.73.51-2.15,2.19-2.14C121.79,203.26,130.79,203.22,139.78,203.22Z"/><path class="cls-1" d="M139.66,168.42c-8.92,0-17.85,0-26.77,0-1.77,0-2.39-.47-2.29-2.27a60.64,60.64,0,0,0,0-7.26c-.11-1.72.46-2.14,2.15-2.13,11.64.07,23.29,0,34.93,0,6.36,0,12.71,0,19.06,0,1.43,0,2,.32,2,1.87-.11,2.56-.11,5.14,0,7.71.06,1.58-.48,2.07-2.06,2.06C157.66,168.39,148.66,168.42,139.66,168.42Z"/><path class="cls-1" d="M139.58,145.17c-8.84,0-17.69,0-26.53,0-1.8,0-2.59-.33-2.45-2.32a49.84,49.84,0,0,0,0-7c-.11-1.79.46-2.29,2.26-2.28,13.22.08,26.45,0,39.68,0,4.68,0,9.37.08,14,0,1.76,0,2.21.55,2.12,2.2a70.32,70.32,0,0,0,0,7.26c.1,1.7-.48,2.18-2.17,2.16C157.57,145.13,148.57,145.17,139.58,145.17Z"/></g><path class="cls-2" d="M15,195.38c-.22-3.91-3.29-7.69-7.5-7.5-3.88.17-7.73,3.3-7.5,7.5.21,3.68.52,7.36.93,11,.44,3.89,3.14,7.7,7.5,7.5,3.69-.16,8-3.32,7.5-7.5C15.53,202.74,15.22,199.06,15,195.38Z"/><path class="cls-2" d="M254,28.88c3.75,1.59,8.21-1.71,9.22-5.24,1.24-4.32-1.52-7.66-5.24-9.22-47.1-19.88-100.92-19-147.64,1.44a186.28,186.28,0,0,0-90.11,85.19A189.65,189.65,0,0,0,.46,169.87c-.9,9.6,14.11,9.54,15,0C23,89.52,88.72,23.23,169.19,15.63A175.2,175.2,0,0,1,254,28.88Z"/><path class="cls-2" d="M328.4,91.09c5.35,8,18.35.48,13-7.57a191.66,191.66,0,0,0-58.93-56.71c-8.25-5.07-15.79,7.9-7.57,13A174,174,0,0,1,328.4,91.09Z"/><path class="cls-2" d="M354.33,106.66c-4-8.76-17-1.15-12.95,7.57,25.33,55,19.26,120.36-15.26,170a175.46,175.46,0,0,1-31.94,34.44c-7.43,6.18,3.23,16.74,10.6,10.6,47.59-39.59,73.2-102,66.12-163.64A192.75,192.75,0,0,0,354.33,106.66Z"/><path class="cls-2" d="M254.4,343C203,365.37,143.14,360.61,95.51,331.33c-8.24-5.07-15.79,7.9-7.57,12.95,52.54,32.31,117.63,36.21,174,11.62,3.74-1.63,4.52-7,2.69-10.26C262.47,341.78,258.09,341.34,254.4,343Z"/></g></g></svg>