<svg xmlns="http://www.w3.org/2000/svg" viewBox="0 0 372.29 372.03"><defs><style>.cls-1{fill:#729799;}.cls-2{fill:#e4dfd1;}</style></defs><title>Asset 14</title><g id="Layer_2" data-name="Layer 2"><g id="Layer_1-2" data-name="Layer 1"><path class="cls-1" d="M183.41,93.73c1.69,34.24.54,69.74.61,106.16-3.59,15.76-27.71,18.73-34.15,2.22,1.84-7.56-30.64,5.07-23.13-28.6-9.86-5.35-20.66-25-.92-35-8.48-7.53-2.42-25.76,11.47-24.38-5.14-14.13,5.25-22.82,19.89-20.38C161.2,83.34,178.23,81.62,183.41,93.73Zm-3.26,43c.64-10.14,3.45-72.69-21.47-35.42-15.12-8.08-23.55,2.75-13.4,18.22-16.25-3.67-27,6.87-11.06,20.34-16.94,3.8-22.16,24.75-.3,29.34-15.45,19.9,17.81,41.35,20,6.44-3.66-2.72.87-11.47-2.44-13-.11.79-22.8-1.3-20.94-10,23.09,14,33.91-4.54,25.74,14.65-2.16,17.75,15.13,1.61,16.28,13.83-52-9,17.15,88.6,7.57-35.57-9.38,11.08-36.1,1.17-32.87-13.76,9.59,14,16.08,11.8,19.13-7,2.09-3.54-8.61-14.83-2.45-16.44,23.93,25.34-28.13,47.4,16.21,35Z"/><path class="cls-1" d="M240.83,114c13.8,4.2,12.11,13.12,8.59,24.74,12.12,5.21,14.56,23.7-1.87,34.36,5.87,15.08-4.86,26.61-22.37,26.31a18.27,18.27,0,0,1-30,8.49c-9-5.33-4.45-42-5.46-73.56-.42-12.1-4.75-72.85,27.19-40.71,9.32-.14,25.31.06,19.89,19.87C237.76,114.11,236.49,113.16,240.83,114ZM204.17,90.24c-16.93.26-8.48,24.58-10.57,51.94,2.6,2.21,17.9,8.71,18.89,1.74-10.37-7.49-12.18-23.95-3.58-35.3,8.24-2-4.35,9-1.35,21.23,11.2,27.19,12.94-.84,20.12,3-3.64,13.4-20.32,24.16-34,13,1.61,17.91-3.66,38.33,3.1,56.85,19.6,20.54,41.32-22.41,3.5-23.7,4.8-9.1,23.69,8.84,13.92-21.27l.09.11c17.36,5.39,25.33-8.08,29.42-4.24-2,6.78-16.7,9.92-23.58,8.78,2.45,5.45.13,10.92-1.81,16.91,8.39,26.59,34.45,13.38,22-10.21,17.82-3.21,20-24.09-.4-29.05,12.33-11.73,9.26-24.43-11.4-20.61,8.9-15.32,4.17-25.49-14.7-19.14C212.87,96.72,210.36,90.14,204.17,90.24Z"/><path class="cls-1" d="M154.5,264.3c-3.76-35.05,9.27-22.27,36.39-24.36,12.08,1.95,25.22-4.32,28.63,4-.66,11.64,6.87,30.7-17.94,35.36-10.35,13.68-19.48,10.2-31.2-.81-5.29.69-6.13-1.68-9.9-6C156.52,272.56,154.58,270.44,154.5,264.3Zm15.38-16.64c-9.09-.84-8.08.4-7.55,10,.87,5-3.6,7.94,6.84,7.17,3.09,1.81-4,5.74,8.37,6.2,4.9,13.15,12.91,11.61,21-.55,5,.39,5.88-.14,5.78-5.63l0,0c10.41,3.53,9.13-11.37,6.19-17.17C198,247.64,184.49,247.69,169.88,247.66Z"/><path class="cls-1" d="M271.74,205.11c-1.69,4-9.5-6.18-21.92-17.14C248.41,179.74,269.24,198.65,271.74,205.11Z"/><path class="cls-1" d="M273.53,98.74c3,3.17-9.47,6.22-24.5,13.19C240.93,109.92,266.61,98.43,273.53,98.74Z"/><path class="cls-1" d="M100.55,92c1.7-4,9.5,6.18,21.93,17.15C123.88,117.35,103.05,98.44,100.55,92Z"/><path class="cls-1" d="M98.76,198.35c-3-3.16,9.48-6.21,24.51-13.19C131.36,187.18,105.68,198.66,98.76,198.35Z"/><path class="cls-1" d="M185.88,83.68l2.28,0a2.57,2.57,0,0,1,2,4.16,13.91,13.91,0,0,1-1.55,1.71,2.61,2.61,0,0,1-3.9-.45c-.27-.39-.56-.8-.89-1.21a2.57,2.57,0,0,1,1.92-4.22Z"/><path class="cls-1" d="M218.77,215.08c-11.84,11.39-3.71,13.31-14.8,13.53-6.74-.07-12.34-.08-17-.06s-10.24,0-17,.06c-11.09-.22-3-2.14-14.79-13.53a2.62,2.62,0,0,0-4.14,3.11l.08.16c13.59,23.4-3,17.87,35.84,17.34,38.87.53,22.25,6.06,35.84-17.34l.09-.16A2.62,2.62,0,0,0,218.77,215.08Z"/><path class="cls-2" d="M364.79,178.46a7.64,7.64,0,0,0-7.5,7.5c0,3.69-.12,7.38-.33,11.06-.23,3.93,3.61,7.68,7.5,7.5A7.67,7.67,0,0,0,372,197c.21-3.68.33-7.37.33-11.06C372.3,182,368.84,178.28,364.79,178.46Z"/><path class="cls-2" d="M353.86,220.32a173.61,173.61,0,0,1-60.56,99.15C262,344.85,221.86,358,181.69,357.05a171.7,171.7,0,0,1-80.18-22.3c-8.42-4.75-16,8.2-7.58,12.95,43.63,24.63,96.27,31.07,144.43,17a188,188,0,0,0,101.39-73.58,185.43,185.43,0,0,0,28.58-66.8C370.31,214.89,355.85,210.86,353.86,220.32Z"/><path class="cls-2" d="M81.89,321.78A177.83,177.83,0,0,1,33.36,263.2c-4.42-8.58-17.37-1-12.95,7.57a187.88,187.88,0,0,0,50.87,61.61c3.21,2.52,7.47,3.08,10.61,0C84.52,329.81,85.07,324.27,81.89,321.78Z"/><path class="cls-2" d="M23.87,240.53C5,183.05,17.31,118.57,57.5,73.06A174.68,174.68,0,0,1,92.87,42.43c8-5.26.54-18.25-7.57-12.95C33.84,63.15,1.37,120.4,0,182A188.37,188.37,0,0,0,9.4,244.51C12.4,253.65,26.89,249.74,23.87,240.53Z"/><path class="cls-2" d="M135,22.58c53.48-16.34,112.63-6,156.74,28.63,3.21,2.52,7.47,3.07,10.61,0,2.63-2.57,3.17-8.11,0-10.6C254,2.6,190.05-9.91,131,8.11,121.82,10.93,125.75,25.41,135,22.58Z"/></g></g></svg>