<?xml version="1.0" encoding="utf-8"?>
<!-- Generator: Adobe Illustrator 24.0.3, SVG Export Plug-In . SVG Version: 6.00 Build 0)  -->
<svg version="1.1" id="Layer_1" xmlns="http://www.w3.org/2000/svg" xmlns:xlink="http://www.w3.org/1999/xlink" x="0px" y="0px"
	 viewBox="0 0 371.9 372" style="enable-background:new 0 0 371.9 372;" xml:space="preserve">
<style type="text/css">
	.st0{fill:#E4DFD1;}
	.st1{fill:#729799;}
</style>
<title>Asset 13</title>
<path class="st0" d="M249.4,345c-3.4,1.3-6.9,2.6-10.4,3.7c-3.7,1.2-6.5,5.2-5.2,9.2c1.2,3.7,5.2,6.5,9.2,5.2
	c3.5-1.2,7-2.4,10.4-3.7c3.7-1.4,6.6-5.1,5.2-9.2C257.4,346.7,253.3,343.4,249.4,345z"/>
<path class="st0" d="M214.2,354.8c-78.9,13.3-159.3-32.4-187.9-107.2c-10.4-27.1-13.8-56.3-9.9-85.1c0.6-4-1-8-5.2-9.2
	c-3.5-1-8.7,1.2-9.2,5.2c-7.3,50.9,6.5,102.7,38.3,143.2c26.6,33.5,64,56.9,105.9,66.1c23.7,5.1,48.3,5.6,72.2,1.5
	C227.6,367.7,223.6,353.2,214.2,354.8z"/>
<path class="st0" d="M21.8,137.6c7.1-24,19.3-46.1,35.8-64.9c6.3-7.2-4.2-17.9-10.6-10.6c-18.2,20.7-31.7,45.1-39.6,71.5
	C4.5,142.9,19,146.9,21.8,137.6z"/>
<path class="st0" d="M293.8,34.2c-52-36.8-120.6-44.7-179.4-20C96.9,21.5,80.6,31.5,66,43.6c-7.4,6.2,3.2,16.7,10.6,10.6
	c46.2-38.3,110.4-49.5,167-29.4c15.2,5.5,29.5,13,42.6,22.4C294.1,52.8,301.6,39.8,293.8,34.2z"/>
<path class="st0" d="M320,68.8c-3.2,3.1-2.5,7.5,0,10.6c34.9,43.9,45.7,103,29.7,156.6c-2.8,9.3,11.7,13.2,14.5,4
	c17.7-59.1,4.7-123-33.5-171.1C328,65.6,322.6,66.2,320,68.8z"/>
<g id="Layer_2_2_">
	<g id="Layer_1-2_1_">
		<g id="YJwMuf.tif">
			<path class="st1" d="M201.3,94.8c5.7,0,11.3,0,17,0c6,0,10.3,4.1,10.4,9.7c0.1,5.6-4.3,10.1-10.2,10.3c-2,0.1-3.9,0.1-5.9,0
				c-1.2,0-1.7,0.3-1.7,1.6c0.1,1.9-0.6,4.1,0.3,5.6c0.8,1.4,3.4,1,5.2,1.4c11.1,2.3,21.5,7,30.6,13.7c1.3,1,2,1.1,3.2-0.2
				c2.4-2.7,5-5.2,7.7-7.6c4-3.6,10.2-3.3,13.9,0.7c1.2,1.3,2,2.8,2.3,4.5c0.8,3.3-0.2,6.7-2.6,9.1c-2.4,2.6-4.9,5.1-7.5,7.5
				c-1,0.9-1.2,1.6-0.3,2.8c9.9,13.3,15.1,29.5,15,46.1c0,37.3-27.6,69.9-64.4,76.1c-19.4,3.3-37.4-0.4-54.2-10.7
				c-4.7-2.7-6.4-8.8-3.7-13.5c2-3.4,5.8-5.4,9.7-4.9c1.9,0.3,3.7,1,5.2,2c27.4,16.5,62.9,7.6,79.3-19.7c1.6-2.7,3-5.4,4.1-8.3
				c13.8-34-8.1-72.9-44.2-78.5c-15.7-2.5-30,0.8-43.1,9.9c-5.1,3.5-11.1,2.7-14.4-2.1c-3.4-4.8-2.1-10.7,3.1-14.3
				c9.6-6.9,20.7-11.4,32.4-13.2c1.8-0.3,2.7-0.9,2.4-2.8c-0.2-1.7,0.7-3.8-0.4-4.9s-3.1-0.2-4.8-0.3c-1.4,0-2.8,0-4.1-0.2
				c-5.2-0.8-9-5.5-8.4-10.8c0.3-4.8,4.8-8.9,9.8-9C189.3,94.8,195.3,94.8,201.3,94.8L201.3,94.8z"/>
			<path class="st1" d="M201,183.9c1.8,0.7,3-0.4,4.4-1.5c6.6-5.3,13.1-10.6,19.8-15.8c3.9-3,9.1-1.3,10.2,3.3
				c0.6,2.4-0.4,4.4-1.9,6.2c-5.3,6.5-10.5,13.1-15.7,19.6c-0.8,0.9-1.2,2.2-1.2,3.4c0.2,8.2-5.9,15.1-14.1,16
				c-8,0.8-15.7-5.1-16.8-12.9c-1.3-8.5,3.9-16.2,12.2-17.9C198.8,184.1,199.8,184.1,201,183.9z"/>
			<path class="st1" d="M131.7,180.7c-10.1,0-20.2,0-30.3,0c-4.8,0-8.4-3.4-8.4-7.9s3.6-8,8.3-8c20.2,0,40.3,0,60.5,0
				c4.3,0,7.7,2.9,8.2,6.9c0.5,4-2,7.8-5.9,8.7c-0.9,0.2-1.9,0.3-2.8,0.2L131.7,180.7z"/>
			<path class="st1" d="M139.2,193.4c7.6,0,15.1-0.1,22.7,0c6,0.1,9.8,5.4,7.7,10.8c-1.1,3.2-4.1,5.2-7.5,5.1
				c-15.3,0.1-30.6,0.1-45.9,0c-4.4,0.1-8-3.4-8.1-7.8c0-0.1,0-0.1,0-0.2c0-4.4,3.5-7.8,8.2-7.8
				C123.9,193.4,131.6,193.4,139.2,193.4z"/>
			<path class="st1" d="M145.2,237.8c-5.4,0-10.7,0-16.1,0c-4.9,0-8.6-3.4-8.6-7.9s3.6-7.9,8.6-7.9c11,0,21.9,0,32.9,0
				c4.4-0.1,8,3.4,8.1,7.8c0.1,3.8-2.5,7.1-6.2,7.9c-0.7,0.2-1.5,0.2-2.3,0.2C156.2,237.8,150.7,237.8,145.2,237.8L145.2,237.8z"/>
		</g>
	</g>
</g>
</svg>
