<svg xmlns="http://www.w3.org/2000/svg" viewBox="0 0 372.04 372.24"><defs><style>.cls-1{fill:#729799;}.cls-2{fill:#e4dfd1;}</style></defs><title>Asset 16</title><g id="Layer_2" data-name="Layer 2"><g id="Layer_1-2" data-name="Layer 1"><path class="cls-1" d="M117.17,186.05q0-38.73,0-77.46c0-8.72,5.79-14.43,14.48-14.42q35.49,0,71,0a14.92,14.92,0,0,1,11.15,4.68q18.16,18.28,36.46,36.46A15.4,15.4,0,0,1,255,146.85c-.07,38.76-.15,77.52.06,116.29a14.5,14.5,0,0,1-15,14.94q-53.93-.31-107.86,0c-7.78.05-15.22-5.26-15.14-15.23C117.3,237.25,117.16,211.65,117.17,186.05Zm9,0h0q0,38.5,0,77c0,4.42,1.58,6,6,6H239.94c4.61,0,6.06-1.45,6.06-6.06q0-55.76.05-111.52c0-2-.61-2.38-2.43-2.37-9.56.08-19.12,0-28.68,0a18.12,18.12,0,0,1-4.7-.46c-6.2-1.66-10.15-6.82-10.19-13.56-.07-9.78-.1-19.56,0-29.34,0-2.23-.66-2.72-2.79-2.7-9.92.12-19.84.05-29.76.05h-35.8c-3.85,0-5.48,1.62-5.59,5.49,0,1,0,2,0,3Zm83-78.4c-.29.31-.11.92-.11,1.47q0,12.5,0,25c0,4.44,1.54,6,5.95,6,8.41,0,16.82,0,25.23,0,.52,0,1.16.23,1.31,0Z"/><path class="cls-1" d="M186,167.49c-12.15,0-24.3,0-36.45,0-3.41,0-5.4-2.57-4.56-5.71.55-2.05,2.32-3.21,5-3.22h71.83a11.11,11.11,0,0,1,1.29,0,4.44,4.44,0,0,1,4.18,4.6,4.22,4.22,0,0,1-4.42,4.3c-6.18.06-12.36,0-18.54,0H186Z"/><path class="cls-1" d="M186.13,177.05c12.15,0,24.3,0,36.45,0,3.24,0,5.2,2.28,4.7,5.27-.38,2.25-2.29,3.65-5.11,3.65q-18.87,0-37.75,0-17.14,0-34.29,0c-3.28,0-5.23-1.66-5.29-4.39a4.3,4.3,0,0,1,4.63-4.54c6.47,0,12.94,0,19.41,0h17.25Z"/><path class="cls-1" d="M186.12,222.74h-36c-3.28,0-5.23-1.62-5.28-4.35s2-4.6,5.32-4.6q35.91,0,71.82,0c2.09,0,3.87.5,4.89,2.47a4.27,4.27,0,0,1-.23,4.5c-1,1.64-2.64,2-4.48,2C210.13,222.72,198.12,222.74,186.12,222.74Z"/><path class="cls-1" d="M186.12,232.29h36.24c3.34,0,5.28,2,4.94,5.07-.27,2.38-2.19,3.86-5.12,3.87H149.92c-2.84,0-4.63-1.39-5-3.74-.48-3,1.46-5.19,4.74-5.2Z"/><path class="cls-1" d="M186,204.37H150.43c-3,0-4.73-1-5.39-3-1-3.17,1.09-5.88,4.79-5.93,5.46-.08,10.93,0,16.39,0H221c.72,0,1.44,0,2.15.05a4.26,4.26,0,0,1,4.18,4.33,4.18,4.18,0,0,1-4.22,4.49c-4.53.14-9.06.08-13.58.08Z"/><path class="cls-1" d="M162.85,149.1c-4.45,0-8.91.08-13.37,0-3.27-.08-5.11-2.38-4.53-5.4a4.06,4.06,0,0,1,4.11-3.43c9.34-.07,18.69-.09,28,0a4.39,4.39,0,0,1,0,8.78c-4.74.12-9.48,0-14.23,0Z"/><path class="cls-2" d="M181.58,357.24q-5.54-.15-11.05-.62c-3.92-.33-7.67,3.69-7.5,7.5.2,4.35,3.3,7.15,7.5,7.5q5.52.47,11.05.62a7.5,7.5,0,1,0,0-15Z"/><path class="cls-2" d="M147.33,352.89A171.24,171.24,0,0,1,39.55,97.63c5-8.3-8-15.85-12.95-7.57A188.2,188.2,0,0,0,6.14,234c11,41.43,36.54,78,71.12,103.13a185.11,185.11,0,0,0,66.08,30.2C152.73,369.58,156.73,355.12,147.33,352.89Z"/><path class="cls-2" d="M53.06,78.38a177.54,177.54,0,0,1,59.8-47c8.69-4.21,1.09-17.15-7.57-13A188.09,188.09,0,0,0,42.45,67.77C36.34,75.16,46.9,85.83,53.06,78.38Z"/><path class="cls-2" d="M344.94,89.1C312.7,37,256.5,3.35,195.22.23A188.2,188.2,0,0,0,131.8,8c-9.23,2.77-5.3,17.25,4,14.46C193.9,5.05,258.11,19.28,302.59,60.78A174.52,174.52,0,0,1,332,96.67C337.06,104.86,350,97.34,344.94,89.1Z"/><path class="cls-2" d="M350.74,139.32c15,53.93,3,112.71-32.75,155.92-6.11,7.39,4.44,18.06,10.61,10.61a188.53,188.53,0,0,0,36.6-170.52C362.62,126.05,348.14,130,350.74,139.32Z"/></g></g></svg>